<?xml version="1.0" encoding="UTF-8"?>
<svg xmlns="http://www.w3.org/2000/svg" xmlns:xlink="http://www.w3.org/1999/xlink" viewBox="0 0 1070 1994.68">
  <defs>
    <style>
      .cls-1 {
        filter: url(#luminosity-noclip-11);
      }

      .cls-2 {
        fill: url(#linear-gradient-19);
      }

      .cls-2, .cls-3, .cls-4, .cls-5, .cls-6, .cls-7, .cls-8, .cls-9, .cls-10, .cls-11, .cls-12, .cls-13, .cls-14, .cls-15, .cls-16, .cls-17, .cls-18, .cls-19, .cls-20, .cls-21, .cls-22, .cls-23, .cls-24, .cls-25, .cls-26, .cls-27, .cls-28, .cls-29, .cls-30, .cls-31, .cls-32, .cls-33, .cls-34, .cls-35, .cls-36, .cls-37, .cls-38, .cls-39 {
        stroke-width: 0px;
      }

      .cls-2, .cls-12, .cls-14, .cls-15, .cls-16, .cls-18, .cls-25, .cls-40, .cls-26, .cls-31, .cls-33, .cls-35, .cls-36, .cls-37, .cls-38 {
        mix-blend-mode: multiply;
      }

      .cls-3 {
        fill: url(#linear-gradient-12);
      }

      .cls-4 {
        fill: url(#linear-gradient-18);
      }

      .cls-4, .cls-7, .cls-10, .cls-16, .cls-17, .cls-18, .cls-22, .cls-40, .cls-27, .cls-30, .cls-32, .cls-34, .cls-35, .cls-41, .cls-39 {
        opacity: .5;
      }

      .cls-4, .cls-17, .cls-22, .cls-27, .cls-30, .cls-41, .cls-39 {
        mix-blend-mode: screen;
      }

      .cls-42 {
        filter: url(#luminosity-noclip-17);
      }

      .cls-5 {
        fill: url(#linear-gradient-33);
      }

      .cls-6 {
        fill: url(#linear-gradient);
      }

      .cls-43 {
        mask: url(#mask-10);
      }

      .cls-7 {
        fill: url(#linear-gradient-20);
      }

      .cls-8 {
        fill: #020202;
      }

      .cls-44 {
        filter: url(#luminosity-noclip-7);
      }

      .cls-9 {
        fill: url(#linear-gradient-21);
      }

      .cls-45 {
        filter: url(#luminosity-noclip-13);
      }

      .cls-46 {
        mask: url(#mask-17);
      }

      .cls-47 {
        filter: url(#luminosity-noclip-5);
      }

      .cls-48 {
        mask: url(#mask-2);
      }

      .cls-10 {
        fill: url(#linear-gradient-7);
      }

      .cls-49 {
        isolation: isolate;
      }

      .cls-50 {
        mask: url(#mask-13);
      }

      .cls-51 {
        mask: url(#mask-3);
      }

      .cls-52 {
        filter: url(#luminosity-noclip-15);
      }

      .cls-12 {
        fill: url(#linear-gradient-29);
      }

      .cls-13 {
        fill: url(#linear-gradient-31);
      }

      .cls-14 {
        fill: url(#linear-gradient-9);
      }

      .cls-53 {
        mask: url(#mask-9);
      }

      .cls-15 {
        fill: url(#linear-gradient-4);
      }

      .cls-16 {
        fill: url(#linear-gradient-11);
      }

      .cls-17 {
        fill: url(#linear-gradient-10);
      }

      .cls-54 {
        mask: url(#mask-12);
      }

      .cls-18 {
        fill: url(#linear-gradient-24);
      }

      .cls-55 {
        mask: url(#mask-5);
      }

      .cls-19 {
        fill: url(#linear-gradient-25);
      }

      .cls-20 {
        fill: url(#linear-gradient-16);
      }

      .cls-56 {
        filter: url(#luminosity-noclip-21);
      }

      .cls-21 {
        fill: url(#linear-gradient-35);
      }

      .cls-22 {
        fill: url(#linear-gradient-3);
      }

      .cls-23 {
        fill: url(#linear-gradient-32);
      }

      .cls-57 {
        mask: url(#mask-20);
      }

      .cls-58 {
        filter: url(#luminosity-noclip-9);
      }

      .cls-59 {
        mask: url(#mask-8);
      }

      .cls-24 {
        fill: #221f1f;
      }

      .cls-25 {
        fill: url(#linear-gradient-34);
      }

      .cls-60 {
        mask: url(#mask-4);
      }

      .cls-26 {
        fill: url(#linear-gradient-17);
      }

      .cls-61 {
        mask: url(#mask-19);
      }

      .cls-62 {
        mask: url(#mask-15);
      }

      .cls-63 {
        mask: url(#mask-6);
      }

      .cls-27 {
        fill: url(#linear-gradient-14);
      }

      .cls-64 {
        mask: url(#mask-16);
      }

      .cls-28 {
        fill: url(#linear-gradient-8);
      }

      .cls-29 {
        fill: url(#linear-gradient-26);
      }

      .cls-65 {
        mask: url(#mask-18);
      }

      .cls-30 {
        fill: url(#linear-gradient-28);
      }

      .cls-66 {
        filter: url(#luminosity-noclip);
      }

      .cls-67 {
        mask: url(#mask-1);
      }

      .cls-68 {
        mask: url(#mask);
      }

      .cls-31 {
        fill: url(#linear-gradient-2);
      }

      .cls-32 {
        fill: url(#linear-gradient-5);
      }

      .cls-33 {
        fill: url(#linear-gradient-27);
      }

      .cls-69 {
        mask: url(#mask-7);
      }

      .cls-34 {
        fill: url(#linear-gradient-30);
      }

      .cls-35 {
        fill: url(#linear-gradient-15);
      }

      .cls-36 {
        fill: url(#linear-gradient-6);
      }

      .cls-70 {
        mask: url(#mask-14);
      }

      .cls-71 {
        filter: url(#luminosity-noclip-19);
      }

      .cls-37 {
        fill: url(#linear-gradient-13);
      }

      .cls-72 {
        mask: url(#mask-21);
      }

      .cls-73 {
        mask: url(#mask-11);
      }

      .cls-38 {
        fill: url(#linear-gradient-22);
      }

      .cls-74 {
        filter: url(#luminosity-noclip-3);
      }

      .cls-39 {
        fill: url(#linear-gradient-23);
      }
    </style>
    <linearGradient id="linear-gradient" x1="292.49" y1="321.23" x2="802.87" y2="433.09" gradientUnits="userSpaceOnUse">
      <stop offset="0" stop-color="#a4a6a9"/>
      <stop offset=".03" stop-color="#939598"/>
      <stop offset=".12" stop-color="#707274"/>
      <stop offset=".19" stop-color="#57595a"/>
      <stop offset=".26" stop-color="#484a4b"/>
      <stop offset=".32" stop-color="#434546"/>
      <stop offset=".4" stop-color="#3c3d3e"/>
      <stop offset=".68" stop-color="#292727"/>
      <stop offset=".85" stop-color="#221f1f"/>
    </linearGradient>
    <filter id="luminosity-noclip" x="256.62" y="42.19" width="545.35" height="653.84" color-interpolation-filters="sRGB" filterUnits="userSpaceOnUse">
      <feFlood flood-color="#fff" result="bg"/>
      <feBlend in="SourceGraphic" in2="bg"/>
    </filter>
    <filter id="luminosity-noclip-2" x="256.62" y="-9186.68" width="545.35" height="32766" color-interpolation-filters="sRGB" filterUnits="userSpaceOnUse">
      <feFlood flood-color="#fff" result="bg"/>
      <feBlend in="SourceGraphic" in2="bg"/>
    </filter>
    <mask id="mask-1" x="256.62" y="-9186.68" width="545.35" height="32766" maskUnits="userSpaceOnUse"/>
    <linearGradient id="linear-gradient-2" x1="318.16" y1="369.11" x2="620.9" y2="369.11" gradientUnits="userSpaceOnUse">
      <stop offset="0" stop-color="#fff"/>
      <stop offset=".13" stop-color="#dfdfdf"/>
      <stop offset=".41" stop-color="#8f8f8f"/>
      <stop offset=".83" stop-color="#101010"/>
      <stop offset=".88" stop-color="#000"/>
    </linearGradient>
    <mask id="mask" x="256.62" y="42.19" width="545.35" height="653.84" maskUnits="userSpaceOnUse">
      <g class="cls-66">
        <g class="cls-67">
          <path class="cls-31" d="m647.04,62.27c-9.12-18.23-28.19-20.08-28.19-20.08h-179.03s-19.15,1.85-28.19,20.08c-2.94,5.73-19.58,42.89-41.03,92.53,36.72,71.01,100.78,195.09,102.43,197.09,2.22,3.16-28.19,33.71-30.7,34.87-2.01.71-73.09-121.36-99.48-166.99-40.38,96.26-83.92,206.58-86.15,237.85-4.01,57.38,145.82,238.41,145.82,238.41h253.55s149.83-181.03,145.82-238.41c-3.95-57.38-145.82-377.28-154.86-395.35Z"/>
        </g>
      </g>
    </mask>
    <linearGradient id="linear-gradient-3" x1="318.16" y1="369.11" x2="620.9" y2="369.11" gradientUnits="userSpaceOnUse">
      <stop offset="0" stop-color="#fff"/>
      <stop offset=".17" stop-color="#dfe0e0"/>
      <stop offset=".54" stop-color="#909192"/>
      <stop offset=".88" stop-color="#434546"/>
    </linearGradient>
    <filter id="luminosity-noclip-3" x="387.74" y="42.19" width="104.87" height="244" color-interpolation-filters="sRGB" filterUnits="userSpaceOnUse">
      <feFlood flood-color="#fff" result="bg"/>
      <feBlend in="SourceGraphic" in2="bg"/>
    </filter>
    <filter id="luminosity-noclip-4" x="387.74" y="-9186.68" width="104.87" height="32766" color-interpolation-filters="sRGB" filterUnits="userSpaceOnUse">
      <feFlood flood-color="#fff" result="bg"/>
      <feBlend in="SourceGraphic" in2="bg"/>
    </filter>
    <mask id="mask-3" x="387.74" y="-9186.68" width="104.87" height="32766" maskUnits="userSpaceOnUse"/>
    <linearGradient id="linear-gradient-4" x1="399.24" y1="670.58" x2="451.24" y2="-35.2" gradientUnits="userSpaceOnUse">
      <stop offset="0" stop-color="#000"/>
      <stop offset=".02" stop-color="#151515"/>
      <stop offset=".07" stop-color="#4b4b4b"/>
      <stop offset=".12" stop-color="#7b7b7b"/>
      <stop offset=".18" stop-color="#a3a3a3"/>
      <stop offset=".23" stop-color="#c4c4c4"/>
      <stop offset=".29" stop-color="#dedede"/>
      <stop offset=".35" stop-color="#f0f0f0"/>
      <stop offset=".41" stop-color="#fbfbfb"/>
      <stop offset=".47" stop-color="#fff"/>
      <stop offset=".58" stop-color="#bababa"/>
      <stop offset=".72" stop-color="#6b6b6b"/>
      <stop offset=".83" stop-color="#313131"/>
      <stop offset=".91" stop-color="#0d0d0d"/>
      <stop offset=".95" stop-color="#000"/>
    </linearGradient>
    <mask id="mask-2" x="387.74" y="42.19" width="104.87" height="244" maskUnits="userSpaceOnUse">
      <g class="cls-74">
        <g class="cls-51">
          <path class="cls-15" d="m492.61,42.19h-52.79s-4.01.43-9.33,2.57c-13.48,42.89-28.69,92.82-42.75,143.03,16.5,31.98,35.15,68.13,50.85,98.4,13.41-95.39,34.78-180.33,54.01-244Z"/>
        </g>
      </g>
    </mask>
    <linearGradient id="linear-gradient-5" x1="399.24" y1="670.58" x2="451.24" y2="-35.2" gradientUnits="userSpaceOnUse">
      <stop offset="0" stop-color="#fff"/>
      <stop offset=".03" stop-color="#fff"/>
      <stop offset=".47" stop-color="#fff"/>
      <stop offset=".95" stop-color="#fff"/>
    </linearGradient>
    <filter id="luminosity-noclip-5" x="337.27" y="262.66" width="158.35" height="433.37" color-interpolation-filters="sRGB" filterUnits="userSpaceOnUse">
      <feFlood flood-color="#fff" result="bg"/>
      <feBlend in="SourceGraphic" in2="bg"/>
    </filter>
    <filter id="luminosity-noclip-6" x="337.27" y="-9186.68" width="158.35" height="32766" color-interpolation-filters="sRGB" filterUnits="userSpaceOnUse">
      <feFlood flood-color="#fff" result="bg"/>
      <feBlend in="SourceGraphic" in2="bg"/>
    </filter>
    <mask id="mask-5" x="337.27" y="-9186.68" width="158.35" height="32766" maskUnits="userSpaceOnUse"/>
    <linearGradient id="linear-gradient-6" x1="408.44" y1="671.35" x2="460.46" y2="-34.61" xlink:href="#linear-gradient-4"/>
    <mask id="mask-4" x="337.27" y="262.66" width="158.35" height="433.37" maskUnits="userSpaceOnUse">
      <g class="cls-47">
        <g class="cls-55">
          <path class="cls-36" d="m426.12,424.18c.71-19.07,1.92-38.15,3.44-56.95-15.06-24.66-40.75-68.42-61.83-104.57-19.36,76.9-32.79,147.04-30.13,185.78,7.96,117.91,63.91,195.24,124.23,247.59h33.79c-41.75-38.72-75.39-112.17-69.5-271.84Z"/>
        </g>
      </g>
    </mask>
    <linearGradient id="linear-gradient-7" x1="408.44" y1="671.35" x2="460.46" y2="-34.61" xlink:href="#linear-gradient-5"/>
    <linearGradient id="linear-gradient-8" x1="529.33" y1=".2" x2="529.33" y2="89.45" gradientUnits="userSpaceOnUse">
      <stop offset="0" stop-color="#a4a6a9"/>
      <stop offset=".04" stop-color="#939598"/>
      <stop offset=".15" stop-color="#707274"/>
      <stop offset=".26" stop-color="#57595a"/>
      <stop offset=".35" stop-color="#484a4b"/>
      <stop offset=".42" stop-color="#434546"/>
      <stop offset=".77" stop-color="#282626"/>
      <stop offset=".85" stop-color="#221f1f"/>
    </linearGradient>
    <filter id="luminosity-noclip-7" x="410.3" y="0" width="82.3" height="62.55" color-interpolation-filters="sRGB" filterUnits="userSpaceOnUse">
      <feFlood flood-color="#fff" result="bg"/>
      <feBlend in="SourceGraphic" in2="bg"/>
    </filter>
    <filter id="luminosity-noclip-8" x="410.3" y="-9186.68" width="82.3" height="32766" color-interpolation-filters="sRGB" filterUnits="userSpaceOnUse">
      <feFlood flood-color="#fff" result="bg"/>
      <feBlend in="SourceGraphic" in2="bg"/>
    </filter>
    <mask id="mask-7" x="410.3" y="-9186.68" width="82.3" height="32766" maskUnits="userSpaceOnUse"/>
    <linearGradient id="linear-gradient-9" x1="451.46" y1="-2.77" x2="451.46" y2="57.84" gradientUnits="userSpaceOnUse">
      <stop offset=".1" stop-color="#fff"/>
      <stop offset=".44" stop-color="#999"/>
      <stop offset=".93" stop-color="#000"/>
    </linearGradient>
    <mask id="mask-6" x="410.3" y="0" width="82.3" height="62.55" maskUnits="userSpaceOnUse">
      <g class="cls-44">
        <g class="cls-69">
          <path class="cls-14" d="m481.99,36.87c-2.14-11.19-.15-25.96,6.24-36.87h-64.91c-15.13,15.92-16.2,41.75-7.67,62.27,1.29.13,2.51.28,3.73.28h73.23c-5.24-7.46-8.9-16.07-10.62-25.68Z"/>
        </g>
      </g>
    </mask>
    <linearGradient id="linear-gradient-10" x1="451.46" y1="-2.77" x2="451.46" y2="57.84" gradientUnits="userSpaceOnUse">
      <stop offset=".1" stop-color="#fff"/>
      <stop offset=".93" stop-color="#fff"/>
    </linearGradient>
    <linearGradient id="linear-gradient-11" x1="529.22" y1=".31" x2="529.22" y2="62.97" xlink:href="#linear-gradient-8"/>
    <linearGradient id="linear-gradient-12" x1="531.98" y1="667.73" x2="531.98" y2="752.17" xlink:href="#linear-gradient-8"/>
    <filter id="luminosity-noclip-9" x="411.8" y="688.28" width="65.1" height="62.55" color-interpolation-filters="sRGB" filterUnits="userSpaceOnUse">
      <feFlood flood-color="#fff" result="bg"/>
      <feBlend in="SourceGraphic" in2="bg"/>
    </filter>
    <filter id="luminosity-noclip-10" x="411.8" y="-9186.68" width="65.1" height="32766" color-interpolation-filters="sRGB" filterUnits="userSpaceOnUse">
      <feFlood flood-color="#fff" result="bg"/>
      <feBlend in="SourceGraphic" in2="bg"/>
    </filter>
    <mask id="mask-9" x="411.8" y="-9186.68" width="65.1" height="32766" maskUnits="userSpaceOnUse"/>
    <linearGradient id="linear-gradient-13" x1="444.35" y1="667.73" x2="444.35" y2="752.17" xlink:href="#linear-gradient-2"/>
    <mask id="mask-8" x="411.8" y="688.28" width="65.1" height="62.55" maskUnits="userSpaceOnUse">
      <g class="cls-58">
        <g class="cls-53">
          <path class="cls-37" d="m464.77,726.58c-2.64-13.91,2.31-28.12,11.55-38.3h-41.01c-8.55,2.86-16.36,7.32-20.74,15.2-6.23,11.47-1.07,23.53,7.04,32.71,4.66,5.3,9.9,10.18,15.42,14.63h39.88c-5.96-6.61-10.27-14.63-12.13-24.25Z"/>
        </g>
      </g>
    </mask>
    <linearGradient id="linear-gradient-14" x1="444.35" y1="667.73" x2="444.35" y2="752.17" xlink:href="#linear-gradient-3"/>
    <linearGradient id="linear-gradient-15" x1="531.98" y1="667.58" x2="531.98" y2="752.17" xlink:href="#linear-gradient-8"/>
    <linearGradient id="linear-gradient-16" x1="327.64" y1="1101.57" x2="724.81" y2="1101.57" gradientUnits="userSpaceOnUse">
      <stop offset="0" stop-color="#a4a6a9"/>
      <stop offset=".05" stop-color="#939598"/>
      <stop offset=".17" stop-color="#707274"/>
      <stop offset=".28" stop-color="#57595a"/>
      <stop offset=".38" stop-color="#484a4b"/>
      <stop offset=".46" stop-color="#434546"/>
      <stop offset=".52" stop-color="#3c3d3e"/>
      <stop offset=".72" stop-color="#292727"/>
      <stop offset=".85" stop-color="#221f1f"/>
    </linearGradient>
    <filter id="luminosity-noclip-11" x="287.4" y="785.69" width="490.46" height="631.76" color-interpolation-filters="sRGB" filterUnits="userSpaceOnUse">
      <feFlood flood-color="#fff" result="bg"/>
      <feBlend in="SourceGraphic" in2="bg"/>
    </filter>
    <filter id="luminosity-noclip-12" x="287.4" y="-9186.68" width="490.46" height="32766" color-interpolation-filters="sRGB" filterUnits="userSpaceOnUse">
      <feFlood flood-color="#fff" result="bg"/>
      <feBlend in="SourceGraphic" in2="bg"/>
    </filter>
    <mask id="mask-11" x="287.4" y="-9186.68" width="490.46" height="32766" maskUnits="userSpaceOnUse"/>
    <linearGradient id="linear-gradient-17" x1="327.64" y1="1101.57" x2="669.43" y2="1101.57" xlink:href="#linear-gradient-2"/>
    <mask id="mask-10" x="287.4" y="785.69" width="490.46" height="631.76" maskUnits="userSpaceOnUse">
      <g class="cls-1">
        <g class="cls-73">
          <path class="cls-26" d="m683.32,818.68l1.01-32.99-151.7,6.45-151.71-6.45,1.01,32.99s107.66,168.55-94.54,598.77h490.46c-202.2-430.22-94.54-598.77-94.54-598.77Z"/>
        </g>
      </g>
    </mask>
    <linearGradient id="linear-gradient-18" x1="327.64" y1="1101.57" x2="669.43" y2="1101.57" xlink:href="#linear-gradient-3"/>
    <filter id="luminosity-noclip-13" x="309.92" y="786.84" width="178.11" height="630.61" color-interpolation-filters="sRGB" filterUnits="userSpaceOnUse">
      <feFlood flood-color="#fff" result="bg"/>
      <feBlend in="SourceGraphic" in2="bg"/>
    </filter>
    <filter id="luminosity-noclip-14" x="309.92" y="-9186.68" width="178.11" height="32766" color-interpolation-filters="sRGB" filterUnits="userSpaceOnUse">
      <feFlood flood-color="#fff" result="bg"/>
      <feBlend in="SourceGraphic" in2="bg"/>
    </filter>
    <mask id="mask-13" x="309.92" y="-9186.68" width="178.11" height="32766" maskUnits="userSpaceOnUse"/>
    <linearGradient id="linear-gradient-19" x1="398.97" y1="1530.52" x2="398.97" y2="831.26" gradientUnits="userSpaceOnUse">
      <stop offset=".08" stop-color="#fff"/>
      <stop offset=".28" stop-color="#bababa"/>
      <stop offset=".52" stop-color="#6b6b6b"/>
      <stop offset=".73" stop-color="#313131"/>
      <stop offset=".87" stop-color="#0d0d0d"/>
      <stop offset=".95" stop-color="#000"/>
    </linearGradient>
    <mask id="mask-12" x="309.92" y="786.84" width="178.11" height="630.61" maskUnits="userSpaceOnUse">
      <g class="cls-45">
        <g class="cls-50">
          <path class="cls-2" d="m487.51,1027.98c-3.73-108.73-24.88-191.51-40.73-239.57l-37.3-1.57c15.63,44.91,34.49,126.67,22.17,241.14-14.65,134.85-65.93,305.26-121.73,389.47h110.74c44.68-83.22,71.45-253.35,66.85-389.47Z"/>
        </g>
      </g>
    </mask>
    <linearGradient id="linear-gradient-20" x1="398.97" y1="1530.52" x2="398.97" y2="831.26" gradientUnits="userSpaceOnUse">
      <stop offset=".08" stop-color="#fff"/>
      <stop offset=".95" stop-color="#fff"/>
    </linearGradient>
    <linearGradient id="linear-gradient-21" x1="531.95" y1="724.38" x2="531.95" y2="821.21" xlink:href="#linear-gradient-8"/>
    <filter id="luminosity-noclip-15" x="386.6" y="747.95" width="72.44" height="71.73" color-interpolation-filters="sRGB" filterUnits="userSpaceOnUse">
      <feFlood flood-color="#fff" result="bg"/>
      <feBlend in="SourceGraphic" in2="bg"/>
    </filter>
    <filter id="luminosity-noclip-16" x="386.6" y="-9186.68" width="72.44" height="32766" color-interpolation-filters="sRGB" filterUnits="userSpaceOnUse">
      <feFlood flood-color="#fff" result="bg"/>
      <feBlend in="SourceGraphic" in2="bg"/>
    </filter>
    <mask id="mask-15" x="386.6" y="-9186.68" width="72.44" height="32766" maskUnits="userSpaceOnUse"/>
    <linearGradient id="linear-gradient-22" x1="422.82" y1="724.38" x2="422.82" y2="821.22" xlink:href="#linear-gradient-2"/>
    <mask id="mask-14" x="386.6" y="747.95" width="72.44" height="71.73" maskUnits="userSpaceOnUse">
      <g class="cls-52">
        <g class="cls-62">
          <path class="cls-38" d="m436.73,796.3c-9.53-21.51,2.01-37.43,18.01-48.34h-40.38c-7.61,2.44-14.7,6.04-20.08,12.63-9.18,11.18-10.05,24.66-3.03,37.3,4.6,8.04,10.4,15.2,16.94,21.8h50.85c-9.55-5.6-17.64-13.04-22.31-23.39Z"/>
        </g>
      </g>
    </mask>
    <linearGradient id="linear-gradient-23" x1="422.82" y1="724.38" x2="422.82" y2="821.22" xlink:href="#linear-gradient-3"/>
    <linearGradient id="linear-gradient-24" x1="531.95" y1="724.56" x2="531.95" y2="821.21" xlink:href="#linear-gradient-8"/>
    <linearGradient id="linear-gradient-25" x1="167.33" y1="1457.11" x2="619.85" y2="1457.11" gradientUnits="userSpaceOnUse">
      <stop offset="0" stop-color="#221f1f"/>
      <stop offset=".2" stop-color="#a4a6a9"/>
      <stop offset=".25" stop-color="#939598"/>
      <stop offset=".35" stop-color="#707274"/>
      <stop offset=".45" stop-color="#57595a"/>
      <stop offset=".53" stop-color="#484a4b"/>
      <stop offset=".6" stop-color="#434546"/>
      <stop offset=".92" stop-color="#282626"/>
      <stop offset="1" stop-color="#221f1f"/>
    </linearGradient>
    <linearGradient id="linear-gradient-26" x1="143.44" y1="1635.56" x2="827.39" y2="1635.56" xlink:href="#linear-gradient-8"/>
    <filter id="luminosity-noclip-17" x="109.23" y="1496.35" width="846.58" height="278.44" color-interpolation-filters="sRGB" filterUnits="userSpaceOnUse">
      <feFlood flood-color="#fff" result="bg"/>
      <feBlend in="SourceGraphic" in2="bg"/>
    </filter>
    <filter id="luminosity-noclip-18" x="109.23" y="-9186.68" width="846.58" height="32766" color-interpolation-filters="sRGB" filterUnits="userSpaceOnUse">
      <feFlood flood-color="#fff" result="bg"/>
      <feBlend in="SourceGraphic" in2="bg"/>
    </filter>
    <mask id="mask-17" x="109.23" y="-9186.68" width="846.58" height="32766" maskUnits="userSpaceOnUse"/>
    <linearGradient id="linear-gradient-27" x1="143.44" y1="1635.56" x2="827.39" y2="1635.56" xlink:href="#linear-gradient-2"/>
    <mask id="mask-16" x="109.23" y="1496.35" width="846.58" height="278.44" maskUnits="userSpaceOnUse">
      <g class="cls-42">
        <g class="cls-46">
          <path class="cls-33" d="m943.26,1645.38c-12.19-10.47-24.18-21.23-36.15-31.7-10.69-9.47-21.52-18.66-31.99-28.41-20.01-18.21-82.55-77.31-95.47-88.93h-494.27c-12.9,11.62-75.44,70.71-95.47,88.93-10.46,9.75-21.3,18.93-31.98,28.41-11.99,10.47-23.96,21.23-36.15,31.7-8.9,7.61-14.78,20.37-11.77,31.7,3.58,13.78,16.79,24.97,26.18,34.28,13.56,13.78,69,63.41,69.94,63.41,0,0,191.28-1.15,326.43-1.72,134.98.57,326.34,1.72,326.34,1.72.94,0,56.3-49.64,69.94-63.41,9.4-9.31,22.59-20.51,26.18-34.28,3.01-11.33-2.86-24.09-11.75-31.7Z"/>
        </g>
      </g>
    </mask>
    <linearGradient id="linear-gradient-28" x1="143.44" y1="1635.56" x2="827.39" y2="1635.56" xlink:href="#linear-gradient-3"/>
    <filter id="luminosity-noclip-19" x="132.69" y="1496.35" width="256.92" height="278.44" color-interpolation-filters="sRGB" filterUnits="userSpaceOnUse">
      <feFlood flood-color="#fff" result="bg"/>
      <feBlend in="SourceGraphic" in2="bg"/>
    </filter>
    <filter id="luminosity-noclip-20" x="132.69" y="-9186.68" width="256.92" height="32766" color-interpolation-filters="sRGB" filterUnits="userSpaceOnUse">
      <feFlood flood-color="#fff" result="bg"/>
      <feBlend in="SourceGraphic" in2="bg"/>
    </filter>
    <mask id="mask-19" x="132.69" y="-9186.68" width="256.92" height="32766" maskUnits="userSpaceOnUse"/>
    <linearGradient id="linear-gradient-29" x1="195.47" y1="1712.64" x2="393.2" y2="1487.75" xlink:href="#linear-gradient-19"/>
    <mask id="mask-18" x="132.69" y="1496.35" width="256.92" height="278.44" maskUnits="userSpaceOnUse">
      <g class="cls-71">
        <g class="cls-61">
          <path class="cls-12" d="m389.61,1496.35h-62.9c-16.5,19.65-167.12,165.39-194.02,187.77,4.95,11.47-4.8,18.93,3.51,27.25,13.56,13.78,69,63.41,69.94,63.41,0,0,8.39,0,22.81-.29,34.86-102.71,66.84-123.21,160.66-278.14Z"/>
        </g>
      </g>
    </mask>
    <linearGradient id="linear-gradient-30" x1="195.47" y1="1712.64" x2="393.2" y2="1487.75" xlink:href="#linear-gradient-20"/>
    <linearGradient id="linear-gradient-31" x1="-58.24" y1="1722.85" x2="727.95" y2="1722.85" xlink:href="#linear-gradient-25"/>
    <linearGradient id="linear-gradient-32" x1="8.87" y1="1792.21" x2="636.67" y2="1792.21" xlink:href="#linear-gradient-8"/>
    <linearGradient id="linear-gradient-33" x1="0" y1="1905.75" x2="1070" y2="1905.75" xlink:href="#linear-gradient-8"/>
    <filter id="luminosity-noclip-21" x="78.53" y="1816.81" width="244.94" height="177.87" color-interpolation-filters="sRGB" filterUnits="userSpaceOnUse">
      <feFlood flood-color="#fff" result="bg"/>
      <feBlend in="SourceGraphic" in2="bg"/>
    </filter>
    <filter id="luminosity-noclip-22" x="78.53" y="-9186.68" width="244.94" height="32766" color-interpolation-filters="sRGB" filterUnits="userSpaceOnUse">
      <feFlood flood-color="#fff" result="bg"/>
      <feBlend in="SourceGraphic" in2="bg"/>
    </filter>
    <mask id="mask-21" x="78.53" y="-9186.68" width="244.94" height="32766" maskUnits="userSpaceOnUse"/>
    <linearGradient id="linear-gradient-34" x1="198.05" y1="2009.13" x2="207.1" y2="1692.42" gradientUnits="userSpaceOnUse">
      <stop offset=".08" stop-color="#fff"/>
      <stop offset=".15" stop-color="#dbdbdb"/>
      <stop offset=".27" stop-color="#999"/>
      <stop offset=".39" stop-color="#626262"/>
      <stop offset=".5" stop-color="#383838"/>
      <stop offset=".6" stop-color="#191919"/>
      <stop offset=".68" stop-color="#060606"/>
      <stop offset=".74" stop-color="#000"/>
    </linearGradient>
    <mask id="mask-20" x="78.53" y="1816.81" width="244.94" height="177.87" maskUnits="userSpaceOnUse">
      <g class="cls-56">
        <g class="cls-72">
          <path class="cls-25" d="m207.71,1816.81c-50.71,12.49-118.78,88.65-129.18,177.87h193.52c.5-56.23,9.47-136.13,51.43-177.87h-115.77Z"/>
        </g>
      </g>
    </mask>
    <linearGradient id="linear-gradient-35" x1="198.05" y1="2009.13" x2="207.1" y2="1692.42" gradientUnits="userSpaceOnUse">
      <stop offset=".08" stop-color="#fff"/>
      <stop offset=".74" stop-color="#fff"/>
    </linearGradient>
  </defs>
  <g class="cls-49">
    <g id="Capa_1" data-name="Capa 1">
      <g>
        <g>
          <path class="cls-6" d="m647.04,62.27c-9.12-18.23-28.19-20.08-28.19-20.08h-179.03s-19.15,1.85-28.19,20.08c-2.94,5.73-19.58,42.89-41.03,92.53,36.72,71.01,100.78,195.09,102.43,197.09,2.22,3.16-28.19,33.71-30.7,34.87-2.01.71-73.09-121.36-99.48-166.99-40.38,96.26-83.92,206.58-86.15,237.85-4.01,57.38,145.82,238.41,145.82,238.41h253.55s149.83-181.03,145.82-238.41c-3.95-57.38-145.82-377.28-154.86-395.35Z"/>
          <path class="cls-11" d="m377.78,330.66c7.45,15.92,11.03,23.39,22.37,37.15,15.78,18.8,41.67,20.23,41.89,19.52-4.67-4.17-71.45-119.5-99.2-167.56,8.17,35.87,19.14,77.18,34.93,110.89Z"/>
          <path class="cls-11" d="m647.04,62.27c-9.12-18.23-28.19-20.08-28.19-20.08h-109.39c40.31,33.99,74.31,78.6,99.42,120.5,40.09,66.7,74.09,144.31,83.63,222.06,18.16,147.75-108.58,310.56-266.67,293.79-15.5-1.72-30.13-4.6-44.04-8.33,12.49,15.92,20.73,25.82,20.73,25.82h253.55s149.83-181.03,145.82-238.41c-3.95-57.38-145.82-377.28-154.86-395.35Z"/>
          <g class="cls-68">
            <path class="cls-22" d="m647.04,62.27c-9.12-18.23-28.19-20.08-28.19-20.08h-179.03s-19.15,1.85-28.19,20.08c-2.94,5.73-19.58,42.89-41.03,92.53,36.72,71.01,100.78,195.09,102.43,197.09,2.22,3.16-28.19,33.71-30.7,34.87-2.01.71-73.09-121.36-99.48-166.99-40.38,96.26-83.92,206.58-86.15,237.85-4.01,57.38,145.82,238.41,145.82,238.41h253.55s149.83-181.03,145.82-238.41c-3.95-57.38-145.82-377.28-154.86-395.35Z"/>
          </g>
          <g class="cls-48">
            <path class="cls-32" d="m492.61,42.19h-52.79s-4.01.43-9.33,2.57c-13.48,42.89-28.69,92.82-42.75,143.03,16.5,31.98,35.15,68.13,50.85,98.4,13.41-95.39,34.78-180.33,54.01-244Z"/>
          </g>
          <g class="cls-60">
            <path class="cls-10" d="m426.12,424.18c.71-19.07,1.92-38.15,3.44-56.95-15.06-24.66-40.75-68.42-61.83-104.57-19.36,76.9-32.79,147.04-30.13,185.78,7.96,117.91,63.91,195.24,124.23,247.59h33.79c-41.75-38.72-75.39-112.17-69.5-271.84Z"/>
          </g>
          <g>
            <path class="cls-28" d="m639.21,62.55h-219.83c-17.29,0-31.27-14.06-31.27-31.27S402.09,0,419.38,0h219.83c17.29,0,31.35,14.06,31.35,31.27s-14.06,31.27-31.35,31.27Z"/>
            <g class="cls-63">
              <path class="cls-17" d="m481.99,36.87c-2.14-11.19-.15-25.96,6.24-36.87h-64.91c-15.13,15.92-16.2,41.75-7.67,62.27,1.29.13,2.51.28,3.73.28h73.23c-5.24-7.46-8.9-16.07-10.62-25.68Z"/>
            </g>
            <path class="cls-16" d="m396.5,43.76c-2.09,0-4.02-.15-5.95-.43,4.66,11.33,15.85,19.21,28.83,19.21h219.83c12.91,0,23.88-7.59,28.69-18.79h-271.4Z"/>
          </g>
          <g>
            <path class="cls-3" d="m661.02,750.83h-258.08c-17.27,0-31.27-14.06-31.27-31.27s14-31.27,31.27-31.27h258.08c17.22,0,31.27,13.76,31.27,31.27s-14.06,31.27-31.27,31.27Z"/>
            <g class="cls-59">
              <path class="cls-27" d="m464.77,726.58c-2.64-13.91,2.31-28.12,11.55-38.3h-41.01c-8.55,2.86-16.36,7.32-20.74,15.2-6.23,11.47-1.07,23.53,7.04,32.71,4.66,5.3,9.9,10.18,15.42,14.63h39.88c-5.96-6.61-10.27-14.63-12.13-24.25Z"/>
            </g>
            <path class="cls-35" d="m372.11,714.68c-.22,1.57-.44,3.16-.44,4.88,0,17.22,14,31.27,31.27,31.27h258.08c17.22,0,31.27-14.06,31.27-31.27,0-1.72-.22-3.31-.44-4.88h-319.74Z"/>
          </g>
          <path class="cls-20" d="m683.32,818.68l1.01-32.99-151.7,6.45-151.71-6.45,1.01,32.99s107.66,168.55-94.54,598.77h490.46c-202.2-430.22-94.54-598.77-94.54-598.77Z"/>
          <path class="cls-11" d="m684.33,785.69l-102.14,4.3c-13.21,26.97-21.45,56.66-26.54,85.2-12.41,69.29-10.25,142.02,1.79,211.6,20.23,116.34,66.92,224.5,117.34,330.66h103.07c-202.2-430.22-94.54-598.77-94.54-598.77l1.01-32.99Z"/>
          <g class="cls-43">
            <path class="cls-4" d="m683.32,818.68l1.01-32.99-151.7,6.45-151.71-6.45,1.01,32.99s107.66,168.55-94.54,598.77h490.46c-202.2-430.22-94.54-598.77-94.54-598.77Z"/>
          </g>
          <g class="cls-54">
            <path class="cls-7" d="m487.51,1027.98c-3.73-108.73-24.88-191.51-40.73-239.57l-37.3-1.57c15.63,44.91,34.49,126.67,22.17,241.14-14.65,134.85-65.93,305.26-121.73,389.47h110.74c44.68-83.22,71.45-253.35,66.85-389.47Z"/>
          </g>
          <g>
            <path class="cls-9" d="m679.66,819.68h-295.43c-19.73,0-35.86-16.07-35.86-35.71s16.13-36.02,35.86-36.02h295.43c19.8,0,35.87,16.07,35.87,36.02s-16.07,35.71-35.87,35.71Z"/>
            <g class="cls-70">
              <path class="cls-39" d="m436.73,796.3c-9.53-21.51,2.01-37.43,18.01-48.34h-40.38c-7.61,2.44-14.7,6.04-20.08,12.63-9.18,11.18-10.05,24.66-3.03,37.3,4.6,8.04,10.4,15.2,16.94,21.8h50.85c-9.55-5.6-17.64-13.04-22.31-23.39Z"/>
            </g>
            <path class="cls-18" d="m348.95,778.37c-.22,1.72-.57,3.58-.57,5.6,0,19.64,16.13,35.71,35.86,35.71h295.43c19.8,0,35.87-16.07,35.87-35.71,0-2.01-.29-3.88-.57-5.6h-366.01Z"/>
          </g>
          <path class="cls-19" d="m777.79,1417.3h-490.54c41.39,7.74,40.6,73.15-2.14,79.04v.57h494.77v-.57c-42.76-5.89-43.47-71.3-2.09-79.04Z"/>
          <path class="cls-11" d="m777.79,1417.3h-155.85c-7.54,7.32-14.35,15.35-17.29,25.38-7.32,25.4,2.59,43.33,25.75,54.23h149.48v-.57c-42.76-5.89-43.47-71.3-2.09-79.04Z"/>
          <path class="cls-29" d="m943.26,1645.38c-12.19-10.47-24.18-21.23-36.15-31.7-10.69-9.47-21.52-18.66-31.99-28.41-20.01-18.21-82.55-77.31-95.47-88.93h-494.27c-12.9,11.62-75.44,70.71-95.47,88.93-10.46,9.75-21.3,18.93-31.98,28.41-11.99,10.47-23.96,21.23-36.15,31.7-8.9,7.61-14.78,20.37-11.77,31.7,3.58,13.78,16.79,24.97,26.18,34.28,13.56,13.78,69,63.41,69.94,63.41,0,0,191.28-1.15,326.43-1.72,134.98.57,326.34,1.72,326.34,1.72.94,0,56.3-49.64,69.94-63.41,9.4-9.31,22.59-20.51,26.18-34.28,3.01-11.33-2.86-24.09-11.75-31.7Z"/>
          <path class="cls-11" d="m943.26,1645.38c-12.19-10.47-24.18-21.23-36.15-31.7-10.69-9.47-21.52-18.66-31.99-28.41-20.01-18.21-82.55-77.31-95.47-88.93h-70.01c21.59,25.81,44.04,51.06,64.84,77.75,21.24,26.97,62.47,63.11,58.74,96.54-3.08,27.69-15.13,50.93-32.49,71.29-9.31,11.05-19.43,21.67-29.26,32.29,51.57.28,87.43.57,87.43.57.94,0,56.3-49.64,69.94-63.41,9.4-9.31,22.59-20.51,26.18-34.28,3.01-11.33-2.86-24.09-11.75-31.7Z"/>
          <g class="cls-64">
            <path class="cls-30" d="m943.26,1645.38c-12.19-10.47-24.18-21.23-36.15-31.7-10.69-9.47-21.52-18.66-31.99-28.41-20.01-18.21-82.55-77.31-95.47-88.93h-494.27c-12.9,11.62-75.44,70.71-95.47,88.93-10.46,9.75-21.3,18.93-31.98,28.41-11.99,10.47-23.96,21.23-36.15,31.7-8.9,7.61-14.78,20.37-11.77,31.7,3.58,13.78,16.79,24.97,26.18,34.28,13.56,13.78,69,63.41,69.94,63.41,0,0,191.28-1.15,326.43-1.72,134.98.57,326.34,1.72,326.34,1.72.94,0,56.3-49.64,69.94-63.41,9.4-9.31,22.59-20.51,26.18-34.28,3.01-11.33-2.86-24.09-11.75-31.7Z"/>
          </g>
          <g class="cls-65">
            <path class="cls-34" d="m389.61,1496.35h-62.9c-16.5,19.65-167.12,165.39-194.02,187.77,4.95,11.47-4.8,18.93,3.51,27.25,13.56,13.78,69,63.41,69.94,63.41,0,0,8.39,0,22.81-.29,34.86-102.71,66.84-123.21,160.66-278.14Z"/>
          </g>
          <path class="cls-13" d="m109.3,1670.91c0,2.16.15,4.17.72,6.17,3.58,13.78,16.79,24.97,26.18,34.28,13.56,13.78,69,63.41,69.94,63.41,0,0,191.28-1.15,326.43-1.72,134.98.57,326.34,1.72,326.34,1.72.94,0,56.3-49.64,69.94-63.41,9.4-9.31,22.59-20.51,26.18-34.28.51-2,.65-4.01.65-6.17H109.3Z"/>
          <path class="cls-11" d="m710.66,1670.91c-7.04,13.78-17.51,25.25-29.85,34.73-48.27,36.86-77.46,52.78-136.35,61.96-13.26,2.31-26.53,4.02-39.88,5.6,125.45.72,354.32,1.59,354.32,1.59.94,0,56.3-49.64,69.94-63.41,9.4-9.31,22.59-20.51,26.18-34.28.51-2,.65-4.01.65-6.17h-245Z"/>
          <g>
            <path class="cls-23" d="m936.15,1805.48c0-23.83-18.44-43.04-41.38-43.04H175.16c-22.89,0-41.47,19.21-41.47,43.04,0,3.72.57,12.9,1.44,16.5l800.45-1.16c.87-3.72.57-11.62.57-15.34Z"/>
            <g class="cls-40">
              <path class="cls-24" d="m935.73,1799.17H134.26c-.35,2.01-.57,4.16-.57,6.32,0,3.72.57,12.9,1.44,16.5l800.45-1.16c.87-3.72.57-11.62.57-15.34,0-2.16-.15-4.3-.43-6.32Z"/>
            </g>
            <path class="cls-5" d="m1070,1994.11c0-97.98-61.2-177.3-136.57-177.3H136.57c-75.46,0-136.57,79.32-136.57,177.3v.57h1070v-.57Z"/>
            <path class="cls-8" d="m933.44,1816.81h-177.74c-59.32,69.86-193.08,112.9-255.7,132.41-69.44,21.52-142.44,37.58-216.4,45.46h786.41v-.57c0-97.98-61.2-177.3-136.57-177.3Z"/>
          </g>
        </g>
        <g class="cls-41">
          <g class="cls-57">
            <path class="cls-21" d="m207.71,1816.81c-50.71,12.49-118.78,88.65-129.18,177.87h193.52c.5-56.23,9.47-136.13,51.43-177.87h-115.77Z"/>
          </g>
        </g>
      </g>
    </g>
  </g>
</svg>