<?xml version="1.0" encoding="utf-8"?>
<!-- Generator: Adobe Illustrator 28.0.0, SVG Export Plug-In . SVG Version: 6.00 Build 0)  -->
<svg version="1.1" id="Capa_1" xmlns="http://www.w3.org/2000/svg" xmlns:xlink="http://www.w3.org/1999/xlink" x="0px" y="0px"
	 viewBox="0 0 2000 2000" style="enable-background:new 0 0 2000 2000;" xml:space="preserve">
<style type="text/css">
	.st0{fill:url(#SVGID_1_);}
	.st1{filter:url(#Adobe_OpacityMaskFilter);}
	.st2{filter:url(#Adobe_OpacityMaskFilter_00000106132725328623955810000005510338164536729485_);}
	
		.st3{mask:url(#SVGID_00000028303985785138900980000008140152618647988608_);fill:url(#SVGID_00000056414301779977579150000018086703498897554076_);}
	.st4{opacity:0.5;fill:url(#SVGID_00000042694710157244799470000012134283044343319971_);}
	.st5{opacity:0.5;fill:#D0D0D1;}
	.st6{fill:url(#SVGID_00000119796462200829655600000007532688043226276499_);}
	.st7{opacity:0.5;}
	.st8{fill:#B9B8B9;}
	.st9{fill:url(#SVGID_00000145751053421247351480000013393053740435877765_);}
	.st10{fill:#AEAEAF;}
	.st11{fill:url(#SVGID_00000112633017099378505970000001656632622287567254_);}
	.st12{fill:url(#SVGID_00000083807968449074423920000011257163957675682439_);}
	.st13{fill:url(#SVGID_00000167377764968976788640000011768169640745059975_);}
	.st14{fill:url(#SVGID_00000041281331572729068680000009196221673933671604_);}
	.st15{fill:url(#SVGID_00000062878811045666802360000003401445567135270035_);}
	.st16{fill:url(#SVGID_00000044176739308479082490000008079084516807966644_);}
	.st17{fill:url(#SVGID_00000026844188489031728850000008460305285742245032_);}
	.st18{fill:url(#SVGID_00000106842781567040232870000012973112637591028151_);}
	.st19{fill:url(#SVGID_00000025418599862620108780000003645822576593511556_);}
	.st20{fill:url(#SVGID_00000132796180418743167280000013516230710543787403_);}
	.st21{fill:url(#SVGID_00000159466691666480345300000011842203692196399261_);}
	.st22{fill:url(#SVGID_00000096030405418078877240000015419924692489774232_);}
	.st23{fill:url(#SVGID_00000165222693088161426280000005773643283740067993_);}
	.st24{fill:url(#SVGID_00000121269228863589317120000015280148720863432604_);}
	.st25{fill:url(#SVGID_00000096766566430861301650000013439459128387345539_);}
	.st26{fill:url(#SVGID_00000070829996817033681420000014661319306828474502_);}
	.st27{fill:url(#SVGID_00000157281159014399321100000008529714967252567970_);}
	.st28{fill:url(#SVGID_00000152261884371928339410000004351050133150208670_);}
	.st29{fill:url(#SVGID_00000173873108435539410150000002004573974211746983_);}
	.st30{fill:url(#SVGID_00000026122590205641241870000012182040086471385734_);}
	.st31{fill:url(#SVGID_00000060723298101926963240000010753932161736597182_);}
	.st32{filter:url(#Adobe_OpacityMaskFilter_00000118392297766454263940000017319916543094501801_);}
	.st33{filter:url(#Adobe_OpacityMaskFilter_00000016781790696112248810000007498237323307932559_);}
	
		.st34{mask:url(#SVGID_00000018951411462714483350000012084512333672341178_);fill:url(#SVGID_00000045620582769232293250000011137287191921730950_);}
	.st35{opacity:0.5;fill:url(#SVGID_00000106825830793131766010000010470602530446689962_);}
	.st36{fill:url(#SVGID_00000057141400696063261350000014994797082941156270_);}
	.st37{filter:url(#Adobe_OpacityMaskFilter_00000181058797776928033050000007906586608057473685_);}
	.st38{filter:url(#Adobe_OpacityMaskFilter_00000182487922828978297080000004872405047054824875_);}
	
		.st39{mask:url(#SVGID_00000177455317946008046230000015254779508327498377_);fill:url(#SVGID_00000013874335372428583250000002914964860075134883_);}
	.st40{opacity:0.5;fill:url(#SVGID_00000001652771617847428430000013802888189600567430_);}
	.st41{filter:url(#Adobe_OpacityMaskFilter_00000053539889921598221910000006489548156021641610_);}
	.st42{filter:url(#Adobe_OpacityMaskFilter_00000048499346504455835370000017206631574109976726_);}
	
		.st43{mask:url(#SVGID_00000021087757330183046470000018266442245438206910_);fill:url(#SVGID_00000171694530801097335760000016875343382046344369_);}
	.st44{opacity:0.5;fill:url(#SVGID_00000005985015035891375220000017547088042446347445_);}
	.st45{filter:url(#Adobe_OpacityMaskFilter_00000133501363280738828460000016412994331237487523_);}
	.st46{filter:url(#Adobe_OpacityMaskFilter_00000063612403621110237870000012926290409512414123_);}
	
		.st47{mask:url(#SVGID_00000106126719715568969630000003408525656202681766_);fill:url(#SVGID_00000129165363862447707100000004329236669315919761_);}
	.st48{opacity:0.5;fill:url(#SVGID_00000158012021059416395050000000485362762456790145_);}
	.st49{filter:url(#Adobe_OpacityMaskFilter_00000157284901705669931820000008958300039728373390_);}
	.st50{filter:url(#Adobe_OpacityMaskFilter_00000008855239534585907700000003491351284894619286_);}
	
		.st51{mask:url(#SVGID_00000013185424873739221940000009708266158300763797_);fill:url(#SVGID_00000012455665098613462160000016179636476362124987_);}
	.st52{fill:url(#SVGID_00000096055508938987854090000009384728474064637824_);}
</style>
<g>
	<g>
		<g>
			
				<linearGradient id="SVGID_1_" gradientUnits="userSpaceOnUse" x1="1848.3998" y1="1666.1733" x2="2655.3696" y2="1666.1733" gradientTransform="matrix(-1 0 0 1 3408.2246 0)">
				<stop  offset="0" style="stop-color:#E2E2E2"/>
				<stop  offset="6.141670e-02" style="stop-color:#D8D8D8"/>
				<stop  offset="0.189" style="stop-color:#C8C8C8"/>
				<stop  offset="0.2908" style="stop-color:#C3C3C3"/>
				<stop  offset="0.6434" style="stop-color:#B9B8B9"/>
			</linearGradient>
			<path class="st0" d="M1144.3,1547.3l401.3-7.4c0,0,0,50.8,0,65.2c0,14.6-17.6,46-54.3,65c-36.8,19.2-40.6,55.1-22.2,75.8
				c18.3,20.5,26,22.8,26,46.7h-250.9h-199.7h-251c0-23.8,7.7-26.2,26-46.7c18.3-20.6,14.5-56.6-22.2-75.8
				c-36.7-19.1-54.3-50.5-54.3-65c0-14.4,0-65.2,0-65.2L1144.3,1547.3z"/>
			<defs>
				<filter id="Adobe_OpacityMaskFilter" filterUnits="userSpaceOnUse" x="1321.8" y="1551.3" width="194.5" height="230.1">
					<feFlood  style="flood-color:white;flood-opacity:1" result="back"/>
					<feBlend  in="SourceGraphic" in2="back" mode="normal"/>
				</filter>
			</defs>
			
				<mask maskUnits="userSpaceOnUse" x="1321.8" y="1551.3" width="194.5" height="230.1" id="SVGID_00000158009685839004794010000001386591031124182150_">
				<g class="st1">
					<defs>
						
							<filter id="Adobe_OpacityMaskFilter_00000114761249870722986940000014695437543350420902_" filterUnits="userSpaceOnUse" x="1321.8" y="1551.3" width="194.5" height="230.1">
							<feFlood  style="flood-color:white;flood-opacity:1" result="back"/>
							<feBlend  in="SourceGraphic" in2="back" mode="normal"/>
						</filter>
					</defs>
					
						<mask maskUnits="userSpaceOnUse" x="1321.8" y="1551.3" width="194.5" height="230.1" id="SVGID_00000158009685839004794010000001386591031124182150_">
						<g style="filter:url(#Adobe_OpacityMaskFilter_00000114761249870722986940000014695437543350420902_);">
						</g>
					</mask>
					
						<linearGradient id="SVGID_00000121992564520734587610000010516707673657159069_" gradientUnits="userSpaceOnUse" x1="1989.158" y1="1571.8934" x2="1989.158" y2="1812.27" gradientTransform="matrix(-1 0 0 1 3408.2246 0)">
						<stop  offset="0.1042" style="stop-color:#FFFFFF"/>
						<stop  offset="0.4377" style="stop-color:#9A9A9A"/>
						<stop  offset="0.9254" style="stop-color:#000000"/>
					</linearGradient>
					
						<path style="mask:url(#SVGID_00000158009685839004794010000001386591031124182150_);fill:url(#SVGID_00000121992564520734587610000010516707673657159069_);" d="
						M1399.6,1780.4c0,0-76.1,1-76.3,1c-2.5,0-1.2-42.5-1.1-46.7c0.7-19.5,2.8-39.7,13.2-56.6c10.5-17.2,27.7-28.5,38.1-45.4
						c11.9-19.6,11.3-44.7,6.4-66.3c-0.8-3.5-3.7-13.1-8.9-13.1l143.8-2c0,18,3.3,27.6,0,45.1c-7,37.7-28.4,54.3-61.7,69.4
						c-26,12.1-40.8,36.7-48.7,63.3C1403,1734,1388.7,1780.6,1399.6,1780.4z"/>
				</g>
			</mask>
			
				<linearGradient id="SVGID_00000003815496925542510670000008982889437791947149_" gradientUnits="userSpaceOnUse" x1="1989.158" y1="1571.8934" x2="1989.158" y2="1812.27" gradientTransform="matrix(-1 0 0 1 3408.2246 0)">
				<stop  offset="0.1042" style="stop-color:#FFFFFF"/>
				<stop  offset="0.9254" style="stop-color:#FFFFFF"/>
			</linearGradient>
			<path style="opacity:0.5;fill:url(#SVGID_00000003815496925542510670000008982889437791947149_);" d="M1399.6,1780.4
				c0,0-76.1,1-76.3,1c-2.5,0-1.2-42.5-1.1-46.7c0.7-19.5,2.8-39.7,13.2-56.6c10.5-17.2,27.7-28.5,38.1-45.4
				c11.9-19.6,11.3-44.7,6.4-66.3c-0.8-3.5-3.7-13.1-8.9-13.1l143.8-2c0,18,3.3,27.6,0,45.1c-7,37.7-28.4,54.3-61.7,69.4
				c-26,12.1-40.8,36.7-48.7,63.3C1403,1734,1388.7,1780.6,1399.6,1780.4z"/>
			<path class="st5" d="M965.7,1544.1c30.2,66.2,38.2,106.5,113.9,123.8c40.1,9.2,225.2,8.6,285.3,5.5c60.4-3.1,140.2,11.6,175-49.9
				c-7.9,15.1-23.9,33.6-48.7,46.5c-36.8,19.2-40.6,55.1-22.2,75.8c18.3,20.5,26,22.8,26,46.7H793.5c0-23.8,7.7-26.2,26-46.7
				c18.3-20.6,14.5-56.6-22.2-75.8c-36.7-19.1-54.3-50.5-54.3-65c0-14.4,0-65.2,0-65.2L965.7,1544.1z"/>
			<g>
				<g>
					
						<linearGradient id="SVGID_00000078748216448604668310000008290697130288747962_" gradientUnits="userSpaceOnUse" x1="1730.563" y1="1800.5759" x2="2367.1387" y2="1800.5759" gradientTransform="matrix(-1 0 0 1 3408.2246 0)">
						<stop  offset="0" style="stop-color:#E2E2E2"/>
						<stop  offset="8.897564e-02" style="stop-color:#D8D8D8"/>
						<stop  offset="0.2738" style="stop-color:#C8C8C8"/>
						<stop  offset="0.4212" style="stop-color:#C3C3C3"/>
						<stop  offset="0.8535" style="stop-color:#B9B8B9"/>
					</linearGradient>
					<path style="fill:url(#SVGID_00000078748216448604668310000008290697130288747962_);" d="M737.4,1814
						c0-24.2,18.9-43.6,42.1-43.6h729.7c23.1,0,42,19.5,42,43.6c0,3.8-0.5,13.1-1.5,16.7l-811.6-1.3
						C737.2,1825.8,737.4,1817.8,737.4,1814z"/>
				</g>
				<g class="st7">
					<path class="st8" d="M737.9,1807.5h812.7c0.3,2.2,0.5,4.2,0.5,6.6c0,3.8-0.5,13.1-1.5,16.7l-811.6-1.3
						c-0.9-3.6-0.7-11.6-0.7-15.4C737.4,1811.7,737.6,1809.7,737.9,1807.5z"/>
				</g>
				
					<linearGradient id="SVGID_00000037651670459742995510000004185331620397732259_" gradientUnits="userSpaceOnUse" x1="1721.5002" y1="1915.6165" x2="2806.387" y2="1915.6165" gradientTransform="matrix(-1 0 0 1 3408.2246 0)">
					<stop  offset="0" style="stop-color:#E2E2E2"/>
					<stop  offset="8.897564e-02" style="stop-color:#D8D8D8"/>
					<stop  offset="0.2738" style="stop-color:#C8C8C8"/>
					<stop  offset="0.4212" style="stop-color:#C3C3C3"/>
					<stop  offset="0.8535" style="stop-color:#B9B8B9"/>
				</linearGradient>
				<path style="fill:url(#SVGID_00000037651670459742995510000004185331620397732259_);" d="M601.8,2005.2
					c0-99.2,62-179.8,138.5-179.8h808c76.4,0,138.5,80.6,138.5,179.8c0,0.3,0,0.6,0,0.7H601.8
					C601.8,2005.7,601.8,2005.4,601.8,2005.2z"/>
				<path class="st5" d="M740.3,1825.4h180.2c60.1,70.8,195.8,114.5,259.3,134.3c70.4,22,144.4,38.1,219.3,46.2H601.8
					c0-0.1,0-0.4,0-0.7C601.8,1905.9,663.8,1825.4,740.3,1825.4z"/>
			</g>
			<path class="st10" d="M1433.7,306.7c0,0,80-88.9,111.2-120c31.1-31.1-13.3-52.4-81.2-80.1c-58.4-24-119-43.6-180.5-58
				c-96.7-22.4-204.3-34.8-302.6-17.3c-93.2,16.6-176.1,62.1-249.8,120c-131.8,103.3-235.3,226-307.5,377.6
				c-34.5,72.7-65.6,154.5-82.1,233.1c-27.5,131.6-42.8,149.8,4.1,175.1c62.9,34,128.8,63.3,190.5,100.2
				c59.5,35.9,126,71.6,174.4,122.5c51,53.7-33.2,142.8-64.6,184.3c-15.4,20.5-20.3,34-3.9,55.4c12.4,16.1,27.9,30.2,42.1,44.7
				c16.1,16.6,64.5,52.4,64.5,78.2c0,24.4,71.9-47.4,71.9-42.8c0,4.5,143.8-179,143.8-179s-19.9-116.4-125.5-232.6
				C733,951.7,543.3,867.6,534.1,838.5c-9.1-29.1,18.4-310.7,237.3-474.5c218.8-163.6,296.8-90.3,318.2-165.2
				C1111,123.9,1386.2,286.2,1433.7,306.7z"/>
			<g>
				
					<linearGradient id="SVGID_00000005225642683564568640000014467604242672708002_" gradientUnits="userSpaceOnUse" x1="1864.0618" y1="144.8223" x2="1975.9149" y2="280.7994" gradientTransform="matrix(-1 0 0 1 3408.2246 0)">
					<stop  offset="8.533809e-02" style="stop-color:#E2E2E2"/>
					<stop  offset="0.176" style="stop-color:#DEDDDE"/>
					<stop  offset="0.9869" style="stop-color:#B9B8B9"/>
				</linearGradient>
				<path style="fill:url(#SVGID_00000005225642683564568640000014467604242672708002_);" d="M1466.8,198.7
					c14.5-16.3,26.1-37.5,41.7-52.7c7.6-7.3,15.4-9.4,23.2-7.4c23.6,14.8,31.6,29.7,13.2,48.2c-31.2,31.1-111.2,120-111.2,120
					c-7.1-3.1-19.3-9.2-34.8-17.3C1409.7,273.7,1454.9,212.4,1466.8,198.7z"/>
				
					<linearGradient id="SVGID_00000065038259467166802210000010697043147095795842_" gradientUnits="userSpaceOnUse" x1="1953.4786" y1="105.9568" x2="2023.5463" y2="252.0599" gradientTransform="matrix(-1 0 0 1 3408.2246 0)">
					<stop  offset="8.533809e-02" style="stop-color:#E2E2E2"/>
					<stop  offset="0.176" style="stop-color:#DEDDDE"/>
					<stop  offset="0.9869" style="stop-color:#B9B8B9"/>
				</linearGradient>
				<path style="fill:url(#SVGID_00000065038259467166802210000010697043147095795842_);" d="M1383.9,188.8
					c10.1-22,21-43.6,29.4-66.5c5.2-14.7,9-28.5,25.4-25.8c8.4,3.5,16.7,6.7,25.1,10c0.2,0.1,0.6,0.3,0.9,0.4c2.5,2,4.9,3.9,6.8,6.6
					c4.2,13.1-3.1,28.6-8.1,42.5c-6.8,18.3-14.5,36.2-23.6,53.7c-5.2,9.9-10.7,19.5-16.4,29.2c-11.9,14.8-22.8,30.4-31.2,46.8
					c-13.4-7-29-15.1-45.8-23.6C1363.5,241.1,1372.6,213.5,1383.9,188.8z"/>
				
					<linearGradient id="SVGID_00000076587060432085205640000010358634678622762644_" gradientUnits="userSpaceOnUse" x1="2034.4373" y1="66.9498" x2="2104.5815" y2="213.2129" gradientTransform="matrix(-1 0 0 1 3408.2246 0)">
					<stop  offset="8.533809e-02" style="stop-color:#E2E2E2"/>
					<stop  offset="0.176" style="stop-color:#DEDDDE"/>
					<stop  offset="0.9869" style="stop-color:#B9B8B9"/>
				</linearGradient>
				<path style="fill:url(#SVGID_00000076587060432085205640000010358634678622762644_);" d="M1311,112.4c4.9-16.9,9-54.4,34.2-46.7
					c8.5,2.5,18,7.7,27.3,8.3c5.8,3.6,10.9,8,12.3,13.8c2.3,10.3,0.9,20.1-1.5,30.1c-4.9,21.2-10.8,42.3-18.7,62.5
					c-9.7,25.5-21.4,49.9-34.9,73.3c-16.8-8.4-34.4-17-52.2-25.3C1288.3,189.7,1299.8,151.1,1311,112.4z"/>
				
					<linearGradient id="SVGID_00000015319528761267732830000001759700274856696465_" gradientUnits="userSpaceOnUse" x1="2114.1912" y1="28.6904" x2="2184.3804" y2="175.0468" gradientTransform="matrix(-1 0 0 1 3408.2246 0)">
					<stop  offset="8.533809e-02" style="stop-color:#E2E2E2"/>
					<stop  offset="0.176" style="stop-color:#DEDDDE"/>
					<stop  offset="0.9869" style="stop-color:#B9B8B9"/>
				</linearGradient>
				<path style="fill:url(#SVGID_00000015319528761267732830000001759700274856696465_);" d="M1222.5,124.3
					c0.9-22.8-0.4-49.1,6-71.1c2.3-8.4,6.5-12.2,11.8-13.5c10.1,1.9,20.3,3.8,30.2,6c11,7.1,18.9,16.9,18.9,30.8
					c0,20.2-6.3,40.2-11.2,59.6c-7,27.8-13.6,55.7-21.3,83.2c-12.1-5.5-24.2-10.5-36.1-15.1C1221.2,177.4,1221.4,151,1222.5,124.3z"
					/>
				
					<linearGradient id="SVGID_00000096756972370318543620000006602351979442716298_" gradientUnits="userSpaceOnUse" x1="2262.6399" y1="15.3126" x2="2241.1128" y2="191.02" gradientTransform="matrix(-1 0 0 1 3408.2246 0)">
					<stop  offset="8.533809e-02" style="stop-color:#E2E2E2"/>
					<stop  offset="0.176" style="stop-color:#DEDDDE"/>
					<stop  offset="0.9869" style="stop-color:#B9B8B9"/>
				</linearGradient>
				<path style="fill:url(#SVGID_00000096756972370318543620000006602351979442716298_);" d="M1124.1,179.3c-2.2-18-3.8-35.9-5.3-54
					c-1.8-21.7-6.6-43.8-6.1-65.7c0.4-11.1,1-28.8,12.3-35.1c19,1.2,38,3.1,56.9,5.5c8.7,7.9,10,20.1,10.5,32
					c0.8,22.5-1.7,44.9-3.6,67.5c-1.7,20.2-3.7,40.6-7.1,60.5C1159.6,183.3,1139.9,179.3,1124.1,179.3z"/>
				
					<linearGradient id="SVGID_00000105396234048302596770000009612578922896631202_" gradientUnits="userSpaceOnUse" x1="2505.3027" y1="55.645" x2="2447.26" y2="236.2259" gradientTransform="matrix(-1 0 0 1 3408.2246 0)">
					<stop  offset="8.533809e-02" style="stop-color:#E2E2E2"/>
					<stop  offset="0.5153" style="stop-color:#C3C3C3"/>
					<stop  offset="0.8535" style="stop-color:#B9B8B9"/>
				</linearGradient>
				<path style="fill:url(#SVGID_00000105396234048302596770000009612578922896631202_);" d="M891.9,153.6
					c-12.1-26.5-34.3-68.4-5.5-92.2c2.8-2.3,5.7-4.2,8.7-6.1c8.1-3.1,16.4-6.1,24.7-8.6c3.5-0.4,7.1-0.6,10.6-0.4
					c15.7,3.6,22.5,19.5,26.3,34.5c6.8,26.3,12.1,53.4,17.2,80c5.9,30.2,10.1,60.9,15.5,91.2c-14.4,3.5-30.5,8.4-48.7,15.1
					C925.1,229.1,909.1,191.1,891.9,153.6z"/>
				
					<linearGradient id="SVGID_00000161625654761494615340000013159032819607852215_" gradientUnits="userSpaceOnUse" x1="2627.1223" y1="116.3656" x2="2522.3677" y2="267.0565" gradientTransform="matrix(-1 0 0 1 3408.2246 0)">
					<stop  offset="8.533809e-02" style="stop-color:#E2E2E2"/>
					<stop  offset="0.5153" style="stop-color:#C3C3C3"/>
					<stop  offset="0.8535" style="stop-color:#B9B8B9"/>
				</linearGradient>
				<path style="fill:url(#SVGID_00000161625654761494615340000013159032819607852215_);" d="M785.4,204.5
					c-11.2-16.9-42.4-46.1-28.8-68.4c1.9-3.2,4.2-6.3,6.7-9c13.7-9.6,27.6-18.8,41.9-27.2c1.1-0.6,2.2-1,3.4-1.3
					c20.2-5.7,30.1,7.7,37.4,24.3c11.4,25.5,23.4,50.8,35.2,75.9c12.1,25.9,24.4,51.8,37.1,77.4c-19.6,8.4-41.3,19.3-65.2,33.3
					C831.1,274,808.3,239,785.4,204.5z"/>
				
					<linearGradient id="SVGID_00000041297474021061617900000015695756088057244573_" gradientUnits="userSpaceOnUse" x1="2737.0767" y1="192.7229" x2="2632.2961" y2="343.4511" gradientTransform="matrix(-1 0 0 1 3408.2246 0)">
					<stop  offset="8.533809e-02" style="stop-color:#E2E2E2"/>
					<stop  offset="0.5153" style="stop-color:#C3C3C3"/>
					<stop  offset="0.8535" style="stop-color:#B9B8B9"/>
				</linearGradient>
				<path style="fill:url(#SVGID_00000041297474021061617900000015695756088057244573_);" d="M755.6,376.3
					c-15.7-18.3-31.6-36.5-47.5-54.7c-16.4-18.8-33.5-36.8-50.2-55.3c-9.8-10.9-19.9-25.8-10.8-40.3c1.6-2.6,3.3-5.1,5.2-7.6
					c14.4-13.5,29.2-26.6,44.4-39.6c0.4,0,0.8,0,1.1-0.1c14.4-3.1,27,4.4,36.4,14.5c14.8,16.1,27.1,35.5,39.5,53.5
					c14.8,21.4,29.1,42.9,43.1,64.7c3.1,4.6,6.3,9.4,9.2,14.4c-17.2,11.1-35.4,23.6-54.8,38.1C765.9,368.1,760.7,372.3,755.6,376.3z
					"/>
				
					<linearGradient id="SVGID_00000113339637718024672780000006710881288854131874_" gradientUnits="userSpaceOnUse" x1="2847.4822" y1="308.3389" x2="2679.9385" y2="418.8724" gradientTransform="matrix(-1 0 0 1 3408.2246 0)">
					<stop  offset="8.533809e-02" style="stop-color:#E2E2E2"/>
					<stop  offset="0.5153" style="stop-color:#C3C3C3"/>
					<stop  offset="0.8535" style="stop-color:#B9B8B9"/>
				</linearGradient>
				<path style="fill:url(#SVGID_00000113339637718024672780000006710881288854131874_);" d="M672.4,459.9
					c-23-18.8-47.1-36.1-69.4-55.7c-17-14.8-42-32.9-52.2-53.5c-3.6-7.4-3.4-14.8-1-22.4c15.4-19.1,31.3-37.4,48-55.3
					c0.2-0.1,0.4-0.3,0.6-0.4c17.6-9.9,30.8,1.5,42.1,14.4c19.5,22.3,39.9,43.6,59.3,65.7c11.8,13.5,23.6,27.3,35,41.5
					C711.6,414.8,690.8,437.1,672.4,459.9z"/>
				
					<linearGradient id="SVGID_00000121973771677554885560000009901958371326082946_" gradientUnits="userSpaceOnUse" x1="2918.7637" y1="416.471" x2="2751.301" y2="526.951" gradientTransform="matrix(-1 0 0 1 3408.2246 0)">
					<stop  offset="8.533809e-02" style="stop-color:#E2E2E2"/>
					<stop  offset="0.5153" style="stop-color:#C3C3C3"/>
					<stop  offset="0.8535" style="stop-color:#B9B8B9"/>
				</linearGradient>
				<path style="fill:url(#SVGID_00000121973771677554885560000009901958371326082946_);" d="M542.2,496.7
					c-14-11.5-29.7-22.5-42-36.1c-6.5-7-14.5-16.1-15.9-26c-1.4-9.6,2.4-17.2,6.8-24.6c5.2-6.4,10.9-12.8,18-14.3
					c11.9-2.6,23.3,0.7,33.7,6.5c17.7,9.6,34.2,22.3,49.9,34.9c20.1,16.6,39.2,34.5,56.4,53.8c-13.2,19.1-25,38.1-35.6,57.3
					C588.5,532.9,564.8,515.3,542.2,496.7z"/>
				
					<linearGradient id="SVGID_00000059269183997286381490000007259461682953105846_" gradientUnits="userSpaceOnUse" x1="3045.7734" y1="608.9818" x2="2878.3367" y2="719.4447" gradientTransform="matrix(-1 0 0 1 3408.2246 0)">
					<stop  offset="8.533809e-02" style="stop-color:#E2E2E2"/>
					<stop  offset="0.5153" style="stop-color:#C3C3C3"/>
					<stop  offset="0.8535" style="stop-color:#B9B8B9"/>
				</linearGradient>
				<path style="fill:url(#SVGID_00000059269183997286381490000007259461682953105846_);" d="M523,746c-21.5-4.4-42.4-9.9-63-17.8
					c-16.4-6-32.6-12.6-47.9-21.1c-11.1-5.8-32.3-13.5-34.9-27.6c-3.1-17.6,3.9-33.6,7.7-50.2c1.7-7.4,3.7-21.2,11.6-24.9
					c1-0.4,1.8-0.9,2.8-1.2c22.5-2.6,47,10.3,66.2,19.2c22,10,43.9,20.1,65.2,31.3c10.2,5.4,20,11.8,30.1,17.8
					c-9,28.1-15.4,54.2-19.8,77.2C534.2,747.2,526.8,746.6,523,746z"/>
				
					<linearGradient id="SVGID_00000177461625844246665600000001781701824922953646_" gradientUnits="userSpaceOnUse" x1="3067.1123" y1="785.3834" x2="2864.1157" y2="831.2867" gradientTransform="matrix(-1 0 0 1 3408.2246 0)">
					<stop  offset="8.533809e-02" style="stop-color:#E2E2E2"/>
					<stop  offset="0.5153" style="stop-color:#C3C3C3"/>
					<stop  offset="0.8535" style="stop-color:#B9B8B9"/>
				</linearGradient>
				<path style="fill:url(#SVGID_00000177461625844246665600000001781701824922953646_);" d="M553.5,858.3
					c-19.8,1.7-38.9,5.5-59.4,3.3c-23.2-2.5-46.4-4.2-69.7-5.7c-20.4-1.3-40.9-2-61.1-4.8c-8.7-1-19.5-2.3-26.8-7.8
					c-5.6-4.2-8.7-9-10.2-14.3c4.2-18.5,9.2-40.4,14.8-67.1c1.8-8.7,3.8-17.5,6-26c1.7-0.7,3.5-1.5,5.2-1.7
					c23.4-5.5,48.4,2.9,70.6,9.7c38,11.8,74.5,27.9,112.4,39.9c-3.6,28.4-3.5,48-1.4,54.7C535.6,843.5,542.7,850.1,553.5,858.3z"/>
				
					<linearGradient id="SVGID_00000156575085460019847410000005134714899263775895_" gradientUnits="userSpaceOnUse" x1="3043.3005" y1="940.8831" x2="2824.9905" y2="883.7579" gradientTransform="matrix(-1 0 0 1 3408.2246 0)">
					<stop  offset="8.533809e-02" style="stop-color:#E2E2E2"/>
					<stop  offset="0.5153" style="stop-color:#C3C3C3"/>
					<stop  offset="0.8535" style="stop-color:#B9B8B9"/>
				</linearGradient>
				<path style="fill:url(#SVGID_00000156575085460019847410000005134714899263775895_);" d="M393.9,884.5c32.6-1.2,65.1-1,97.6-3.2
					c24.9-1.9,51.9-1.5,74.9-12.4c0.4-0.1,0.9-0.6,1.1-0.9c15,10.2,34.1,22,55.6,35.3c-41.2,19.5-83.8,35.3-125.5,53.5
					c-26.9,11.8-51,20.6-80.8,13.8c-4.6-1-9.1-2.3-13.6-3.6c-19.5-9.7-38.8-19.6-58-30c-4.1-2.3-7.7-4.4-10.9-6.7
					c-0.5-3.8-0.9-7.8-0.7-11.9C335.1,885.1,367.4,885.6,393.9,884.5z"/>
				
					<linearGradient id="SVGID_00000014624050093558262850000014559691808371522998_" gradientUnits="userSpaceOnUse" x1="2863.7083" y1="1042.5984" x2="2724.9636" y2="949.7611" gradientTransform="matrix(-1 0 0 1 3408.2246 0)">
					<stop  offset="8.533809e-02" style="stop-color:#E2E2E2"/>
					<stop  offset="0.5153" style="stop-color:#C3C3C3"/>
					<stop  offset="0.8535" style="stop-color:#B9B8B9"/>
				</linearGradient>
				<path style="fill:url(#SVGID_00000014624050093558262850000014559691808371522998_);" d="M511.7,994.3
					c11.4-15.9,33.5-27.1,51-34.8c30.9-14.1,64-24.7,97.1-32.9c23.1,14.8,47.6,31,71.8,48.6c-1.9,1.9-3.9,3.6-6.1,5.4
					c-16.2,12.8-31.7,25.3-46.5,39.8c-17.2,17-37.2,37.1-61.5,43.3c-13.7,3.6-28.1,1.8-41.7-2.6c-13.5-8-27-16-40-23.9
					c-8-4.6-16.1-9.3-24.1-13.8C507.1,1013.5,505.4,1003,511.7,994.3z"/>
				
					<linearGradient id="SVGID_00000088110781332721361740000011316510806678460808_" gradientUnits="userSpaceOnUse" x1="2722.9131" y1="1138.496" x2="2608.5596" y2="1017.2119" gradientTransform="matrix(-1 0 0 1 3408.2246 0)">
					<stop  offset="8.533809e-02" style="stop-color:#E2E2E2"/>
					<stop  offset="0.5153" style="stop-color:#C3C3C3"/>
					<stop  offset="0.8535" style="stop-color:#B9B8B9"/>
				</linearGradient>
				<path style="fill:url(#SVGID_00000088110781332721361740000011316510806678460808_);" d="M819.4,1094.9
					c-12.4,12.4-25.2,24.7-38,36.5c-13.9,12.7-29.4,27.9-47.7,34c-5.8,1.9-11.3,2.8-16.7,3.1c-2-2.9-4.1-6.1-6.8-8.7
					c-21.6-22.8-46.8-42.5-73.4-60.4c0.8-3.4,2-6.5,3.8-9.9c7.8-14.4,19.3-25.9,32.1-35.9c27.1-21.2,56.5-39.4,84.6-59.2
					c29.5,22.7,57.5,47.3,81.4,73.6c1.4,1.4,2.7,3.1,4.1,4.5C835.2,1080.5,826.6,1087.7,819.4,1094.9z"/>
				
					<linearGradient id="SVGID_00000077303258161626014670000008746571414673514403_" gradientUnits="userSpaceOnUse" x1="2693.9963" y1="1234.1548" x2="2470.614" y2="1181.1123" gradientTransform="matrix(-1 0 0 1 3408.2246 0)">
					<stop  offset="8.533809e-02" style="stop-color:#E2E2E2"/>
					<stop  offset="0.5153" style="stop-color:#C3C3C3"/>
					<stop  offset="0.8535" style="stop-color:#B9B8B9"/>
				</linearGradient>
				<path style="fill:url(#SVGID_00000077303258161626014670000008746571414673514403_);" d="M937.6,1256.1
					c-12.2,0.9-24.2,2.3-36.4,1.7c-25.2-0.7-50.4-1.9-75.6-2c-23.6-0.1-47.2-0.3-70.8-0.4c-14.6-0.1-29.5-1.9-38.7-14.1
					c4.4-9.9,7.7-20.1,9.1-30c7.1-8.9,16.2-16,27.3-22c18-9.7,35.8-20.7,53.2-31.6c20-12.5,40.1-24.6,60.9-35.9
					c3.3-1.7,7.5-3.2,11.5-5.1c39.5,54.4,61.6,105.2,73.5,139.5C947,1255.8,942.3,1255.6,937.6,1256.1z"/>
				
					<linearGradient id="SVGID_00000062875185550736517370000016511683479099649415_" gradientUnits="userSpaceOnUse" x1="2710.4844" y1="1249.9498" x2="2512.5403" y2="1363.2075" gradientTransform="matrix(-1 0 0 1 3408.2246 0)">
					<stop  offset="8.533809e-02" style="stop-color:#E2E2E2"/>
					<stop  offset="0.5153" style="stop-color:#C3C3C3"/>
					<stop  offset="0.8535" style="stop-color:#B9B8B9"/>
				</linearGradient>
				<path style="fill:url(#SVGID_00000062875185550736517370000016511683479099649415_);" d="M830,1425.2
					c-23.9-9.6-46.9-22.8-69.1-35.6c-19-11.1-39-21.4-57.4-33.5c-18.4-11.9-33-25.6-31.3-45.8c6.1-7.8,12.4-16.3,18.5-25
					c12.3-5.5,25.3-7.3,39.3-6.1c29.2,2.3,58.3,3.9,87.6,4.9c49,1.6,97.4,10.2,146.2,14.3c0.2,1.3,0.4,2.2,0.4,2.2
					s-63.3,80.7-105.9,133.7C848.8,1431.3,839.1,1428.9,830,1425.2z"/>
				
					<linearGradient id="SVGID_00000018195434349635959930000006219416641373983935_" gradientUnits="userSpaceOnUse" x1="2788.853" y1="1386.9575" x2="2590.9431" y2="1500.1957" gradientTransform="matrix(-1 0 0 1 3408.2246 0)">
					<stop  offset="8.533809e-02" style="stop-color:#E2E2E2"/>
					<stop  offset="0.5153" style="stop-color:#C3C3C3"/>
					<stop  offset="0.8535" style="stop-color:#B9B8B9"/>
				</linearGradient>
				<path style="fill:url(#SVGID_00000018195434349635959930000006219416641373983935_);" d="M679.7,1358c20,10.5,40.1,21,59.4,32.4
					c34.7,20.8,68.3,43.6,104,62.5c-13.7,16.7-22.9,27.8-22.9,26.6c0-4.6-71.9,67.2-71.9,42.8c0-25.9-48.4-61.7-64.5-78.2
					c-14.2-14.4-29.7-28.5-42.1-44.7c-13.4-17.3-12.6-29.7-3.6-44.7C651.2,1344.8,666.4,1351.1,679.7,1358z"/>
				
					<linearGradient id="SVGID_00000034787352519043976400000017313289946610770849_" gradientUnits="userSpaceOnUse" x1="2980.5388" y1="510.1825" x2="2813.199" y2="620.5815" gradientTransform="matrix(-1 0 0 1 3408.2246 0)">
					<stop  offset="8.533809e-02" style="stop-color:#E2E2E2"/>
					<stop  offset="0.5153" style="stop-color:#C3C3C3"/>
					<stop  offset="0.8535" style="stop-color:#B9B8B9"/>
				</linearGradient>
				<path style="fill:url(#SVGID_00000034787352519043976400000017313289946610770849_);" d="M539.1,628.9
					c-20.2-10.8-40.3-22.1-61.4-31c-17.5-7.4-48.6-16.6-58-35c-3.4-6.7-3.3-14.8-1.1-23.4c1.6-3.5,3.2-7,4.7-10.6
					c4.1-8.4,8.3-16.7,12.6-24.9c3.4-5.1,6.8-9.9,10-14c2.8-2.2,5.7-3.9,8.6-5.5c14.1-7.3,28.7-0.9,41.1,7.1
					c22.8,14.5,44.9,30.8,66.1,47.7c13.4,10.6,26.4,21.7,39.4,32.7c-12.3,24.4-22.6,49-31.1,72.3
					C559.7,639.4,549.2,634.3,539.1,628.9z"/>
				
					<linearGradient id="SVGID_00000011729368156723073840000000293242187594253457_" gradientUnits="userSpaceOnUse" x1="2389.7976" y1="30.9543" x2="2368.2734" y2="206.6389" gradientTransform="matrix(-1 0 0 1 3408.2246 0)">
					<stop  offset="8.533809e-02" style="stop-color:#E2E2E2"/>
					<stop  offset="0.176" style="stop-color:#DEDDDE"/>
					<stop  offset="0.9869" style="stop-color:#B9B8B9"/>
				</linearGradient>
				<path style="fill:url(#SVGID_00000011729368156723073840000000293242187594253457_);" d="M999.9,28.5c9.6-1.3,19.1-2.3,28.8-3.1
					c5.5,0.1,11,0.7,16.2,1.2c2.8,1.3,5.3,2.6,7.1,4.6c10,11.1,8.6,32.7,9.1,47c1,29.4,1,58.9,0.7,88.3c-0.1,22.8-1.2,45.5-3.7,68.2
					c-10.8,4.2-24.2,7-40.9,10.5c-1.4-5.7-2.8-11.2-4.3-17c-9.2-37-15.5-74.2-21.2-111.9c-2-13.2-12.9-56.3-4.6-78.5
					C990.6,33.5,995.1,30.4,999.9,28.5z"/>
			</g>
			
				<linearGradient id="SVGID_00000080915928510967272790000003091299530350696097_" gradientUnits="userSpaceOnUse" x1="2046.4979" y1="425.8282" x2="2569.3359" y2="1423.1379" gradientTransform="matrix(-1 0 0 1 3408.2246 0)">
				<stop  offset="8.533809e-02" style="stop-color:#E2E2E2"/>
				<stop  offset="0.5153" style="stop-color:#C3C3C3"/>
				<stop  offset="0.8535" style="stop-color:#B9B8B9"/>
			</linearGradient>
			<path style="fill:url(#SVGID_00000080915928510967272790000003091299530350696097_);" d="M1495.8,1523.1
				c0,0-30.1-84.1,80.1-192.3c0,0-7-103.1-163.3-257.4c-156.2-154.2-278.5-284.5-278.5-284.5s162.3-36.9,269.4,29.1
				c0,0,23,154.2,30,160.3c7.1,6.1,219.4,52.1,241.4,54c22,2.2,23.1-27.9,14-52.9c0,0,101.2,41,73.1-17.9c0,0,43.1-51.3,59.1-115.3
				c16.1-64,11-89.2-56.1-99.2c0,0-137.3-236.4-329.6-368.6c0,0,81.1-28.9,70.1-43.1c-11.1-14.1-128.6-101.2-241.8-136.4
				c0,0,19.9-16.1,1.5-37.5C1247.2,139.9,1156.1,48.1,1071.2,0c0,0-49.7,152.1-48.9,203.3c0,0-457.6,75.1-526.4,661.2
				c0,0,356.5,140.8,422.2,408.4c0,0-131.1,129-171,235.2v22L1495.8,1523.1z"/>
			<defs>
				
					<filter id="Adobe_OpacityMaskFilter_00000036967230835421408540000005237400062873604999_" filterUnits="userSpaceOnUse" x="916.2" y="680.8" width="552.6" height="758.9">
					<feFlood  style="flood-color:white;flood-opacity:1" result="back"/>
					<feBlend  in="SourceGraphic" in2="back" mode="normal"/>
				</filter>
			</defs>
			
				<mask maskUnits="userSpaceOnUse" x="916.2" y="680.8" width="552.6" height="758.9" id="SVGID_00000160188383690548515090000010728104323737127358_">
				<g style="filter:url(#Adobe_OpacityMaskFilter_00000036967230835421408540000005237400062873604999_);">
					<defs>
						
							<filter id="Adobe_OpacityMaskFilter_00000116201693966040450970000007560500263158223758_" filterUnits="userSpaceOnUse" x="916.2" y="680.8" width="552.6" height="758.9">
							<feFlood  style="flood-color:white;flood-opacity:1" result="back"/>
							<feBlend  in="SourceGraphic" in2="back" mode="normal"/>
						</filter>
					</defs>
					
						<mask maskUnits="userSpaceOnUse" x="916.2" y="680.8" width="552.6" height="758.9" id="SVGID_00000160188383690548515090000010728104323737127358_">
						<g style="filter:url(#Adobe_OpacityMaskFilter_00000116201693966040450970000007560500263158223758_);">
						</g>
					</mask>
					
						<linearGradient id="SVGID_00000018956356706701167250000003183060966556777090_" gradientUnits="userSpaceOnUse" x1="2215.7046" y1="677.1337" x2="2215.7046" y2="1455.2457" gradientTransform="matrix(-1 0 0 1 3408.2246 0)">
						<stop  offset="0.1042" style="stop-color:#FFFFFF"/>
						<stop  offset="0.4377" style="stop-color:#9A9A9A"/>
						<stop  offset="0.9254" style="stop-color:#000000"/>
					</linearGradient>
					
						<path style="mask:url(#SVGID_00000160188383690548515090000010728104323737127358_);fill:url(#SVGID_00000018956356706701167250000003183060966556777090_);" d="
						M1235.5,1088.2c-33.8-35-68.8-68.4-99.1-100.8c-86-92.4-170.5-189.2-220.2-306.6c27.2,64,120.1,131.9,170.8,180.2
						c33.8,32.3,69.6,62.5,105.5,92.5c34.1,28.4,67.4,57.6,100.9,86.7c30.8,26.8,62.3,53.4,91,82.5c28.4,29.1,56.4,61.2,73,98.7
						c19.2,43.4,13.7,93.2-12,132.9c-19.7,30.2-47.6,54.3-66.1,85.4c6.4-55.4,1.6-114.9-16.1-166.7
						C1339.7,1204.5,1289.1,1144.1,1235.5,1088.2z"/>
				</g>
			</mask>
			
				<linearGradient id="SVGID_00000005225682505664041760000015867144384644218248_" gradientUnits="userSpaceOnUse" x1="2215.7046" y1="677.1337" x2="2215.7046" y2="1455.2457" gradientTransform="matrix(-1 0 0 1 3408.2246 0)">
				<stop  offset="0.1042" style="stop-color:#FFFFFF"/>
				<stop  offset="0.9254" style="stop-color:#FFFFFF"/>
			</linearGradient>
			<path style="opacity:0.5;fill:url(#SVGID_00000005225682505664041760000015867144384644218248_);" d="M1235.5,1088.2
				c-33.8-35-68.8-68.4-99.1-100.8c-86-92.4-170.5-189.2-220.2-306.6c27.2,64,120.1,131.9,170.8,180.2
				c33.8,32.3,69.6,62.5,105.5,92.5c34.1,28.4,67.4,57.6,100.9,86.7c30.8,26.8,62.3,53.4,91,82.5c28.4,29.1,56.4,61.2,73,98.7
				c19.2,43.4,13.7,93.2-12,132.9c-19.7,30.2-47.6,54.3-66.1,85.4c6.4-55.4,1.6-114.9-16.1-166.7
				C1339.7,1204.5,1289.1,1144.1,1235.5,1088.2z"/>
			<path class="st5" d="M1321.1,1524.7c29.3-7.7,59.6-17.8,83.7-34.5c25.2-17.3,32.4-51.5,48.6-75.8c11.6-17.4,25.1-33.3,40.5-47.3
				c11.8-10.8,25.1-20.2,35.1-32.9c17.7-22.3,3.3-55.9-8.4-77.7c-18.6-34.3-44.3-63.7-66.7-95.6c-22.8-32.4-45-64.4-72.4-93.4
				c-11.3-12.1-22.9-24.6-35.3-35.9c-23.5-25.6-48.6-49.6-74.5-72.7c-63.4-56.6-130.8-108.5-195.5-163.3
				c-32.2-27.5-64.5-54.8-95-84.4c-16-15.4-31.6-31.1-46.4-47.7c-13.3-15-35.2-33.6-39.3-53.8c-4.3-21.5,14.2-35.9,27.7-49.4
				c14.8-14.7,29.5-29.2,44.9-42.9c17.1-15.3,34.5-31.4,53.5-43.9c8.4-5.5,17.1-10.6,25.8-15.9c-0.5,0.6-1.1,1.2-1.6,1.9
				c-23,28.5-47,67.8-53.5,104.3c-7.1,39.6,15.1,69.4,47.9,89.7c34,21.1,69,27.3,108.9,24.9c45.7-2.8,93.2-12.9,139-9.4
				c13.2,1.2,54.4,6.4,48.3-19.1c-3.4-15-13.6-27.6-22.8-39.4c-12.3-16.1-24.1-32.7-36.4-48.7c-13.2-17.5-27.7-33.7-43-49.7
				c37.2,20.2,74.5,40.3,109.9,63.6c23.6,15.4,50.6,31.4,68.8,53.2c16.7,20.1,26.8,43.9,33.9,68.7c15,52.9,23.3,107.6,35.1,161.3
				c4.2,19.5,6.3,47.4,20.4,63.1c11.3,12.4,26,16,42.4,15.3c2.4-0.1,3.6-2,3.3-4.4c-2.2-16.6-17.7-25.6-23.9-40.3
				c-9.7-22.3,20.6-36.4,37.1-44.1c24.9-11.6,36.6,14.3,54.7,26.5c16.3,10.6,34.5,21.2,54.4,22.4c1.4,0,2.9-1.2,3.2-2.5
				c2.2-12.4,4.7-25.3,15-33.6c10.9-9,23.3-13.8,35.9-20.1c18.9-8.7,37.2-19.6,38.2-42.8c2.4-50.8-33.8-101.5-65.3-138
				c-45.4-52.4-93.9-102.4-146.4-147.6c-24.5-21.1-49.1-43.5-76.6-60.6c-23.4-14.6-48.1-27.5-69.7-44.4c-5-5.1-9.8-10.6-13.2-16.1
				c12.5-6.6,27.4-9.6,41.3-8.1c4.2,0.4,8.3,0.9,12.4,1.3c187.5,133.2,320.5,362,320.5,362c67.1,10,72.1,35.2,56.1,99.2
				c-16,64-59.1,115.3-59.1,115.3c28.1,58.9-73.1,17.9-73.1,17.9c9,25,8,55.1-14,52.9c-22-1.9-234.4-47.9-241.4-54
				c-7-6.1-30-160.3-30-160.3c-107.1-66-269.4-29.1-269.4-29.1s122.2,130.3,278.5,284.5c156.3,154.3,163.3,257.4,163.3,257.4
				c-110.2,108.2-80.1,192.3-80.1,192.3L1321.1,1524.7z"/>
			<path class="st5" d="M918.1,1273c-65.7-267.6-422.2-408.4-422.2-408.4c68.8-586.2,526.4-661.2,526.4-661.2
				C1021.4,152.1,1071.2,0,1071.2,0c84.9,48.1,176,139.9,194.3,161.3c18.4,21.4-1.5,37.5-1.5,37.5
				c113.2,35.2,230.8,122.3,241.8,136.4c6.3,8-17.8,21.1-39.6,30.7c19.9-33.2-65.1-82.6-90.4-92.2c-53.6-20.7-111.8-18.5-161.2,5.7
				c0.6-1.2,1.2-2.5,1.7-3.5c9.8-22.4,16.7-47.7,19.2-72c4.3-40.7-16.7-77.2-43.7-105.9c-30.5-32.6-63.6-65-104.7-84.2
				c-1.5-0.7-3.8-0.6-4.6,1.2c-12.6,29.2-12.1,63.6-11.2,94.8c1,30.5,3.4,59.9,14.6,88.7c13.8,34.9,35.5,69.8,64.1,96
				c1.7,3.5,3.3,6.7,4.4,10.5c-2.4-0.3-4.8-0.7-7.2-1.3c-4.9-1.9-10-3.6-15.1-5.1c-6-2.2-12-4.4-18.1-5c-4.8-0.7-9.7-1-14.5-1.2
				c-10.3-0.9-20.9-0.7-31.7,0.4c-30.5,3.8-61.2,12.6-89.4,24.9c-58.9,25-109.4,65.9-147.8,117.1C782,500,745.3,573.8,721,651.2
				c-10.2,32.3-21.1,64-31.9,96c-5.6,16.6-14.5,38.2-10.6,56.9c-1,0.9-1.5,2.3-0.9,3.9c6,14,22,16.9,33.9,23.7
				c21.4,12.4,42.7,25.5,63.2,39.6c41.2,28.1,82.3,57.7,119.5,90.9c35.8,31.9,68.3,67.2,97.7,104.9c29.2,37.5,58.7,76.2,84.2,116.4
				c4.6,7,40.4,64.1,31.9,68.6c-14.8,8-24.9,20.8-35,33.9c-27.3,35.5-54.5,66.9-71.6,109.1c-14.3,35-25.9,72.7-28.9,110.7
				c-0.5,6.8-1.1,14.4-1,22.3l-224.4,2.2v-22C787,1402,918.1,1273,918.1,1273z"/>
			<g>
				<path class="st10" d="M1415.5,500.8c0,0-5.4-36.5-9-46.4c-8.1-22.7-16.8-31.1-16.8-31.1l6.9-1c0,0-34.5-23-72.7-27.3
					c-43.3-4.8-74.2,7.1-74.2,7.1l4.7,1.2c0,0-9,2.6-20.4,0.1c0,0,13.2,13.2,30,23.4c15.6,9.6,23.3,26.2,35.3,39.3
					c10.9,11.9,25.8,12.6,41.1,12.1c11.4-0.6,22.8-2.2,34.2-3.1c7.9-0.3,16.9-0.7,24.4,2.6C1407.2,481.1,1415.5,500.8,1415.5,500.8z
					"/>
				<path class="st10" d="M1765.8,829.9c0,0-22,19.2-28.7,50.8c-6.9,31.3-17.1,43.6-21.9,32.9c-4.8-11.1-27.4-43.2-17.1-50
					C1708.3,856.5,1765.8,829.9,1765.8,829.9z"/>
				<path class="st10" d="M1689.1,979.2c0,0-1.4-2.8-4-7.1c-2.8-4.4-6.6-10.8-12.2-17.9c-5.5-7-12.2-15.1-20.7-22.5
					c-4.2-3.8-8.7-7.6-13.7-11.1c-4.9-3.2-10.2-6.3-15.8-8.9c-5.6-2.5-11.2-4.4-16.7-6.4c-5.4-2-10.8-4.1-15.8-6.1
					c-10.1-4.4-19.6-8.4-26.6-13.5c-3.7-2.3-6.6-4.9-9-7.4c-2.2-2.6-3.8-5.5-4.4-7.9c-0.6-2.5-0.7-4.5-0.4-5.8
					c0.1-1.3,0.2-2.2,0.2-2.2s-0.1,0.9-0.6,2.2c-0.4,1.3-0.7,3.3-0.3,6.1c0.2,2.6,1.6,5.7,3.6,8.9c2.2,3.1,5,6.3,8.7,8.9
					c3.6,2.9,7.7,5.5,12.2,8.3c4.4,2.6,9.2,5.1,14.4,7.4c5,2.3,10.4,4.5,15.9,6.7c5.5,2,11.1,4.2,16.2,6.5c5.2,2.3,10.2,5,15,8.1
					c4.7,3.2,9.2,6.7,13.5,10c8.4,7,15.7,14.1,21.6,20.8c5.8,6.5,10.6,12.2,13.7,16.3C1687.3,976.8,1689.1,979.2,1689.1,979.2z"/>
				<path class="st10" d="M1564.6,848c0,0-19.3,2.3-27.3,8.6c-4.4,3.5-8.4,16.6-8.4,16.6s6.9-3.9,10.2-4.8c0,0-3,14.7,7.2,24.4
					c0,0-0.8-19.2,12.8-24.4c13.4-5.5,15.5-20.9,15.5-20.9s-5.6,5.5-12.7,5.5L1564.6,848z"/>
				<path class="st10" d="M1108.6,114.3c0,0,53.3,113.6,63.5,147.2c10.2,33.9,7.7-38.7,28.1-54.8c20.4-16.6-32.3-27.3-67.8-72.6
					C1098.4,90.7,1105,107.6,1108.6,114.3z"/>
				<g>
					<path class="st10" d="M1264,198.8c0,0-0.9,1.5-2.5,3.9c-1.5,2.6-3.7,6.3-6.4,10.6c-5,8.6-11.9,20.4-18.7,31.9
						c-3.4,6-7.1,11.3-10.2,16.9c-3.4,5.4-6.7,10.2-9.4,14.4c-1.4,2.2-2.8,3.9-4.1,5.5c-1.2,1.7-2.3,3.1-3.2,4.4
						c-1.8,2.3-2.8,3.8-2.8,3.8s1.4-1,3.6-3.1c1.1-0.9,2.5-2.2,4-3.5c1.5-1.5,3.5-2.9,5.1-4.8c1.7-2,3.5-4.2,5.5-6.4
						c1.8-2.3,3.9-4.7,5.7-7.3c3.6-5.4,7.5-10.9,10.9-16.7c3.3-6,6.8-11.9,9.4-17.6c2.8-5.7,5.3-11.1,7.2-16c2-4.5,3.3-8.7,4.2-11.5
						C1263.5,200.6,1264,198.8,1264,198.8z"/>
					<path class="st10" d="M1143.6,300.4c0,0-8.9-4.7-22.3-11.8c-6.7-3.6-14.4-8-22.5-12.5c-8.2-4.8-16.8-9.9-25.2-15.3
						c-4.3-2.6-8.4-5.5-12.4-8.4c-3.9-2.9-7.9-5.7-11.4-8.7c-3.6-2.9-7-5.8-10.1-8.9c-3-2.9-5.7-6-7.9-8.7c-2.2-3.1-4.1-5.8-5.5-8.6
						c-1.3-2.6-2.3-5.1-2.8-7.1c-0.7-2.2-0.8-3.9-0.9-4.9c-0.1-1.3-0.1-2-0.1-2s-0.1,0.7-0.1,2c-0.1,1-0.4,2.8,0.1,5.1
						c0.1,2.2,0.9,4.9,1.9,8c1.1,2.9,2.6,6.3,4.7,9.4c2.1,3.2,4.6,6.7,7.6,9.9c2.8,3.4,6.1,6.8,9.8,10c7.1,6.4,15.4,12.4,24,18
						c8.6,5.5,17.5,10.5,26,14.8c8.4,4.4,16.7,8,23.6,10.9c7,2.9,13,5.1,17.2,6.5C1141.2,299.8,1143.6,300.4,1143.6,300.4z"/>
				</g>
			</g>
			
				<linearGradient id="SVGID_00000083778761417243753920000004127574565815716750_" gradientUnits="userSpaceOnUse" x1="1696.9027" y1="1541.7423" x2="2550.7087" y2="1541.7423" gradientTransform="matrix(-1 0 0 1 3408.2246 0)">
				<stop  offset="0" style="stop-color:#E2E2E2"/>
				<stop  offset="5.607370e-02" style="stop-color:#DCDCDD"/>
				<stop  offset="0.3599" style="stop-color:#C3C3C4"/>
				<stop  offset="0.6348" style="stop-color:#B3B3B4"/>
				<stop  offset="0.8535" style="stop-color:#AEAEAF"/>
			</linearGradient>
			<path style="fill:url(#SVGID_00000083778761417243753920000004127574565815716750_);" d="M747.1,1575.3h794.5
				c18.5,0,33.7-15.1,33.7-33.6c0-18.6-15.1-33.6-33.7-33.6H747.1c-18.7,0-33.7,15-33.7,33.6
				C713.4,1560.2,728.4,1575.3,747.1,1575.3z"/>
			<path class="st5" d="M747.1,1508.1h452.5c-21.4,16.1-19.7,54.4,4.7,67.2H747.1c-18.7,0-33.7-15.1-33.7-33.6
				C713.4,1523.1,728.4,1508.1,747.1,1508.1z"/>
		</g>
		<defs>
			
				<filter id="Adobe_OpacityMaskFilter_00000032618090572661813730000014124905816045921447_" filterUnits="userSpaceOnUse" x="1060.6" y="320.4" width="234.9" height="324.5">
				<feFlood  style="flood-color:white;flood-opacity:1" result="back"/>
				<feBlend  in="SourceGraphic" in2="back" mode="normal"/>
			</filter>
		</defs>
		
			<mask maskUnits="userSpaceOnUse" x="1060.6" y="320.4" width="234.9" height="324.5" id="SVGID_00000123417142442983962230000010108293386513820863_">
			<g style="filter:url(#Adobe_OpacityMaskFilter_00000032618090572661813730000014124905816045921447_);">
				<defs>
					
						<filter id="Adobe_OpacityMaskFilter_00000072972546370045925100000008542423943777962675_" filterUnits="userSpaceOnUse" x="1060.6" y="320.4" width="234.9" height="324.5">
						<feFlood  style="flood-color:white;flood-opacity:1" result="back"/>
						<feBlend  in="SourceGraphic" in2="back" mode="normal"/>
					</filter>
				</defs>
				
					<mask maskUnits="userSpaceOnUse" x="1060.6" y="320.4" width="234.9" height="324.5" id="SVGID_00000123417142442983962230000010108293386513820863_">
					<g style="filter:url(#Adobe_OpacityMaskFilter_00000072972546370045925100000008542423943777962675_);">
					</g>
				</mask>
				
					<linearGradient id="SVGID_00000113334740756793629940000013132495597641431971_" gradientUnits="userSpaceOnUse" x1="2230.2007" y1="304.1736" x2="2230.2007" y2="704.564" gradientTransform="matrix(-1 0 0 1 3408.2246 0)">
					<stop  offset="0.1042" style="stop-color:#FFFFFF"/>
					<stop  offset="0.4377" style="stop-color:#9A9A9A"/>
					<stop  offset="0.9254" style="stop-color:#000000"/>
				</linearGradient>
				
					<path style="mask:url(#SVGID_00000123417142442983962230000010108293386513820863_);fill:url(#SVGID_00000113334740756793629940000013132495597641431971_);" d="
					M1226.6,483.9c-24.1,17.2-1.5,50.5,10.7,67.8c11.3,15.8,23.8,30.5,35.9,46c6.4,8,22.8,23.8,22.3,35.3c-0.3,5.8-32-0.4-35.6-0.9
					c-13.6-1.7-26.8-0.4-40.3,1.7c-38.9,6.4-82.6,20.7-120.3,1c-81.2-42-15-146.9,19.4-197.7c24.4-35.8,49.4-75.2,63.4-116.8
					c0.6,4.2,1.8,8.3,3.4,11.9c1.7,22.3,8,44.5,16.1,63.7c10.5,24.7,25.5,47.3,46.5,64.6c7,5.8,14.7,10.6,22.9,14.8
					C1255.6,474.6,1237.9,475.9,1226.6,483.9z"/>
			</g>
		</mask>
		
			<linearGradient id="SVGID_00000075161437294911969060000000490336129686772404_" gradientUnits="userSpaceOnUse" x1="2230.2007" y1="304.1736" x2="2230.2007" y2="704.564" gradientTransform="matrix(-1 0 0 1 3408.2246 0)">
			<stop  offset="0.1042" style="stop-color:#FFFFFF"/>
			<stop  offset="0.9254" style="stop-color:#FFFFFF"/>
		</linearGradient>
		<path style="opacity:0.5;fill:url(#SVGID_00000075161437294911969060000000490336129686772404_);" d="M1226.6,483.9
			c-24.1,17.2-1.5,50.5,10.7,67.8c11.3,15.8,23.8,30.5,35.9,46c6.4,8,22.8,23.8,22.3,35.3c-0.3,5.8-32-0.4-35.6-0.9
			c-13.6-1.7-26.8-0.4-40.3,1.7c-38.9,6.4-82.6,20.7-120.3,1c-81.2-42-15-146.9,19.4-197.7c24.4-35.8,49.4-75.2,63.4-116.8
			c0.6,4.2,1.8,8.3,3.4,11.9c1.7,22.3,8,44.5,16.1,63.7c10.5,24.7,25.5,47.3,46.5,64.6c7,5.8,14.7,10.6,22.9,14.8
			C1255.6,474.6,1237.9,475.9,1226.6,483.9z"/>
		<defs>
			
				<filter id="Adobe_OpacityMaskFilter_00000154387231943983292570000014784058824107384501_" filterUnits="userSpaceOnUse" x="707.9" y="305.4" width="361.2" height="453.8">
				<feFlood  style="flood-color:white;flood-opacity:1" result="back"/>
				<feBlend  in="SourceGraphic" in2="back" mode="normal"/>
			</filter>
		</defs>
		
			<mask maskUnits="userSpaceOnUse" x="707.9" y="305.4" width="361.2" height="453.8" id="SVGID_00000068643275372597339550000003073432820321924541_">
			<g style="filter:url(#Adobe_OpacityMaskFilter_00000154387231943983292570000014784058824107384501_);">
				<defs>
					
						<filter id="Adobe_OpacityMaskFilter_00000018943668599299206750000013542453064028901295_" filterUnits="userSpaceOnUse" x="707.9" y="305.4" width="361.2" height="453.8">
						<feFlood  style="flood-color:white;flood-opacity:1" result="back"/>
						<feBlend  in="SourceGraphic" in2="back" mode="normal"/>
					</filter>
				</defs>
				
					<mask maskUnits="userSpaceOnUse" x="707.9" y="305.4" width="361.2" height="453.8" id="SVGID_00000068643275372597339550000003073432820321924541_">
					<g style="filter:url(#Adobe_OpacityMaskFilter_00000018943668599299206750000013542453064028901295_);">
					</g>
				</mask>
				
					<linearGradient id="SVGID_00000005236504581160939250000008907770417075394689_" gradientUnits="userSpaceOnUse" x1="2401.2598" y1="315.8955" x2="2734.0188" y2="726.1478" gradientTransform="matrix(-1 0 0 1 3408.2246 0)">
					<stop  offset="0.1042" style="stop-color:#FFFFFF"/>
					<stop  offset="0.1146" style="stop-color:#FAFAFA"/>
					<stop  offset="0.2493" style="stop-color:#B9B9B9"/>
					<stop  offset="0.3818" style="stop-color:#808080"/>
					<stop  offset="0.509" style="stop-color:#525252"/>
					<stop  offset="0.6298" style="stop-color:#2F2F2F"/>
					<stop  offset="0.7426" style="stop-color:#151515"/>
					<stop  offset="0.8443" style="stop-color:#050505"/>
					<stop  offset="0.9254" style="stop-color:#000000"/>
				</linearGradient>
				
					<path style="mask:url(#SVGID_00000068643275372597339550000003073432820321924541_);fill:url(#SVGID_00000005236504581160939250000008907770417075394689_);" d="
					M707.9,759.2c15.6-120.6,110.2-282.5,141.8-323.9c40.1-52.2,97.2-105,163.2-120.4c18.5-4.2,38.8-8.4,56.2-9.4
					C805.2,448.8,712.7,719.2,707.9,759.2z"/>
			</g>
		</mask>
		
			<linearGradient id="SVGID_00000182491715839688359450000013600152346154561454_" gradientUnits="userSpaceOnUse" x1="2401.2598" y1="315.8955" x2="2734.0188" y2="726.1478" gradientTransform="matrix(-1 0 0 1 3408.2246 0)">
			<stop  offset="0.1042" style="stop-color:#FFFFFF"/>
			<stop  offset="0.9254" style="stop-color:#FFFFFF"/>
		</linearGradient>
		<path style="opacity:0.5;fill:url(#SVGID_00000182491715839688359450000013600152346154561454_);" d="M707.9,759.2
			c15.6-120.6,110.2-282.5,141.8-323.9c40.1-52.2,97.2-105,163.2-120.4c18.5-4.2,38.8-8.4,56.2-9.4
			C805.2,448.8,712.7,719.2,707.9,759.2z"/>
	</g>
	<defs>
		
			<filter id="Adobe_OpacityMaskFilter_00000078004359632515473600000012617053652698835087_" filterUnits="userSpaceOnUse" x="1075.6" y="2.6" width="753.4" height="931.2">
			<feFlood  style="flood-color:white;flood-opacity:1" result="back"/>
			<feBlend  in="SourceGraphic" in2="back" mode="normal"/>
		</filter>
	</defs>
	
		<mask maskUnits="userSpaceOnUse" x="1075.6" y="2.6" width="753.4" height="931.2" id="SVGID_00000082354040960300403960000002971938004641158808_">
		<g style="filter:url(#Adobe_OpacityMaskFilter_00000078004359632515473600000012617053652698835087_);">
			<defs>
				
					<filter id="Adobe_OpacityMaskFilter_00000016770183496351556720000017680892736308558490_" filterUnits="userSpaceOnUse" x="1075.6" y="2.6" width="753.4" height="931.2">
					<feFlood  style="flood-color:white;flood-opacity:1" result="back"/>
					<feBlend  in="SourceGraphic" in2="back" mode="normal"/>
				</filter>
			</defs>
			
				<mask maskUnits="userSpaceOnUse" x="1075.6" y="2.6" width="753.4" height="931.2" id="SVGID_00000082354040960300403960000002971938004641158808_">
				<g style="filter:url(#Adobe_OpacityMaskFilter_00000016770183496351556720000017680892736308558490_);">
				</g>
			</mask>
			
				<linearGradient id="SVGID_00000052083149871122605020000009545203296736153765_" gradientUnits="userSpaceOnUse" x1="1906.6742" y1="395.4162" x2="2141.9636" y2="630.7058" gradientTransform="matrix(-1 0 0 1 3408.2246 0)">
				<stop  offset="0.1042" style="stop-color:#FFFFFF"/>
				<stop  offset="0.4377" style="stop-color:#9A9A9A"/>
				<stop  offset="0.9254" style="stop-color:#000000"/>
			</linearGradient>
			
				<path style="mask:url(#SVGID_00000082354040960300403960000002971938004641158808_);fill:url(#SVGID_00000052083149871122605020000009545203296736153765_);" d="
				M1108.9,23.7c0.7,0,1.3,0.1,2,0.1c0.1,0,0.2,0.1,0.3,0.3c5.8,6,12.9,10.8,20,15.3c40.8,31.9,103.9,86.3,125.2,111.6
				c24,28.5,17.5,33.6,7.7,47.9c0,0,66.5,13.8,184,92.1c31.7,21.4,53.4,38.7,57.8,44.4c0.4,0.6,0.7,1,0.8,1.5
				c0.1,0.1,0.1,0.3,0.1,0.4c0,0.4,0.1,0.9,0.1,1.2c0,0.1-0.1,0.3-0.1,0.6c-0.1,0.3-0.1,0.7-0.2,1c-0.1,0.3-0.2,0.4-0.3,0.7
				c-0.1,0.3-0.4,0.6-0.6,1c-0.1,0.3-0.3,0.4-0.4,0.7c-0.3,0.3-0.7,0.7-0.9,1.2c-0.2,0.3-0.4,0.4-0.7,0.6c-0.4,0.4-0.8,1-1.3,1.3
				c-0.1,0.3-0.3,0.4-0.5,0.6c-0.7,0.6-1.5,1.3-2.3,1.9c-0.1,0.1-0.4,0.3-0.4,0.3c-0.8,0.6-1.5,1.2-2.2,1.6c-0.3,0.3-0.6,0.4-1,0.6
				c-0.7,0.4-1.3,1-2.1,1.6l-0.9,0.4c-0.7,0.4-1.6,0.9-2.4,1.4c-0.3,0.1-0.6,0.4-0.8,0.4c-0.9,0.6-2,1.2-3.1,1.7l-0.4,0.3
				c-21,11.3-50.5,22-50.5,22c186.5,128.1,321.1,354.5,329.2,367.8c0.3,0.6,0.4,0.7,0.4,0.7c67.1,10,72.1,35.2,56.1,99.2
				c-8.8,35.3-25.8,66.8-39.3,87.7c6-22.5,9.5-45.4,9.3-68.4c-0.2-21.2-5.3-53.2-29.5-60.8c-16-4.8-31.9-0.6-47.6,3.4
				c-20.5,5.4-43.2,8.1-64.4,7c-142.8-8.4-159.9-176.3-191.8-282.3c-16-53.2-38.7-108.8-85.8-141.8c-31.3-21.7-68.6-36.8-107.1-36.5
				c-32.4,0.3-81.7,0-76.9-45.4c5.2-49.2,50.5-99.5,8.4-143.7c-24.4-25.5-59.9-41.7-80.4-71.3c-19.3-27.9-29.9-59.6-40.4-91.3
				C1086.7,9,1097.8,16.1,1108.9,23.7z"/>
		</g>
	</mask>
	
		<linearGradient id="SVGID_00000091710673520838247570000015724864250776118185_" gradientUnits="userSpaceOnUse" x1="1906.6742" y1="395.4162" x2="2141.9636" y2="630.7058" gradientTransform="matrix(-1 0 0 1 3408.2246 0)">
		<stop  offset="0.1042" style="stop-color:#FFFFFF"/>
		<stop  offset="0.9254" style="stop-color:#FFFFFF"/>
	</linearGradient>
	<path style="opacity:0.5;fill:url(#SVGID_00000091710673520838247570000015724864250776118185_);" d="M1108.9,23.7
		c0.7,0,1.3,0.1,2,0.1c0.1,0,0.2,0.1,0.3,0.3c5.8,6,12.9,10.8,20,15.3c40.8,31.9,103.9,86.3,125.2,111.6c24,28.5,17.5,33.6,7.7,47.9
		c0,0,66.5,13.8,184,92.1c31.7,21.4,53.4,38.7,57.8,44.4c0.4,0.6,0.7,1,0.8,1.5c0.1,0.1,0.1,0.3,0.1,0.4c0,0.4,0.1,0.9,0.1,1.2
		c0,0.1-0.1,0.3-0.1,0.6c-0.1,0.3-0.1,0.7-0.2,1c-0.1,0.3-0.2,0.4-0.3,0.7c-0.1,0.3-0.4,0.6-0.6,1c-0.1,0.3-0.3,0.4-0.4,0.7
		c-0.3,0.3-0.7,0.7-0.9,1.2c-0.2,0.3-0.4,0.4-0.7,0.6c-0.4,0.4-0.8,1-1.3,1.3c-0.1,0.3-0.3,0.4-0.5,0.6c-0.7,0.6-1.5,1.3-2.3,1.9
		c-0.1,0.1-0.4,0.3-0.4,0.3c-0.8,0.6-1.5,1.2-2.2,1.6c-0.3,0.3-0.6,0.4-1,0.6c-0.7,0.4-1.3,1-2.1,1.6l-0.9,0.4
		c-0.7,0.4-1.6,0.9-2.4,1.4c-0.3,0.1-0.6,0.4-0.8,0.4c-0.9,0.6-2,1.2-3.1,1.7l-0.4,0.3c-21,11.3-50.5,22-50.5,22
		c186.5,128.1,321.1,354.5,329.2,367.8c0.3,0.6,0.4,0.7,0.4,0.7c67.1,10,72.1,35.2,56.1,99.2c-8.8,35.3-25.8,66.8-39.3,87.7
		c6-22.5,9.5-45.4,9.3-68.4c-0.2-21.2-5.3-53.2-29.5-60.8c-16-4.8-31.9-0.6-47.6,3.4c-20.5,5.4-43.2,8.1-64.4,7
		c-142.8-8.4-159.9-176.3-191.8-282.3c-16-53.2-38.7-108.8-85.8-141.8c-31.3-21.7-68.6-36.8-107.1-36.5c-32.4,0.3-81.7,0-76.9-45.4
		c5.2-49.2,50.5-99.5,8.4-143.7c-24.4-25.5-59.9-41.7-80.4-71.3c-19.3-27.9-29.9-59.6-40.4-91.3C1086.7,9,1097.8,16.1,1108.9,23.7z"
		/>
	<g class="st7">
		<defs>
			
				<filter id="Adobe_OpacityMaskFilter_00000113339047006735325620000007606558988904619421_" filterUnits="userSpaceOnUse" x="1353.2" y="1825.4" width="248.4" height="180.5">
				<feFlood  style="flood-color:white;flood-opacity:1" result="back"/>
				<feBlend  in="SourceGraphic" in2="back" mode="normal"/>
			</filter>
		</defs>
		
			<mask maskUnits="userSpaceOnUse" x="1353.2" y="1825.4" width="248.4" height="180.5" id="SVGID_00000115510750950419923820000007636197598260305827_">
			<g style="filter:url(#Adobe_OpacityMaskFilter_00000113339047006735325620000007606558988904619421_);">
				<defs>
					
						<filter id="Adobe_OpacityMaskFilter_00000153689178109728737960000012504742819178053546_" filterUnits="userSpaceOnUse" x="1353.2" y="1825.4" width="248.4" height="180.5">
						<feFlood  style="flood-color:white;flood-opacity:1" result="back"/>
						<feBlend  in="SourceGraphic" in2="back" mode="normal"/>
					</filter>
				</defs>
				
					<mask maskUnits="userSpaceOnUse" x="1353.2" y="1825.4" width="248.4" height="180.5" id="SVGID_00000115510750950419923820000007636197598260305827_">
					<g style="filter:url(#Adobe_OpacityMaskFilter_00000153689178109728737960000012504742819178053546_);">
					</g>
				</mask>
				
					<linearGradient id="SVGID_00000134247285330840507600000016614304029356164233_" gradientUnits="userSpaceOnUse" x1="1927.8292" y1="2020.5237" x2="1937.0115" y2="1699.1504" gradientTransform="matrix(-1 0 0 1 3408.2246 0)">
					<stop  offset="8.361540e-02" style="stop-color:#FFFFFF"/>
					<stop  offset="0.146" style="stop-color:#DBDBDB"/>
					<stop  offset="0.2704" style="stop-color:#9A9A9A"/>
					<stop  offset="0.3889" style="stop-color:#636363"/>
					<stop  offset="0.498" style="stop-color:#383838"/>
					<stop  offset="0.5959" style="stop-color:#191919"/>
					<stop  offset="0.679" style="stop-color:#070707"/>
					<stop  offset="0.7374" style="stop-color:#000000"/>
				</linearGradient>
				
					<path style="mask:url(#SVGID_00000115510750950419923820000007636197598260305827_);fill:url(#SVGID_00000134247285330840507600000016614304029356164233_);" d="
					M1470.6,1825.4c51.4,12.7,120.4,89.9,131,180.5h-196.3c-0.5-57.1-9.5-138.2-52.1-180.5H1470.6z"/>
			</g>
		</mask>
		
			<linearGradient id="SVGID_00000053539995792410052770000016011490525957141638_" gradientUnits="userSpaceOnUse" x1="1927.8292" y1="2020.5237" x2="1937.0115" y2="1699.1504" gradientTransform="matrix(-1 0 0 1 3408.2246 0)">
			<stop  offset="8.361540e-02" style="stop-color:#FFFFFF"/>
			<stop  offset="0.7374" style="stop-color:#FFFFFF"/>
		</linearGradient>
		<path style="fill:url(#SVGID_00000053539995792410052770000016011490525957141638_);" d="M1470.6,1825.4
			c51.4,12.7,120.4,89.9,131,180.5h-196.3c-0.5-57.1-9.5-138.2-52.1-180.5H1470.6z"/>
	</g>
</g>
</svg>
