<?xml version="1.0" encoding="UTF-8"?>
<svg xmlns="http://www.w3.org/2000/svg" xmlns:xlink="http://www.w3.org/1999/xlink" viewBox="0 0 1509.25 2000">
  <defs>
    <style>
      .cls-1 {
        fill: url(#linear-gradient-12);
      }

      .cls-1, .cls-2, .cls-3, .cls-4, .cls-5, .cls-6, .cls-7, .cls-8, .cls-9, .cls-10, .cls-11, .cls-12, .cls-13, .cls-14, .cls-15, .cls-16, .cls-17, .cls-18, .cls-19, .cls-20, .cls-21, .cls-22, .cls-23, .cls-24, .cls-25, .cls-26, .cls-27, .cls-28, .cls-29, .cls-30, .cls-31, .cls-32, .cls-33, .cls-34, .cls-35, .cls-36, .cls-37, .cls-38, .cls-39, .cls-40, .cls-41, .cls-42, .cls-43, .cls-44, .cls-45 {
        stroke-width: 0px;
      }

      .cls-2 {
        fill: url(#linear-gradient-17);
      }

      .cls-3 {
        fill: url(#linear-gradient-19);
      }

      .cls-4 {
        fill: url(#linear-gradient-33);
      }

      .cls-5 {
        fill: url(#linear-gradient);
      }

      .cls-46 {
        mask: url(#mask-10);
      }

      .cls-6, .cls-16 {
        fill: #020202;
      }

      .cls-7 {
        fill: url(#linear-gradient-38);
      }

      .cls-7, .cls-10, .cls-15, .cls-22, .cls-26, .cls-28, .cls-29, .cls-31, .cls-47, .cls-41, .cls-42 {
        mix-blend-mode: multiply;
      }

      .cls-8 {
        fill: url(#linear-gradient-21);
      }

      .cls-9 {
        fill: url(#linear-gradient-6);
      }

      .cls-10 {
        fill: url(#linear-gradient-36);
      }

      .cls-48 {
        mask: url(#mask-2);
      }

      .cls-49 {
        isolation: isolate;
      }

      .cls-50 {
        mask: url(#mask-13);
      }

      .cls-12 {
        fill: url(#linear-gradient-15);
      }

      .cls-13 {
        fill: url(#linear-gradient-11);
      }

      .cls-51 {
        mask: url(#mask-3);
      }

      .cls-14 {
        fill: url(#linear-gradient-5);
      }

      .cls-15 {
        fill: url(#linear-gradient-29);
      }

      .cls-16, .cls-24, .cls-47, .cls-34, .cls-39, .cls-40, .cls-43, .cls-52 {
        opacity: .5;
      }

      .cls-53 {
        mask: url(#mask-9);
      }

      .cls-17 {
        fill: url(#linear-gradient-41);
      }

      .cls-54 {
        mask: url(#mask-12);
      }

      .cls-55 {
        mask: url(#mask-5);
      }

      .cls-18 {
        fill: url(#linear-gradient-13);
      }

      .cls-19 {
        fill: url(#linear-gradient-23);
      }

      .cls-20 {
        fill: url(#linear-gradient-25);
      }

      .cls-21 {
        fill: url(#linear-gradient-16);
      }

      .cls-22 {
        fill: url(#linear-gradient-30);
      }

      .cls-23 {
        fill: url(#linear-gradient-22);
      }

      .cls-24 {
        fill: url(#linear-gradient-3);
      }

      .cls-24, .cls-34, .cls-39, .cls-40, .cls-43, .cls-52 {
        mix-blend-mode: screen;
      }

      .cls-56 {
        filter: url(#luminosity-noclip-12);
      }

      .cls-25 {
        fill: url(#linear-gradient-20);
      }

      .cls-26 {
        fill: url(#linear-gradient-32);
      }

      .cls-27 {
        fill: url(#linear-gradient-14);
      }

      .cls-57 {
        filter: url(#luminosity-noclip-4);
      }

      .cls-28 {
        fill: url(#linear-gradient-40);
      }

      .cls-29 {
        fill: url(#linear-gradient-31);
      }

      .cls-58 {
        mask: url(#mask-8);
      }

      .cls-59 {
        filter: url(#luminosity-noclip-6);
      }

      .cls-30 {
        fill: #221f1f;
      }

      .cls-31 {
        fill: url(#linear-gradient-34);
      }

      .cls-32 {
        fill: url(#linear-gradient-7);
      }

      .cls-60 {
        mask: url(#mask-4);
      }

      .cls-61 {
        mask: url(#mask-15);
      }

      .cls-33 {
        fill: url(#linear-gradient-9);
      }

      .cls-34 {
        fill: url(#linear-gradient-39);
      }

      .cls-62 {
        mask: url(#mask-6);
      }

      .cls-35 {
        fill: url(#linear-gradient-8);
      }

      .cls-36 {
        fill: url(#linear-gradient-24);
      }

      .cls-37 {
        fill: url(#linear-gradient-26);
      }

      .cls-38 {
        fill: url(#linear-gradient-18);
      }

      .cls-39 {
        fill: url(#linear-gradient-28);
      }

      .cls-40 {
        fill: url(#linear-gradient-37);
      }

      .cls-63 {
        filter: url(#luminosity-noclip);
      }

      .cls-64 {
        mask: url(#mask-1);
      }

      .cls-65 {
        mask: url(#mask);
      }

      .cls-41 {
        fill: url(#linear-gradient-2);
      }

      .cls-42 {
        fill: url(#linear-gradient-27);
      }

      .cls-66 {
        mask: url(#mask-7);
      }

      .cls-43 {
        fill: url(#linear-gradient-35);
      }

      .cls-44 {
        fill: url(#linear-gradient-10);
      }

      .cls-45 {
        fill: url(#linear-gradient-4);
      }

      .cls-67 {
        mask: url(#mask-14);
      }

      .cls-68 {
        mask: url(#mask-11);
      }

      .cls-69 {
        filter: url(#luminosity-noclip-10);
      }
    </style>
    <linearGradient id="linear-gradient" x1="268.34" y1="1661.45" x2="1073.1" y2="1661.45" gradientUnits="userSpaceOnUse">
      <stop offset="0" stop-color="#a4a6a9"/>
      <stop offset=".03" stop-color="#939598"/>
      <stop offset=".11" stop-color="#707274"/>
      <stop offset=".18" stop-color="#57595a"/>
      <stop offset=".24" stop-color="#484a4b"/>
      <stop offset=".29" stop-color="#434546"/>
      <stop offset=".45" stop-color="#323131"/>
      <stop offset=".64" stop-color="#221f1f"/>
    </linearGradient>
    <filter id="luminosity-noclip" x="311.74" y="1546.96" width="193.98" height="229.27" color-interpolation-filters="sRGB" filterUnits="userSpaceOnUse">
      <feFlood flood-color="#fff" result="bg"/>
      <feBlend in="SourceGraphic" in2="bg"/>
    </filter>
    <filter id="luminosity-noclip-2" x="311.74" y="-9192" width="193.98" height="32766" color-interpolation-filters="sRGB" filterUnits="userSpaceOnUse">
      <feFlood flood-color="#fff" result="bg"/>
      <feBlend in="SourceGraphic" in2="bg"/>
    </filter>
    <mask id="mask-1" x="311.74" y="-9192" width="193.98" height="32766" maskUnits="userSpaceOnUse"/>
    <linearGradient id="linear-gradient-2" x1="408.73" y1="1567.43" x2="408.73" y2="1806.95" gradientUnits="userSpaceOnUse">
      <stop offset=".1" stop-color="#fff"/>
      <stop offset=".44" stop-color="#999"/>
      <stop offset=".93" stop-color="#000"/>
    </linearGradient>
    <mask id="mask" x="311.74" y="1546.96" width="193.98" height="229.27" maskUnits="userSpaceOnUse">
      <g class="cls-63">
        <g class="cls-64">
          <path class="cls-41" d="m428.16,1775.36s75.99.88,76.14.88c2.47,0,1.01-42.34.86-46.56-.58-19.29-2.6-39.59-13.05-56.42-10.29-16.81-27.7-28.28-37.99-45.38-11.75-19.44-11.17-44.37-6.39-65.99.88-3.33,3.77-12.9,9-12.9l-143.57-2.02c0,17.98-3.19,27.55,0,44.95,7.1,37.56,28.42,53.95,61.48,69.17,25.96,12.04,40.75,36.4,48.74,62.94,1.44,4.93,15.5,51.34,4.78,51.34Z"/>
        </g>
      </g>
    </mask>
    <linearGradient id="linear-gradient-3" x1="408.73" y1="1567.43" x2="408.73" y2="1806.95" gradientUnits="userSpaceOnUse">
      <stop offset=".1" stop-color="#fff"/>
      <stop offset=".93" stop-color="#fff"/>
    </linearGradient>
    <linearGradient id="linear-gradient-4" x1="151.01" y1="1795.31" x2="785.65" y2="1795.31" gradientUnits="userSpaceOnUse">
      <stop offset="0" stop-color="#a4a6a9"/>
      <stop offset=".04" stop-color="#939598"/>
      <stop offset=".15" stop-color="#707274"/>
      <stop offset=".26" stop-color="#57595a"/>
      <stop offset=".35" stop-color="#484a4b"/>
      <stop offset=".42" stop-color="#434546"/>
      <stop offset=".77" stop-color="#282626"/>
      <stop offset=".85" stop-color="#221f1f"/>
    </linearGradient>
    <linearGradient id="linear-gradient-5" x1="141.87" y1="1910.09" x2="1223.75" y2="1910.09" xlink:href="#linear-gradient-4"/>
    <linearGradient id="linear-gradient-6" x1="284.06" y1="144.53" x2="395.52" y2="280.03" gradientUnits="userSpaceOnUse">
      <stop offset=".09" stop-color="#a4a6a9"/>
      <stop offset=".12" stop-color="#9fa0a3"/>
      <stop offset=".72" stop-color="#454344"/>
      <stop offset=".99" stop-color="#221f1f"/>
    </linearGradient>
    <linearGradient id="linear-gradient-7" x1="373.13" y1="105.7" x2="443.08" y2="251.56" xlink:href="#linear-gradient-6"/>
    <linearGradient id="linear-gradient-8" x1="453.94" y1="66.92" x2="523.88" y2="212.75" xlink:href="#linear-gradient-6"/>
    <linearGradient id="linear-gradient-9" x1="533.6" y1="28.91" x2="603.46" y2="174.57" xlink:href="#linear-gradient-6"/>
    <linearGradient id="linear-gradient-10" x1="681.43" y1="15.41" x2="659.95" y2="190.75" xlink:href="#linear-gradient-6"/>
    <linearGradient id="linear-gradient-11" x1="923.4" y1="55.55" x2="865.51" y2="235.65" gradientUnits="userSpaceOnUse">
      <stop offset=".09" stop-color="#a4a6a9"/>
      <stop offset=".34" stop-color="#67696b"/>
      <stop offset=".52" stop-color="#434546"/>
      <stop offset=".79" stop-color="#282626"/>
      <stop offset=".85" stop-color="#221f1f"/>
    </linearGradient>
    <linearGradient id="linear-gradient-12" x1="1044.85" y1="116.13" x2="940.38" y2="266.43" xlink:href="#linear-gradient-11"/>
    <linearGradient id="linear-gradient-13" x1="1154.54" y1="192.34" x2="1050.07" y2="342.63" xlink:href="#linear-gradient-11"/>
    <linearGradient id="linear-gradient-14" x1="1264.48" y1="307.55" x2="1097.59" y2="417.65" xlink:href="#linear-gradient-11"/>
    <linearGradient id="linear-gradient-15" x1="1335.68" y1="415.3" x2="1168.65" y2="525.5" xlink:href="#linear-gradient-11"/>
    <linearGradient id="linear-gradient-16" x1="1462.21" y1="607.25" x2="1295.28" y2="717.37" xlink:href="#linear-gradient-11"/>
    <linearGradient id="linear-gradient-17" x1="1483.49" y1="783.18" x2="1281.13" y2="828.94" xlink:href="#linear-gradient-11"/>
    <linearGradient id="linear-gradient-18" x1="1459.77" y1="938.23" x2="1242.23" y2="881.31" xlink:href="#linear-gradient-11"/>
    <linearGradient id="linear-gradient-19" x1="1280.68" y1="1039.66" x2="1142.34" y2="947.1" xlink:href="#linear-gradient-11"/>
    <linearGradient id="linear-gradient-20" x1="1140.31" y1="1135.28" x2="1026.31" y2="1014.38" xlink:href="#linear-gradient-11"/>
    <linearGradient id="linear-gradient-21" x1="1111.56" y1="1230.53" x2="888.88" y2="1177.66" xlink:href="#linear-gradient-11"/>
    <linearGradient id="linear-gradient-22" x1="1128.03" y1="1246.37" x2="930.55" y2="1359.36" xlink:href="#linear-gradient-11"/>
    <linearGradient id="linear-gradient-23" x1="1206.12" y1="1382.92" x2="1008.79" y2="1495.82" xlink:href="#linear-gradient-11"/>
    <linearGradient id="linear-gradient-24" x1="1397.32" y1="508.7" x2="1230.4" y2="618.82" xlink:href="#linear-gradient-11"/>
    <linearGradient id="linear-gradient-25" x1="808.21" y1="30.98" x2="786.76" y2="206.05" xlink:href="#linear-gradient-6"/>
    <linearGradient id="linear-gradient-26" x1="465.89" y1="424.61" x2="987.21" y2="1419.03" xlink:href="#linear-gradient-11"/>
    <filter id="luminosity-noclip-3" x="359.15" y="-9192" width="551.06" height="32766" color-interpolation-filters="sRGB" filterUnits="userSpaceOnUse">
      <feFlood flood-color="#fff" result="bg"/>
      <feBlend in="SourceGraphic" in2="bg"/>
    </filter>
    <mask id="mask-3" x="359.15" y="-9192" width="551.06" height="32766" maskUnits="userSpaceOnUse"/>
    <linearGradient id="linear-gradient-27" x1="634.68" y1="675.15" x2="634.68" y2="1451.13" xlink:href="#linear-gradient-2"/>
    <mask id="mask-2" x="359.15" y="678.85" width="551.06" height="756.86" maskUnits="userSpaceOnUse">
      <g class="cls-51">
        <path class="cls-42" d="m591.73,1085.2c33.65-34.96,68.61-68.16,98.77-100.64,85.7-91.95,170.11-188.69,219.71-305.71-27.12,63.95-119.8,131.53-170.26,179.97-33.8,32.2-69.47,62.21-105.29,91.94-33.93,28.42-67.14,57.43-100.51,86.43-30.89,26.69-62.21,53.22-90.78,82.24-28.28,29.14-56.27,61.2-72.8,98.61-19.14,43.08-13.63,92.96,12.03,132.41,19.59,30.16,47.43,54.25,65.99,85.27-6.53-55.39-1.74-114.7,15.8-166.34,23.49-68.45,73.97-128.63,127.33-184.17Z"/>
      </g>
    </mask>
    <linearGradient id="linear-gradient-28" x1="634.68" y1="675.15" x2="634.68" y2="1451.13" xlink:href="#linear-gradient-3"/>
    <filter id="luminosity-noclip-4" x="0" y="382.08" width="931.45" height="1138.35" color-interpolation-filters="sRGB" filterUnits="userSpaceOnUse">
      <feFlood flood-color="#fff" result="bg"/>
      <feBlend in="SourceGraphic" in2="bg"/>
    </filter>
    <filter id="luminosity-noclip-5" x="0" y="-9192" width="931.45" height="32766" color-interpolation-filters="sRGB" filterUnits="userSpaceOnUse">
      <feFlood flood-color="#fff" result="bg"/>
      <feBlend in="SourceGraphic" in2="bg"/>
    </filter>
    <mask id="mask-5" x="0" y="-9192" width="931.45" height="32766" maskUnits="userSpaceOnUse"/>
    <linearGradient id="linear-gradient-29" x1="-129.3" y1="951.25" x2="900.57" y2="951.25" gradientUnits="userSpaceOnUse">
      <stop offset="0" stop-color="#000"/>
      <stop offset=".02" stop-color="#0c0c0c"/>
      <stop offset=".14" stop-color="#555"/>
      <stop offset=".26" stop-color="#919191"/>
      <stop offset=".36" stop-color="silver"/>
      <stop offset=".45" stop-color="#e2e2e2"/>
      <stop offset=".53" stop-color="#f7f7f7"/>
      <stop offset=".58" stop-color="#fff"/>
      <stop offset=".85" stop-color="#fff"/>
    </linearGradient>
    <mask id="mask-4" x="0" y="382.08" width="931.45" height="1138.35" maskUnits="userSpaceOnUse">
      <g class="cls-57">
        <g class="cls-55">
          <path class="cls-15" d="m506.46,1520.42c-29.15-7.84-59.46-17.85-83.53-34.38-25.08-17.4-32.2-51.49-48.43-75.71-11.46-17.26-24.95-32.91-40.32-46.99-11.75-10.59-25.1-20.15-35.11-32.77-17.39-22.33-3.04-55.82,8.57-77.44,18.56-34.22,44.22-63.66,66.41-95.28,22.77-32.33,44.97-64.38,72.22-93.1,11.32-12.04,22.78-24.5,35.25-35.97,23.49-25.38,48.58-49.3,74.25-72.51,63.22-56.27,130.37-108.18,194.91-162.86,32.19-27.27,64.38-54.66,94.83-84.11,15.95-15.22,31.47-31.02,46.26-47.42,13.2-14.79,35.11-33.65,39.01-53.8,4.35-21.33-13.91-35.67-27.55-49.17-14.51-14.64-29.3-29.14-44.82-42.92-16.96-15.09-34.22-31.19-53.22-43.79-8.41-5.52-17.11-10.45-25.81-15.67.58.58,1.16,1.16,1.6,1.74,22.91,28.57,46.99,67.73,53.36,104.13,7.11,39.29-15.07,69.17-47.71,89.32-33.93,21.18-68.73,27.27-108.47,24.8-45.55-2.75-93.11-12.9-138.49-9.28-13.2,1.02-54.4,6.24-48.29-19.14,3.62-14.64,13.63-27.4,22.62-39.29,12.47-15.95,24.22-32.49,36.4-48.59,13.2-17.26,27.7-33.64,42.78-49.6-37.13,20.32-74.25,40.32-109.49,63.38-23.49,15.52-50.46,31.32-68.59,53.22-16.53,19.87-26.83,43.65-33.8,68.45-14.92,52.79-23.34,107.03-35.09,160.7-4.2,19.42-6.24,47.42-20.15,62.94-11.46,12.47-25.96,16.1-42.35,15.22-2.47-.13-3.47-2.02-3.33-4.2,2.32-16.38,17.69-25.66,23.92-40.17,9.56-22.33-20.6-36.25-36.98-44.09-24.8-11.45-36.55,14.36-54.68,26.4-16.25,10.72-34.23,21.16-54.1,22.47-1.29,0-3.04-1.16-3.18-2.47-2.33-12.46-4.8-25.23-14.94-33.64-10.89-8.85-23.34-13.93-35.82-19.72-19.01-9-36.99-19.74-38.15-42.78-2.32-50.61,33.93-101.37,65.27-137.63,45.1-52.2,93.54-102.1,145.89-147.2,24.5-21.18,48.87-43.51,76.29-60.47,23.34-14.66,47.85-27.41,69.6-44.37,5.08-5.08,9.73-10.45,13.05-16.25-12.47-6.24-27.27-9.43-41.03-7.97-4.35.58-8.42,1.16-12.47,1.31C196.12,516.72,63.57,744.83,63.57,744.83c-66.86,10.01-71.94,34.94-55.99,98.75,16.1,64.11,59.03,114.87,59.03,114.87-27.99,59.02,72.8,17.98,72.8,17.98-8.84,24.93-7.97,55.11,14.08,52.93,21.89-1.89,233.63-47.86,240.74-53.95,6.95-5.79,29.86-159.8,29.86-159.8,106.89-65.85,268.58-28.87,268.58-28.87,0,0-121.82,129.79-277.42,283.52-155.9,153.86-162.86,256.84-162.86,256.84,109.77,107.9,79.91,191.72,79.91,191.72l174.16,1.6Z"/>
        </g>
      </g>
    </mask>
    <linearGradient id="linear-gradient-30" x1="-129.3" y1="951.25" x2="900.57" y2="951.25" gradientUnits="userSpaceOnUse">
      <stop offset="0" stop-color="#a4a6a9"/>
      <stop offset=".16" stop-color="#7f8183"/>
      <stop offset=".34" stop-color="#5e6062"/>
      <stop offset=".48" stop-color="#4a4c4d"/>
      <stop offset=".58" stop-color="#434546"/>
      <stop offset=".8" stop-color="#282626"/>
      <stop offset=".85" stop-color="#221f1f"/>
    </linearGradient>
    <filter id="luminosity-noclip-6" x="321.25" y="0" width="1007.94" height="1525.64" color-interpolation-filters="sRGB" filterUnits="userSpaceOnUse">
      <feFlood flood-color="#fff" result="bg"/>
      <feBlend in="SourceGraphic" in2="bg"/>
    </filter>
    <filter id="luminosity-noclip-7" x="321.25" y="-9192" width="1007.94" height="32766" color-interpolation-filters="sRGB" filterUnits="userSpaceOnUse">
      <feFlood flood-color="#fff" result="bg"/>
      <feBlend in="SourceGraphic" in2="bg"/>
    </filter>
    <mask id="mask-7" x="321.25" y="-9192" width="1007.94" height="32766" maskUnits="userSpaceOnUse"/>
    <linearGradient id="linear-gradient-31" x1="825.22" y1="-35.09" x2="825.22" y2="1461.11" gradientUnits="userSpaceOnUse">
      <stop offset="0" stop-color="#000"/>
      <stop offset=".02" stop-color="#0c0c0c"/>
      <stop offset=".11" stop-color="#555"/>
      <stop offset=".2" stop-color="#919191"/>
      <stop offset=".28" stop-color="silver"/>
      <stop offset=".34" stop-color="#e2e2e2"/>
      <stop offset=".4" stop-color="#f7f7f7"/>
      <stop offset=".44" stop-color="#fff"/>
      <stop offset=".85" stop-color="#fff"/>
    </linearGradient>
    <mask id="mask-6" x="321.25" y="0" width="1007.94" height="1525.64" maskUnits="userSpaceOnUse">
      <g class="cls-59">
        <g class="cls-66">
          <path class="cls-29" d="m908.18,1269.23c65.55-266.83,421.01-407.21,421.01-407.21C1260.58,277.72,804.34,202.89,804.34,202.89c.86-51.06-48.72-202.89-48.72-202.89-84.71,48.14-175.49,139.5-193.75,160.98-18.28,21.31,1.44,37.26,1.44,37.26-112.82,35.24-230.15,122.11-241.02,136.03-6.39,8.12,17.84,21.03,39.29,30.61-19.72-32.92,64.97-82.23,90.22-91.94,53.51-20.6,111.51-18.43,160.68,5.64-.43-1.01-1.01-2.32-1.6-3.33-9.86-22.19-16.68-47.57-19.14-71.79-4.35-40.62,16.68-77.15,43.51-105.59,30.61-32.63,63.51-64.97,104.41-83.96,1.6-.86,3.77-.58,4.65,1.16,12.47,29,12.03,63.38,11.17,94.42-1.02,30.46-3.34,59.74-14.66,88.61-13.62,34.66-35.24,69.75-63.8,95.71-1.89,3.33-3.19,6.67-4.35,10.29,2.47-.15,4.63-.58,6.95-1.31,4.93-1.89,10.01-3.47,15.09-4.93,5.94-2.17,12.04-4.35,18.13-5.08,4.78-.58,9.71-.86,14.36-1.01,10.44-.86,20.88-.86,31.6.43,30.46,3.64,61.21,12.47,89.19,24.67,58.73,24.93,109.06,65.83,147.35,116.89,48.59,64.97,85.27,138.49,109.49,215.64,10.16,32.05,20.88,63.81,31.91,95.71,5.51,16.54,14.35,38.3,10.44,56.71,1.01.86,1.59,2.32.86,3.92-5.94,14.06-21.74,16.68-33.64,23.63-21.47,12.33-42.64,25.38-62.95,39.31-41.33,27.99-82.08,57.72-119.2,90.63-35.67,31.91-68.16,67.15-97.45,104.56-29.3,37.57-58.73,76-84.11,116.17-4.5,6.95-40.19,63.8-31.77,68.45,14.79,7.97,24.95,20.73,34.94,33.78,27.27,35.39,54.38,66.72,71.21,108.78,14.21,34.94,25.96,72.37,29,110.35.58,6.67,1.02,14.36,1.02,22.19l223.77,2.03v-21.9c-39.87-105.85-170.69-234.5-170.69-234.5Z"/>
        </g>
      </g>
    </mask>
    <linearGradient id="linear-gradient-32" x1="825.22" y1="-35.09" x2="825.22" y2="1461.11" gradientUnits="userSpaceOnUse">
      <stop offset="0" stop-color="#a4a6a9"/>
      <stop offset=".12" stop-color="#7f8183"/>
      <stop offset=".26" stop-color="#5e6062"/>
      <stop offset=".37" stop-color="#4a4c4d"/>
      <stop offset=".44" stop-color="#434546"/>
      <stop offset=".78" stop-color="#282626"/>
      <stop offset=".85" stop-color="#221f1f"/>
    </linearGradient>
    <linearGradient id="linear-gradient-33" x1="117.42" y1="1537.31" x2="968.8" y2="1537.31" gradientUnits="userSpaceOnUse">
      <stop offset="0" stop-color="#a4a6a9"/>
      <stop offset=".13" stop-color="#7c7d7f"/>
      <stop offset=".3" stop-color="#505152"/>
      <stop offset=".46" stop-color="#2d2d2e"/>
      <stop offset=".61" stop-color="#141414"/>
      <stop offset=".75" stop-color="#050505"/>
      <stop offset=".85" stop-color="#000"/>
    </linearGradient>
    <filter id="luminosity-noclip-8" x="531.97" y="-9192" width="234.14" height="32766" color-interpolation-filters="sRGB" filterUnits="userSpaceOnUse">
      <feFlood flood-color="#fff" result="bg"/>
      <feBlend in="SourceGraphic" in2="bg"/>
    </filter>
    <mask id="mask-9" x="531.97" y="-9192" width="234.14" height="32766" maskUnits="userSpaceOnUse"/>
    <linearGradient id="linear-gradient-34" x1="649.04" y1="303.28" x2="649.04" y2="702.6" xlink:href="#linear-gradient-2"/>
    <mask id="mask-8" x="531.97" y="319.48" width="234.14" height="323.59" maskUnits="userSpaceOnUse">
      <g class="cls-53">
        <path class="cls-31" d="m600.73,482.64c24.07,16.96,1.46,50.31-10.89,67.57-11.15,15.67-23.63,30.61-35.67,45.69-6.39,8.12-22.77,23.78-22.19,35.37.3,5.81,31.9-.43,35.54-.86,13.48-1.89,26.67-.43,40.17,1.74,38.71,6.39,82.37,20.45,119.78,1.01,80.92-41.91,14.94-146.47-19.44-197.08-24.21-35.82-49.01-74.98-63.08-116.6-.58,4.22-1.74,8.27-3.33,12.04-1.74,22.19-7.97,44.22-15.95,63.37-10.59,24.8-25.38,47.43-46.41,64.54-7.11,5.81-14.81,10.59-22.91,14.79,15.37-.86,33.06.45,44.37,8.42Z"/>
      </g>
    </mask>
    <linearGradient id="linear-gradient-35" x1="649.04" y1="303.28" x2="649.04" y2="702.6" xlink:href="#linear-gradient-3"/>
    <filter id="luminosity-noclip-9" x="757.64" y="-9192" width="360.09" height="32766" color-interpolation-filters="sRGB" filterUnits="userSpaceOnUse">
      <feFlood flood-color="#fff" result="bg"/>
      <feBlend in="SourceGraphic" in2="bg"/>
    </filter>
    <mask id="mask-11" x="757.64" y="-9192" width="360.09" height="32766" maskUnits="userSpaceOnUse"/>
    <linearGradient id="linear-gradient-36" x1="819.57" y1="315.06" x2="1151.46" y2="724.24" gradientUnits="userSpaceOnUse">
      <stop offset=".1" stop-color="#fff"/>
      <stop offset=".11" stop-color="#f9f9f9"/>
      <stop offset=".25" stop-color="#b8b8b8"/>
      <stop offset=".38" stop-color="gray"/>
      <stop offset=".51" stop-color="#525252"/>
      <stop offset=".63" stop-color="#2e2e2e"/>
      <stop offset=".74" stop-color="#141414"/>
      <stop offset=".84" stop-color="#050505"/>
      <stop offset=".93" stop-color="#000"/>
    </linearGradient>
    <mask id="mask-10" x="757.64" y="304.55" width="360.09" height="452.76" maskUnits="userSpaceOnUse">
      <g class="cls-68">
        <path class="cls-10" d="m1117.73,757.31c-15.52-120.51-109.63-281.93-141.24-323.11-40.04-52.35-96.88-104.86-162.86-120.08-18.41-4.2-38.73-8.41-55.99-9.56,263.07,142.98,355.46,412.59,360.09,452.76Z"/>
      </g>
    </mask>
    <linearGradient id="linear-gradient-37" x1="819.57" y1="315.06" x2="1151.46" y2="724.24" gradientUnits="userSpaceOnUse">
      <stop offset=".1" stop-color="#fff"/>
      <stop offset=".93" stop-color="#fff"/>
    </linearGradient>
    <filter id="luminosity-noclip-10" x="0" y="2.6" width="751.27" height="928.59" color-interpolation-filters="sRGB" filterUnits="userSpaceOnUse">
      <feFlood flood-color="#fff" result="bg"/>
      <feBlend in="SourceGraphic" in2="bg"/>
    </filter>
    <filter id="luminosity-noclip-11" x="0" y="-9192" width="751.27" height="32766" color-interpolation-filters="sRGB" filterUnits="userSpaceOnUse">
      <feFlood flood-color="#fff" result="bg"/>
      <feBlend in="SourceGraphic" in2="bg"/>
    </filter>
    <mask id="mask-13" x="0" y="-9192" width="751.27" height="32766" maskUnits="userSpaceOnUse"/>
    <linearGradient id="linear-gradient-38" x1="326.51" y1="394.33" x2="561.15" y2="628.97" xlink:href="#linear-gradient-2"/>
    <mask id="mask-12" x="0" y="2.6" width="751.27" height="928.59" maskUnits="userSpaceOnUse">
      <g class="cls-69">
        <g class="cls-50">
          <path class="cls-7" d="m718.05,23.78h-2.02s0,.3-.15.3c-5.95,5.94-12.9,10.87-20.17,15.52-40.45,31.32-103.54,85.7-124.56,110.93-23.94,28.42-17.41,33.65-7.84,47.71,0,0-66.28,14.08-183.3,91.95-31.62,21.16-53.22,38.57-57.72,44.08-.43.59-.58,1.02-.88,1.46v.58c-.13.43-.13.73-.13,1.02v.58c.13.43.28.71.43,1.16,0,.13.15.43.15.73.28.28.43.58.71,1.01,0,.28.3.43.45.73.28.28.58.73.86.86.15.45.45.58.58.88.45.43.73.88,1.31,1.31.3.15.45.28.58.58.73.43,1.6,1.16,2.33,1.74.13.3.28.3.43.43.73.58,1.46,1.02,2.17,1.75.45,0,.58.28.88.43.73.43,1.46.86,2.17,1.46l.88.58c.88.43,1.59.86,2.47,1.44.3.15.58.3.73.45,1.01.58,2.03,1.16,3.19,1.74l.13.13c21.03,11.32,50.48,21.9,50.48,21.9C206.26,505.1,71.97,730.62,64,744.11c-.28.43-.43.73-.43.73-66.86,10.01-71.94,34.94-55.99,98.75,8.85,35.39,25.82,66.57,39.31,87.6-5.94-22.63-9.58-45.4-9.28-68.01.28-21.33,5.23-53.22,29.43-60.62,15.96-5.23,31.91-.73,47.58,3.19,20.43,5.06,42.92,8.11,64.24,6.8,142.27-8.26,159.37-175.62,191.29-281.49,15.95-53.08,38.42-108.33,85.55-141.24,31.04-21.9,68.31-36.7,106.74-36.4,32.2.28,81.5-.15,76.57-45.4-5.08-48.72-50.33-99.2-8.27-143.14,24.52-25.53,59.91-41.63,80.21-70.91,19.29-27.99,29.86-59.46,40.32-91.37-11.03,6.39-22.2,13.63-33.22,21.18Z"/>
        </g>
      </g>
    </mask>
    <linearGradient id="linear-gradient-39" x1="326.51" y1="394.33" x2="561.15" y2="628.97" xlink:href="#linear-gradient-3"/>
    <filter id="luminosity-noclip-12" x="226.71" y="1820.18" width="247.7" height="179.82" color-interpolation-filters="sRGB" filterUnits="userSpaceOnUse">
      <feFlood flood-color="#fff" result="bg"/>
      <feBlend in="SourceGraphic" in2="bg"/>
    </filter>
    <filter id="luminosity-noclip-13" x="226.71" y="-9192" width="247.7" height="32766" color-interpolation-filters="sRGB" filterUnits="userSpaceOnUse">
      <feFlood flood-color="#fff" result="bg"/>
      <feBlend in="SourceGraphic" in2="bg"/>
    </filter>
    <mask id="mask-15" x="226.71" y="-9192" width="247.7" height="32766" maskUnits="userSpaceOnUse"/>
    <linearGradient id="linear-gradient-40" x1="347.58" y1="2014.61" x2="356.72" y2="1694.42" gradientUnits="userSpaceOnUse">
      <stop offset=".08" stop-color="#fff"/>
      <stop offset=".15" stop-color="#dbdbdb"/>
      <stop offset=".27" stop-color="#999"/>
      <stop offset=".39" stop-color="#626262"/>
      <stop offset=".5" stop-color="#383838"/>
      <stop offset=".6" stop-color="#191919"/>
      <stop offset=".68" stop-color="#060606"/>
      <stop offset=".74" stop-color="#000"/>
    </linearGradient>
    <mask id="mask-14" x="226.71" y="1820.18" width="247.7" height="179.82" maskUnits="userSpaceOnUse">
      <g class="cls-56">
        <g class="cls-61">
          <path class="cls-28" d="m357.23,1820.18c-51.19,12.62-119.93,89.62-130.52,179.82h195.79c.43-56.85,9.43-137.62,51.92-179.82h-117.18Z"/>
        </g>
      </g>
    </mask>
    <linearGradient id="linear-gradient-41" x1="347.58" y1="2014.61" x2="356.72" y2="1694.42" gradientUnits="userSpaceOnUse">
      <stop offset=".08" stop-color="#fff"/>
      <stop offset=".74" stop-color="#fff"/>
    </linearGradient>
  </defs>
  <g class="cls-49">
    <g id="Capa_1" data-name="Capa 1">
      <g>
        <g>
          <g>
            <path class="cls-5" d="m682.81,1542.89l-400.26-7.25v64.82c0,14.51,17.7,45.68,54.23,64.69,36.55,19.14,40.47,55.11,22.2,75.54-18.43,20.6-25.96,23.06-25.96,46.56h699.44c0-23.49-7.54-25.96-25.96-46.56-18.13-20.43-14.49-56.4,22.19-75.54,36.55-19.01,54.25-50.18,54.25-64.69v-64.82l-400.13,7.25Z"/>
            <g class="cls-65">
              <path class="cls-24" d="m428.16,1775.36s75.99.88,76.14.88c2.47,0,1.01-42.34.86-46.56-.58-19.29-2.6-39.59-13.05-56.42-10.29-16.81-27.7-28.28-37.99-45.38-11.75-19.44-11.17-44.37-6.39-65.99.88-3.33,3.77-12.9,9-12.9l-143.57-2.02c0,17.98-3.19,27.55,0,44.95,7.1,37.56,28.42,53.95,61.48,69.17,25.96,12.04,40.75,36.4,48.74,62.94,1.44,4.93,15.5,51.34,4.78,51.34Z"/>
            </g>
            <path class="cls-16" d="m860.76,1539.7c-30.18,65.99-38.15,106.17-113.71,123.42-39.87,9.13-224.49,8.41-284.38,5.51-60.32-3.04-139.65,11.6-174.31-49.75,7.68,14.94,23.64,33.5,48.43,46.27,36.55,19.14,40.47,55.11,22.2,75.54-18.43,20.6-25.96,23.06-25.96,46.56h699.44c0-23.49-7.54-25.96-25.96-46.56-18.13-20.43-14.49-56.4,22.19-75.54,36.55-19.01,54.25-50.18,54.25-64.69v-64.82l-222.18,4.05Z"/>
            <g>
              <path class="cls-45" d="m1088.45,1808.73c0-24.09-18.86-43.51-41.92-43.51H318.95c-23.05,0-41.76,19.42-41.76,43.51,0,3.76.43,13.04,1.31,16.68l809.23-1.17c.86-3.76.73-11.75.73-15.5Z"/>
              <g class="cls-47">
                <path class="cls-30" d="m1087.87,1802.34H277.62c-.28,2.03-.43,4.2-.43,6.39,0,3.76.43,13.04,1.31,16.68l809.23-1.17c.86-3.76.73-11.75.73-15.5,0-2.18-.3-4.35-.58-6.39Z"/>
              </g>
              <path class="cls-14" d="m1223.75,1999.42c0-99.05-62.07-179.24-138.21-179.24H279.93c-76.27,0-138.06,80.19-138.06,179.24v.58h1081.88v-.58Z"/>
              <path class="cls-6" d="m1085.54,1820.18h-179.67c-59.89,70.63-195.21,114.14-258.44,133.86-70.18,21.76-144.15,37.99-218.69,45.96h795.01v-.58c0-99.05-62.07-179.24-138.21-179.24Z"/>
            </g>
            <path class="cls-11" d="m394.22,305.99s-79.91-88.75-110.95-119.78c-31.04-30.89,13.2-52.21,80.92-79.76,58.15-23.94,118.62-43.66,179.84-57.87,96.57-22.47,203.75-34.66,301.94-17.26,92.81,16.39,175.62,61.93,249,119.65,131.54,102.96,234.65,225.35,306.59,376.47,34.36,72.37,65.4,153.88,81.78,232.19,27.41,131.53,42.65,149.66-4.05,174.89-62.79,33.8-128.35,63.08-189.83,99.93-59.31,35.67-125.74,71.21-173.73,121.97-51.06,53.51,32.91,142.55,64.24,183.89,15.22,20.3,20.15,33.93,3.77,55.24-12.33,15.96-27.71,30.18-41.92,44.52-16.1,16.39-64.39,52.21-64.39,77.88s-71.64-47.12-71.64-42.64-143.42-178.37-143.42-178.37c0,0,19.87-116.17,125.16-231.9,105.42-116.16,294.54-199.97,303.53-228.98,9.13-29.02-18.27-309.63-236.39-472.92-218.11-163.16-295.98-89.92-317.31-164.9-21.31-74.68-295.85,87.31-343.12,107.75Z"/>
            <g>
              <path class="cls-9" d="m361.15,198.24c-14.49-16.38-25.96-37.41-41.63-52.35-7.53-7.54-15.52-9.71-23.05-7.54-23.49,14.64-31.48,29.58-13.2,47.86,31.04,31.04,110.95,119.78,110.95,119.78,6.95-3.19,19.14-9.28,34.66-17.4-10.89-15.37-55.84-76.85-67.73-90.35Z"/>
              <path class="cls-32" d="m443.81,188.23c-9.99-21.89-21.03-43.65-29.28-66.26-5.23-14.36-9-28.29-25.38-25.38-8.42,3.18-16.68,6.37-24.95,9.86-.28.13-.43.13-.86.28-2.61,1.89-4.93,4.2-6.82,6.53-4.22,13.19,3.18,28.56,8.11,42.34,6.82,18.41,14.51,36.26,23.49,53.52,5.23,9.86,10.59,19.72,16.54,29.15,11.75,14.92,22.62,30.44,31.04,46.99,13.34-7.11,29-15.24,45.68-23.79-17.26-20.88-26.26-48.44-37.57-73.24Z"/>
              <path class="cls-35" d="m516.47,112.11c-4.78-16.83-8.85-53.95-34.08-46.56-8.27,2.61-17.98,7.83-27.12,8.41-5.94,3.49-10.87,7.69-12.33,13.93-2.32,9.99-.88,19.72,1.46,29.73,4.78,21.16,10.87,42.19,18.56,62.51,9.86,25.38,21.46,49.59,34.94,73.08,16.53-8.41,34.23-16.96,52.07-25.23-10.89-38.71-22.33-77.15-33.5-115.86Z"/>
              <path class="cls-33" d="m604.65,124.13c-.88-22.62.58-49.15-5.81-71.06-2.32-8.41-6.67-12.18-11.75-13.48-10.29,1.89-20.17,3.91-30.16,6.24-11.03,6.82-19.01,16.53-19.01,30.44,0,20.32,6.24,40.04,11.17,59.46,6.96,27.71,13.63,55.41,21.33,82.95,12.03-5.21,24.22-10.44,35.97-15.07-.3-26.4-.45-53.09-1.74-79.48Z"/>
              <path class="cls-44" d="m702.83,178.81c2.17-17.84,3.92-35.69,5.21-53.67,1.89-21.74,6.68-43.79,6.1-65.55-.3-11.17-1.02-28.85-12.19-34.94-18.85,1.01-37.85,2.9-56.85,5.36-8.55,7.97-9.86,20.17-10.29,32.05-.88,22.48,1.74,44.82,3.47,67.3,1.6,20,3.77,40.3,7.25,60.47,21.9-6.96,41.63-11.02,57.29-11.02Z"/>
              <path class="cls-13" d="m934.28,153.43c12.18-26.69,34.23-68.16,5.51-92.09-2.76-2.33-5.66-4.35-8.55-6.1-8.27-3.18-16.54-6.09-24.8-8.7-3.49-.43-6.96-.58-10.59-.43-15.67,3.62-22.19,19.44-26.26,34.51-6.67,26.11-11.88,53.22-17.11,79.76-5.94,30.18-10.16,60.49-15.37,90.94,14.36,3.62,30.46,8.41,48.44,15.22,15.65-38.14,31.6-75.86,48.72-113.12Z"/>
              <path class="cls-1" d="m1040.44,204.04c11.32-16.68,42.5-46.13,28.87-68.31-1.89-2.9-4.22-6.09-6.68-8.84-13.63-9.73-27.55-18.71-41.76-27.27-1.16-.45-2.18-.88-3.34-1.16-20.3-5.66-30.16,7.83-37.41,24.07-11.32,25.51-23.21,50.61-35.11,75.69-12.03,25.96-24.21,51.78-36.98,77.3,19.59,8.57,41.33,19.14,65.12,33.22,21.9-35.24,44.67-70.35,67.29-104.71Z"/>
              <path class="cls-18" d="m1070.31,375.31c15.67-18.13,31.47-36.55,47.28-54.68,16.38-18.7,33.49-36.53,50.16-54.96,9.73-10.72,19.74-25.66,10.59-40.17-1.59-2.61-3.33-5.21-5.06-7.54-14.51-13.48-29.15-26.54-44.39-39.44-.28-.15-.73-.15-1.16-.15-14.36-3.18-26.82,4.35-36.25,14.66-14.79,16.1-26.98,35.39-39.44,53.36-14.81,21.04-29.02,42.65-42.78,64.26-3.19,4.78-6.24,9.56-9.28,14.49,17.11,11.02,35.37,23.49,54.66,38,5.38,3.91,10.44,8.12,15.67,12.18Z"/>
              <path class="cls-27" d="m1153.27,458.56c22.77-18.56,46.84-35.97,69.02-55.41,17.12-14.94,41.92-32.77,52.07-53.51,3.62-7.26,3.49-14.79,1.02-22.2-15.24-18.99-31.19-37.26-47.86-55.09-.15-.15-.43-.3-.43-.45-17.7-9.86-30.89,1.31-42.06,14.36-19.44,22.04-39.59,43.51-59.18,65.55-11.75,13.48-23.64,27.12-34.81,41.19,23.06,20.73,43.81,42.77,62.22,65.55Z"/>
              <path class="cls-12" d="m1283.06,495.39c14.06-11.6,29.58-22.48,41.91-36.12,6.53-6.95,14.36-15.95,15.82-25.81,1.46-9.71-2.32-17.26-6.82-24.65-5.23-6.39-10.89-12.62-17.98-14.06-11.9-2.61-23.21.73-33.5,6.37-17.69,9.73-34.23,22.2-49.75,34.96-20,16.53-39,34.23-56.27,53.65,13.05,19.01,24.95,38,35.39,57,25.1-15.22,48.72-32.77,71.21-51.34Z"/>
              <path class="cls-21" d="m1302.2,743.82c21.47-4.35,42.21-9.86,62.8-17.4,16.38-6.09,32.48-12.9,47.71-21.03,11.17-6.09,32.33-13.78,34.79-27.84,3.04-17.4-3.77-33.35-7.53-50.03-1.75-7.4-3.77-21.03-11.75-24.67-.88-.43-1.89-.71-2.61-1.16-22.48-2.61-46.85,10.31-66.13,19.14-21.76,10.01-43.66,20.02-64.97,31.33-10.16,5.08-20.17,11.45-30.18,17.4,9,27.98,15.38,54.08,19.74,77,6.95-1.46,14.35-2.03,18.12-2.75Z"/>
              <path class="cls-2" d="m1271.74,855.91c19.74,1.75,38.88,5.52,59.33,3.34,22.91-2.47,46.11-4.2,69.46-5.66,20.3-1.31,40.75-2.17,60.77-4.63,8.85-1.16,19.57-2.61,26.83-7.97,5.51-4.22,8.55-9,10.01-14.21-4.22-18.28-9.28-40.19-14.81-67.15-1.87-8.41-3.76-17.11-5.94-25.66-1.59-.73-3.34-1.46-5.21-1.89-23.21-5.52-48.16,2.9-70.49,9.86-37.84,11.75-74.25,27.7-111.96,39.72,3.64,28.14,3.49,47.86,1.31,54.4-1.44,4.93-8.4,11.75-19.29,19.85Z"/>
              <path class="cls-38" d="m1430.84,882.02c-32.33-1.31-64.82-.86-97.17-3.33-24.93-1.89-51.77-1.46-74.83-12.33-.43-.15-.73-.45-1.16-.73-14.94,10.01-33.79,21.76-55.26,35.39,40.9,19.14,83.53,35.09,125.01,53.22,26.83,11.75,50.76,20.58,80.49,13.62,4.65-.86,9.15-2.17,13.5-3.62,19.57-9.71,38.86-19.42,57.86-29.73,4.2-2.32,7.69-4.35,10.87-6.67.59-3.92.88-7.97.73-11.9-1.31-33.35-33.5-32.91-60.04-33.93Z"/>
              <path class="cls-3" d="m1313.37,991.38c-11.32-15.52-33.35-26.69-50.91-34.66-30.59-14.08-63.8-24.67-96.72-32.79-23.06,14.81-47.43,30.9-71.5,48.44,1.89,1.89,3.92,3.77,6.09,5.38,16.1,12.9,31.62,25.38,46.41,39.72,16.97,17.26,36.99,36.99,61.21,43.21,13.63,3.64,27.84,1.75,41.61-2.6,13.48-7.97,26.84-15.67,39.89-23.64,7.97-4.65,16.1-9.43,24.07-13.93,4.5-9.99,6.24-20.45-.15-29.14Z"/>
              <path class="cls-25" d="m1006.65,1091.72c12.33,12.47,25.08,24.65,37.99,36.4,13.78,12.77,29.3,27.84,47.58,34.08,5.64,1.89,11.17,2.91,16.38,3.04,2.18-3.04,4.35-6.09,7.11-8.84,21.31-22.63,46.54-42.35,73.08-60.19-.86-3.34-2.17-6.52-3.91-9.71-7.69-14.36-19.29-25.82-32.05-35.82-26.98-21.18-56.27-39.46-84.11-59.18-29.3,22.77-57.44,47.13-81.22,73.52-1.31,1.46-2.76,2.91-4.07,4.5,7.4,7.84,15.96,14.94,23.21,22.19Z"/>
              <path class="cls-8" d="m888.89,1252.55c12.04.73,24.07,2.18,36.26,1.75,25.08-.73,50.16-1.89,75.41-2.03,23.49-.15,46.99-.3,70.33-.43,14.51-.15,29.58-2.03,38.71-14.08-4.35-10.01-7.68-20-9.13-29.86-6.96-9-16.25-15.96-27.27-22.05-17.98-9.56-35.67-20.6-53.08-31.47-19.87-12.47-39.87-24.5-60.77-35.67-3.19-1.74-7.4-3.34-11.3-5.23-39.46,54.38-61.64,104.99-73.24,139.07,4.63-.28,9.28-.43,14.06,0Z"/>
              <path class="cls-23" d="m996.06,1421.22c23.79-9.58,46.7-22.77,68.89-35.54,18.99-10.87,38.71-21.46,57.13-33.5,18.43-11.88,33.07-25.38,31.33-45.68-6.09-7.68-12.33-16.1-18.43-24.65-12.18-5.81-25.23-7.4-39.15-6.24-29.15,2.18-58.02,4.07-87.31,4.93-48.87,1.6-97.02,10.16-145.76,14.21-.13,1.31-.43,2.18-.43,2.18,0,0,63.23,80.49,105.57,133.27,9.43-3.04,19.01-5.21,28.14-8.98Z"/>
              <path class="cls-19" d="m1146.02,1354.22c-20.02,10.29-40.17,20.75-59.33,32.34-34.51,20.73-68.01,43.51-103.69,62.21,13.63,16.83,22.77,27.71,22.77,26.54,0-4.48,71.64,67.15,71.64,42.64s48.29-61.48,64.39-77.88c14.21-14.35,29.6-28.56,41.92-44.52,13.33-17.4,12.61-29.73,3.62-44.67-13.05-9.99-28.27-3.62-41.33,3.34Z"/>
              <path class="cls-36" d="m1286.1,627.22c20.17-10.87,40.17-22.04,61.2-30.89,17.55-7.25,48.44-16.53,57.87-35.09,3.47-6.68,3.33-14.79,1.01-23.36-1.44-3.47-3.19-6.95-4.63-10.44-4.07-8.41-8.27-16.83-12.47-24.93-3.49-5.08-6.96-9.86-10.16-13.78-2.75-2.18-5.66-4.07-8.41-5.51-14.21-7.4-28.72-.88-41.05,6.96-22.77,14.49-44.8,30.89-65.83,47.7-13.35,10.45-26.4,21.61-39.31,32.64,12.18,24.35,22.48,48.72,31.04,72.07,10.16-5.08,20.73-10.14,30.74-15.37Z"/>
              <path class="cls-20" d="m826.68,28.57c-9.58-1.31-19.14-2.47-28.72-3.19-5.51.28-10.87.73-16.25,1.31-2.75,1.16-5.21,2.47-6.95,4.48-10.01,11.17-8.57,32.64-9.15,46.85-1.01,29.43-1.01,58.87-.71,88.02,0,22.78,1.29,45.55,3.76,68.01,10.59,4.22,24.09,6.82,40.76,10.45,1.44-5.52,2.75-11.17,4.35-16.83,9.13-36.99,15.37-74.25,21.03-111.67,2.02-13.19,12.9-55.97,4.63-78.16-3.47-4.35-7.83-7.41-12.76-9.28Z"/>
            </g>
            <path class="cls-37" d="m332.3,1518.82s29.86-83.82-79.91-191.72c0,0,6.96-102.97,162.86-256.84,155.6-153.73,277.42-283.52,277.42-283.52,0,0-161.69-36.98-268.58,28.87,0,0-22.91,154.01-29.86,159.8-7.11,6.09-218.85,52.07-240.74,53.95-22.05,2.18-22.91-27.99-14.08-52.93,0,0-100.79,41.03-72.8-17.98,0,0-42.93-50.76-59.03-114.87-15.95-63.81-10.87-88.75,55.99-98.75,0,0,136.9-235.81,328.62-367.64,0,0-80.92-28.85-69.9-42.93,10.87-13.91,128.2-100.79,241.02-136.03,0,0-19.72-15.95-1.44-37.26,18.27-21.47,109.05-112.83,193.75-160.98,0,0,49.59,151.83,48.72,202.89,0,0,456.23,74.83,524.84,659.13,0,0-355.46,140.38-421.01,407.21,0,0,130.82,128.65,170.69,234.5v21.9l-746.57-6.82Z"/>
            <g class="cls-48">
              <path class="cls-39" d="m591.73,1085.2c33.65-34.96,68.61-68.16,98.77-100.64,85.7-91.95,170.11-188.69,219.71-305.71-27.12,63.95-119.8,131.53-170.26,179.97-33.8,32.2-69.47,62.21-105.29,91.94-33.93,28.42-67.14,57.43-100.51,86.43-30.89,26.69-62.21,53.22-90.78,82.24-28.28,29.14-56.27,61.2-72.8,98.61-19.14,43.08-13.63,92.96,12.03,132.41,19.59,30.16,47.43,54.25,65.99,85.27-6.53-55.39-1.74-114.7,15.8-166.34,23.49-68.45,73.97-128.63,127.33-184.17Z"/>
            </g>
            <g class="cls-60">
              <path class="cls-22" d="m506.46,1520.42c-29.15-7.84-59.46-17.85-83.53-34.38-25.08-17.4-32.2-51.49-48.43-75.71-11.46-17.26-24.95-32.91-40.32-46.99-11.75-10.59-25.1-20.15-35.11-32.77-17.39-22.33-3.04-55.82,8.57-77.44,18.56-34.22,44.22-63.66,66.41-95.28,22.77-32.33,44.97-64.38,72.22-93.1,11.32-12.04,22.78-24.5,35.25-35.97,23.49-25.38,48.58-49.3,74.25-72.51,63.22-56.27,130.37-108.18,194.91-162.86,32.19-27.27,64.38-54.66,94.83-84.11,15.95-15.22,31.47-31.02,46.26-47.42,13.2-14.79,35.11-33.65,39.01-53.8,4.35-21.33-13.91-35.67-27.55-49.17-14.51-14.64-29.3-29.14-44.82-42.92-16.96-15.09-34.22-31.19-53.22-43.79-8.41-5.52-17.11-10.45-25.81-15.67.58.58,1.16,1.16,1.6,1.74,22.91,28.57,46.99,67.73,53.36,104.13,7.11,39.29-15.07,69.17-47.71,89.32-33.93,21.18-68.73,27.27-108.47,24.8-45.55-2.75-93.11-12.9-138.49-9.28-13.2,1.02-54.4,6.24-48.29-19.14,3.62-14.64,13.63-27.4,22.62-39.29,12.47-15.95,24.22-32.49,36.4-48.59,13.2-17.26,27.7-33.64,42.78-49.6-37.13,20.32-74.25,40.32-109.49,63.38-23.49,15.52-50.46,31.32-68.59,53.22-16.53,19.87-26.83,43.65-33.8,68.45-14.92,52.79-23.34,107.03-35.09,160.7-4.2,19.42-6.24,47.42-20.15,62.94-11.46,12.47-25.96,16.1-42.35,15.22-2.47-.13-3.47-2.02-3.33-4.2,2.32-16.38,17.69-25.66,23.92-40.17,9.56-22.33-20.6-36.25-36.98-44.09-24.8-11.45-36.55,14.36-54.68,26.4-16.25,10.72-34.23,21.16-54.1,22.47-1.29,0-3.04-1.16-3.18-2.47-2.33-12.46-4.8-25.23-14.94-33.64-10.89-8.85-23.34-13.93-35.82-19.72-19.01-9-36.99-19.74-38.15-42.78-2.32-50.61,33.93-101.37,65.27-137.63,45.1-52.2,93.54-102.1,145.89-147.2,24.5-21.18,48.87-43.51,76.29-60.47,23.34-14.66,47.85-27.41,69.6-44.37,5.08-5.08,9.73-10.45,13.05-16.25-12.47-6.24-27.27-9.43-41.03-7.97-4.35.58-8.42,1.16-12.47,1.31C196.12,516.72,63.57,744.83,63.57,744.83c-66.86,10.01-71.94,34.94-55.99,98.75,16.1,64.11,59.03,114.87,59.03,114.87-27.99,59.02,72.8,17.98,72.8,17.98-8.84,24.93-7.97,55.11,14.08,52.93,21.89-1.89,233.63-47.86,240.74-53.95,6.95-5.79,29.86-159.8,29.86-159.8,106.89-65.85,268.58-28.87,268.58-28.87,0,0-121.82,129.79-277.42,283.52-155.9,153.86-162.86,256.84-162.86,256.84,109.77,107.9,79.91,191.72,79.91,191.72l174.16,1.6Z"/>
            </g>
            <g class="cls-62">
              <path class="cls-26" d="m908.18,1269.23c65.55-266.83,421.01-407.21,421.01-407.21C1260.58,277.72,804.34,202.89,804.34,202.89c.86-51.06-48.72-202.89-48.72-202.89-84.71,48.14-175.49,139.5-193.75,160.98-18.28,21.31,1.44,37.26,1.44,37.26-112.82,35.24-230.15,122.11-241.02,136.03-6.39,8.12,17.84,21.03,39.29,30.61-19.72-32.92,64.97-82.23,90.22-91.94,53.51-20.6,111.51-18.43,160.68,5.64-.43-1.01-1.01-2.32-1.6-3.33-9.86-22.19-16.68-47.57-19.14-71.79-4.35-40.62,16.68-77.15,43.51-105.59,30.61-32.63,63.51-64.97,104.41-83.96,1.6-.86,3.77-.58,4.65,1.16,12.47,29,12.03,63.38,11.17,94.42-1.02,30.46-3.34,59.74-14.66,88.61-13.62,34.66-35.24,69.75-63.8,95.71-1.89,3.33-3.19,6.67-4.35,10.29,2.47-.15,4.63-.58,6.95-1.31,4.93-1.89,10.01-3.47,15.09-4.93,5.94-2.17,12.04-4.35,18.13-5.08,4.78-.58,9.71-.86,14.36-1.01,10.44-.86,20.88-.86,31.6.43,30.46,3.64,61.21,12.47,89.19,24.67,58.73,24.93,109.06,65.83,147.35,116.89,48.59,64.97,85.27,138.49,109.49,215.64,10.16,32.05,20.88,63.81,31.91,95.71,5.51,16.54,14.35,38.3,10.44,56.71,1.01.86,1.59,2.32.86,3.92-5.94,14.06-21.74,16.68-33.64,23.63-21.47,12.33-42.64,25.38-62.95,39.31-41.33,27.99-82.08,57.72-119.2,90.63-35.67,31.91-68.16,67.15-97.45,104.56-29.3,37.57-58.73,76-84.11,116.17-4.5,6.95-40.19,63.8-31.77,68.45,14.79,7.97,24.95,20.73,34.94,33.78,27.27,35.39,54.38,66.72,71.21,108.78,14.21,34.94,25.96,72.37,29,110.35.58,6.67,1.02,14.36,1.02,22.19l223.77,2.03v-21.9c-39.87-105.85-170.69-234.5-170.69-234.5Z"/>
            </g>
            <g>
              <path class="cls-11" d="m412.34,499.46s5.38-36.55,8.85-46.27c8.27-22.77,16.83-31.04,16.83-31.04l-6.96-1.01s34.51-22.91,72.66-27.27c43.07-4.93,73.95,6.96,73.95,6.96l-4.78,1.16s8.85,2.76,20.3.3c0,0-13.2,13.19-29.88,23.49-15.52,9.42-23.2,25.96-35.24,39.01-10.72,11.75-25.66,12.61-40.9,11.88-11.3-.58-22.77-2.17-34.08-2.9-7.98-.3-16.96-.73-24.35,2.47-8.12,3.77-16.4,23.21-16.4,23.21Z"/>
              <path class="cls-11" d="m63.13,827.64s21.76,18.99,28.57,50.48c6.82,31.47,17.11,43.65,21.74,32.77,4.93-10.89,27.27-43.08,17.12-49.9-10.31-6.82-67.44-33.35-67.44-33.35Z"/>
              <path class="cls-11" d="m139.41,976.44s1.31-2.76,4.07-7.26c2.75-4.35,6.52-10.72,12.03-17.69,5.52-7.11,12.33-15.09,20.75-22.62,4.2-3.77,8.7-7.41,13.63-10.89,4.93-3.34,10.14-6.39,15.67-8.98,5.79-2.33,11.3-4.22,16.68-6.24,5.51-2.18,10.87-4.07,15.95-6.09,10.01-4.22,19.42-8.57,26.39-13.5,3.62-2.47,6.53-5.06,9-7.53,2.17-2.61,3.77-5.38,4.35-7.84.58-2.32.71-4.5.43-5.79-.3-1.17-.3-1.89-.3-1.89,0,0,.15.58.58,1.89.45,1.29.73,3.47.45,6.22-.3,2.61-1.74,5.66-3.62,8.85-2.33,2.91-5.08,6.24-8.7,8.85-3.62,2.9-7.69,5.66-12.19,8.27-4.48,2.47-9.28,4.93-14.35,7.4-5.08,2.17-10.45,4.48-15.96,6.52-5.36,2.18-11.02,4.2-16.1,6.52-5.21,2.48-10.29,5.08-14.94,8.27-4.78,3.19-9.28,6.53-13.48,9.86-8.26,7.25-15.65,14.21-21.46,20.88-5.94,6.53-10.74,12.19-13.93,16.25-3.18,4.2-4.93,6.53-4.93,6.53Z"/>
              <path class="cls-11" d="m263.55,845.47s19.42,2.47,27.27,8.55c4.48,3.64,8.26,16.69,8.26,16.69,0,0-6.67-3.77-9.99-4.95,0,0,3.04,14.81-7.26,24.37,0,0,.88-18.85-12.61-24.37-13.5-5.21-15.52-20.88-15.52-20.88,0,0,5.51,5.81,12.76,5.81l-2.9-5.23Z"/>
              <path class="cls-11" d="m718.2,114.27s-53.08,113.12-63.23,146.62c-10.14,33.5-7.68-38.58-27.99-54.81-20.43-16.25,32.2-27.27,67.58-72.23,33.93-43.36,27.26-26.24,23.64-19.57Z"/>
              <g>
                <path class="cls-11" d="m563.31,198.24s1.02,1.6,2.47,4.22c1.6,2.47,3.77,6.09,6.39,10.44,5.23,8.7,11.9,20.15,18.71,31.75,3.33,5.81,6.96,11.46,10.14,16.83,3.34,5.23,6.68,10.01,9.28,14.36,1.46,2.17,2.91,3.77,4.22,5.51,1.16,1.59,2.17,2.9,3.18,4.2,1.75,2.32,2.61,3.92,2.61,3.92,0,0-1.31-1.16-3.62-3.04-1.01-1.02-2.32-2.18-3.92-3.62-1.44-1.31-3.62-2.91-5.06-4.8-1.75-1.89-3.64-3.91-5.38-6.24-1.89-2.32-3.91-4.63-5.66-7.4-3.76-5.06-7.68-10.87-11.17-16.68-3.18-5.79-6.8-11.75-9.28-17.39-2.9-5.81-5.36-11.17-7.1-15.96-2.03-4.63-3.34-8.7-4.35-11.6-.88-2.76-1.46-4.5-1.46-4.5Z"/>
                <path class="cls-11" d="m683.39,299.61s9-4.78,22.19-11.75c6.82-3.62,14.36-7.97,22.48-12.61,8.27-4.65,16.97-9.71,25.23-15.24,4.22-2.47,8.42-5.51,12.33-8.26,3.92-2.9,7.84-5.81,11.46-8.7,3.47-2.9,7.1-5.81,10.01-8.85,3.19-3.04,5.66-5.79,7.97-8.85,2.17-2.9,4.05-5.79,5.51-8.55,1.31-2.6,2.32-5.06,2.75-6.95.59-2.33.73-3.92,1.02-5.08v-1.89s.15.73.15,1.89c.13,1.16.43,2.9,0,5.08-.15,2.32-.88,5.06-1.89,8.11-1.02,2.76-2.61,6.1-4.8,9.28-1.89,3.34-4.48,6.82-7.53,10.01-2.91,3.49-6.1,6.67-9.73,9.86-7.1,6.39-15.37,12.47-23.92,17.98-8.55,5.51-17.41,10.59-25.81,14.79-8.57,4.35-16.68,7.97-23.64,11.03-6.97,2.9-13.05,4.93-17.11,6.37-4.22,1.6-6.68,2.32-6.68,2.32Z"/>
              </g>
            </g>
            <path class="cls-4" d="m1078.87,1570.88H286.62c-18.56,0-33.5-15.09-33.5-33.65s14.94-33.5,33.5-33.5h792.25c18.41,0,33.65,14.94,33.65,33.5s-15.24,33.65-33.65,33.65Z"/>
            <path class="cls-6" d="m1078.87,1503.73h-451.3c21.31,16.1,19.72,54.4-4.8,67.15h456.1c18.41,0,33.65-15.09,33.65-33.65s-15.24-33.5-33.65-33.5Z"/>
          </g>
          <g class="cls-58">
            <path class="cls-43" d="m600.73,482.64c24.07,16.96,1.46,50.31-10.89,67.57-11.15,15.67-23.63,30.61-35.67,45.69-6.39,8.12-22.77,23.78-22.19,35.37.3,5.81,31.9-.43,35.54-.86,13.48-1.89,26.67-.43,40.17,1.74,38.71,6.39,82.37,20.45,119.78,1.01,80.92-41.91,14.94-146.47-19.44-197.08-24.21-35.82-49.01-74.98-63.08-116.6-.58,4.22-1.74,8.27-3.33,12.04-1.74,22.19-7.97,44.22-15.95,63.37-10.59,24.8-25.38,47.43-46.41,64.54-7.11,5.81-14.81,10.59-22.91,14.79,15.37-.86,33.06.45,44.37,8.42Z"/>
          </g>
          <g class="cls-46">
            <path class="cls-40" d="m1117.73,757.31c-15.52-120.51-109.63-281.93-141.24-323.11-40.04-52.35-96.88-104.86-162.86-120.08-18.41-4.2-38.73-8.41-55.99-9.56,263.07,142.98,355.46,412.59,360.09,452.76Z"/>
          </g>
        </g>
        <g class="cls-54">
          <path class="cls-34" d="m718.05,23.78h-2.02s0,.3-.15.3c-5.95,5.94-12.9,10.87-20.17,15.52-40.45,31.32-103.54,85.7-124.56,110.93-23.94,28.42-17.41,33.65-7.84,47.71,0,0-66.28,14.08-183.3,91.95-31.62,21.16-53.22,38.57-57.72,44.08-.43.59-.58,1.02-.88,1.46v.58c-.13.43-.13.73-.13,1.02v.58c.13.43.28.71.43,1.16,0,.13.15.43.15.73.28.28.43.58.71,1.01,0,.28.3.43.45.73.28.28.58.73.86.86.15.45.45.58.58.88.45.43.73.88,1.31,1.31.3.15.45.28.58.58.73.43,1.6,1.16,2.33,1.74.13.3.28.3.43.43.73.58,1.46,1.02,2.17,1.75.45,0,.58.28.88.43.73.43,1.46.86,2.17,1.46l.88.58c.88.43,1.59.86,2.47,1.44.3.15.58.3.73.45,1.01.58,2.03,1.16,3.19,1.74l.13.13c21.03,11.32,50.48,21.9,50.48,21.9C206.26,505.1,71.97,730.62,64,744.11c-.28.43-.43.73-.43.73-66.86,10.01-71.94,34.94-55.99,98.75,8.85,35.39,25.82,66.57,39.31,87.6-5.94-22.63-9.58-45.4-9.28-68.01.28-21.33,5.23-53.22,29.43-60.62,15.96-5.23,31.91-.73,47.58,3.19,20.43,5.06,42.92,8.11,64.24,6.8,142.27-8.26,159.37-175.62,191.29-281.49,15.95-53.08,38.42-108.33,85.55-141.24,31.04-21.9,68.31-36.7,106.74-36.4,32.2.28,81.5-.15,76.57-45.4-5.08-48.72-50.33-99.2-8.27-143.14,24.52-25.53,59.91-41.63,80.21-70.91,19.29-27.99,29.86-59.46,40.32-91.37-11.03,6.39-22.2,13.63-33.22,21.18Z"/>
        </g>
        <g class="cls-52">
          <g class="cls-67">
            <path class="cls-17" d="m357.23,1820.18c-51.19,12.62-119.93,89.62-130.52,179.82h195.79c.43-56.85,9.43-137.62,51.92-179.82h-117.18Z"/>
          </g>
        </g>
      </g>
    </g>
  </g>
</svg>