<?xml version="1.0" encoding="UTF-8"?>
<svg xmlns="http://www.w3.org/2000/svg" xmlns:xlink="http://www.w3.org/1999/xlink" viewBox="0 0 1358.18 1998.71">
  <defs>
    <style>
      .cls-1 {
        filter: url(#luminosity-noclip-11);
      }

      .cls-2 {
        fill: url(#linear-gradient-12);
      }

      .cls-2, .cls-3, .cls-4, .cls-5, .cls-6, .cls-7, .cls-8, .cls-9, .cls-10, .cls-11, .cls-12, .cls-13, .cls-14, .cls-15, .cls-16, .cls-17, .cls-18, .cls-19, .cls-20, .cls-21, .cls-22, .cls-23, .cls-24, .cls-25, .cls-26, .cls-27, .cls-28, .cls-29, .cls-30, .cls-31, .cls-32, .cls-33, .cls-34, .cls-35, .cls-36, .cls-37, .cls-38, .cls-39, .cls-40, .cls-41 {
        stroke-width: 0px;
      }

      .cls-3 {
        fill: url(#linear-gradient-17);
      }

      .cls-4 {
        fill: url(#linear-gradient-19);
      }

      .cls-5 {
        fill: url(#linear-gradient);
      }

      .cls-42 {
        mask: url(#mask-10);
      }

      .cls-43 {
        filter: url(#luminosity-noclip-7);
      }

      .cls-6 {
        fill: url(#linear-gradient-33);
      }

      .cls-6, .cls-13, .cls-22, .cls-44, .cls-33, .cls-35, .cls-38, .cls-45 {
        opacity: .5;
      }

      .cls-6, .cls-13, .cls-22, .cls-33, .cls-38, .cls-45 {
        mix-blend-mode: screen;
      }

      .cls-7 {
        fill: url(#linear-gradient-21);
      }

      .cls-8 {
        fill: url(#linear-gradient-6);
      }

      .cls-46 {
        filter: url(#luminosity-noclip-5);
      }

      .cls-9 {
        fill: url(#linear-gradient-36);
      }

      .cls-9, .cls-19, .cls-24, .cls-26, .cls-44, .cls-35, .cls-36, .cls-37 {
        mix-blend-mode: multiply;
      }

      .cls-47 {
        mask: url(#mask-2);
      }

      .cls-48 {
        isolation: isolate;
      }

      .cls-10 {
        fill: url(#linear-gradient-15);
      }

      .cls-11 {
        fill: url(#linear-gradient-11);
      }

      .cls-49 {
        mask: url(#mask-3);
      }

      .cls-12 {
        fill: url(#linear-gradient-5);
      }

      .cls-13 {
        fill: url(#linear-gradient-31);
      }

      .cls-50 {
        mask: url(#mask-9);
      }

      .cls-14 {
        fill: #aeaeaf;
      }

      .cls-51 {
        mask: url(#mask-5);
      }

      .cls-15 {
        fill: url(#linear-gradient-13);
      }

      .cls-16 {
        fill: url(#linear-gradient-23);
      }

      .cls-17 {
        fill: url(#linear-gradient-25);
      }

      .cls-18 {
        fill: url(#linear-gradient-16);
      }

      .cls-19 {
        fill: url(#linear-gradient-30);
      }

      .cls-20 {
        fill: url(#linear-gradient-22);
      }

      .cls-21 {
        fill: #b9b8b9;
      }

      .cls-22 {
        fill: url(#linear-gradient-3);
      }

      .cls-23 {
        fill: url(#linear-gradient-20);
      }

      .cls-24 {
        fill: url(#linear-gradient-32);
      }

      .cls-25 {
        fill: url(#linear-gradient-14);
      }

      .cls-52 {
        filter: url(#luminosity-noclip-9);
      }

      .cls-53 {
        mask: url(#mask-8);
      }

      .cls-26 {
        fill: url(#linear-gradient-34);
      }

      .cls-27 {
        fill: url(#linear-gradient-7);
      }

      .cls-54 {
        mask: url(#mask-4);
      }

      .cls-28 {
        fill: url(#linear-gradient-9);
      }

      .cls-55 {
        mask: url(#mask-6);
      }

      .cls-29 {
        fill: url(#linear-gradient-8);
      }

      .cls-30 {
        fill: url(#linear-gradient-24);
      }

      .cls-31 {
        fill: url(#linear-gradient-26);
      }

      .cls-32 {
        fill: url(#linear-gradient-18);
      }

      .cls-33 {
        fill: url(#linear-gradient-28);
      }

      .cls-56 {
        filter: url(#luminosity-noclip);
      }

      .cls-57 {
        mask: url(#mask-1);
      }

      .cls-58 {
        mask: url(#mask);
      }

      .cls-34 {
        fill: url(#linear-gradient-29);
      }

      .cls-35 {
        fill: #d0d0d1;
      }

      .cls-36 {
        fill: url(#linear-gradient-2);
      }

      .cls-37 {
        fill: url(#linear-gradient-27);
      }

      .cls-59 {
        mask: url(#mask-7);
      }

      .cls-38 {
        fill: url(#linear-gradient-35);
      }

      .cls-39 {
        fill: url(#linear-gradient-10);
      }

      .cls-40 {
        fill: url(#linear-gradient-4);
      }

      .cls-60 {
        mask: url(#mask-11);
      }

      .cls-41 {
        fill: url(#linear-gradient-37);
      }

      .cls-61 {
        filter: url(#luminosity-noclip-3);
      }
    </style>
    <linearGradient id="linear-gradient" x1="1967.11" y1="1660.23" x2="2691.14" y2="1660.23" gradientTransform="translate(-1725.62)" gradientUnits="userSpaceOnUse">
      <stop offset="0" stop-color="#e2e2e2"/>
      <stop offset=".06" stop-color="#d7d7d7"/>
      <stop offset=".19" stop-color="#c8c8c8"/>
      <stop offset=".29" stop-color="#c3c3c3"/>
      <stop offset=".64" stop-color="#b9b8b9"/>
    </linearGradient>
    <filter id="luminosity-noclip" x="280.48" y="1545.81" width="174.54" height="229.28" color-interpolation-filters="sRGB" filterUnits="userSpaceOnUse">
      <feFlood flood-color="#fff" result="bg"/>
      <feBlend in="SourceGraphic" in2="bg"/>
    </filter>
    <filter id="luminosity-noclip-2" x="280.48" y="-9187.71" width="174.54" height="32766" color-interpolation-filters="sRGB" filterUnits="userSpaceOnUse">
      <feFlood flood-color="#fff" result="bg"/>
      <feBlend in="SourceGraphic" in2="bg"/>
    </filter>
    <mask id="mask-1" x="280.48" y="-9187.71" width="174.54" height="32766" maskUnits="userSpaceOnUse"/>
    <linearGradient id="linear-gradient-2" x1="2093.37" y1="1566.29" x2="2093.37" y2="1805.81" gradientTransform="translate(-1725.62)" gradientUnits="userSpaceOnUse">
      <stop offset=".1" stop-color="#fff"/>
      <stop offset=".44" stop-color="#999"/>
      <stop offset=".93" stop-color="#000"/>
    </linearGradient>
    <mask id="mask" x="280.48" y="1545.81" width="174.54" height="229.28" maskUnits="userSpaceOnUse">
      <g class="cls-56">
        <g class="cls-57">
          <path class="cls-36" d="m385.16,1774.08s68.38,1.01,68.51,1.01c2.22,0,1.04-42.31.92-46.53-.53-19.41-2.35-39.57-11.75-56.38-9.41-17.1-24.94-28.41-34.2-45.2-10.57-19.57-10.18-44.49-5.75-66.1.79-3.47,3.26-13.03,7.96-13.03l-129.06-2.03c0,17.97-3.01,27.53,0,44.92,6.27,37.53,25.44,54.06,55.32,69.13,23.37,12.04,36.68,36.52,43.72,63.04,1.31,4.93,14.22,51.3,4.3,51.17Z"/>
        </g>
      </g>
    </mask>
    <linearGradient id="linear-gradient-3" x1="2093.37" y1="1566.29" x2="2093.37" y2="1805.81" gradientTransform="translate(-1725.62)" gradientUnits="userSpaceOnUse">
      <stop offset=".1" stop-color="#fff"/>
      <stop offset=".93" stop-color="#fff"/>
    </linearGradient>
    <linearGradient id="linear-gradient-4" x1="1861.38" y1="1794.15" x2="2432.53" y2="1794.15" gradientTransform="translate(-1725.62)" gradientUnits="userSpaceOnUse">
      <stop offset="0" stop-color="#e2e2e2"/>
      <stop offset=".09" stop-color="#d7d7d7"/>
      <stop offset=".27" stop-color="#c8c8c8"/>
      <stop offset=".42" stop-color="#c3c3c3"/>
      <stop offset=".85" stop-color="#b9b8b9"/>
    </linearGradient>
    <linearGradient id="linear-gradient-5" x1="1853.32" y1="1908.78" x2="2826.7" y2="1908.78" xlink:href="#linear-gradient-4"/>
    <linearGradient id="linear-gradient-6" x1="1979.91" y1="145.16" x2="2086.44" y2="274.67" gradientTransform="translate(-1725.62)" gradientUnits="userSpaceOnUse">
      <stop offset=".09" stop-color="#e2e2e2"/>
      <stop offset=".18" stop-color="#ddd"/>
      <stop offset=".99" stop-color="#b9b8b9"/>
    </linearGradient>
    <linearGradient id="linear-gradient-7" x1="2059.62" y1="106.83" x2="2128.32" y2="250.08" xlink:href="#linear-gradient-6"/>
    <linearGradient id="linear-gradient-8" x1="2130.7" y1="68.32" x2="2199.88" y2="212.58" xlink:href="#linear-gradient-6"/>
    <linearGradient id="linear-gradient-9" x1="2201.2" y1="29.94" x2="2270.22" y2="173.85" xlink:href="#linear-gradient-6"/>
    <linearGradient id="linear-gradient-10" x1="2339.9" y1="15.66" x2="2318.54" y2="190.04" xlink:href="#linear-gradient-6"/>
    <linearGradient id="linear-gradient-11" x1="2557.86" y1="55.37" x2="2500.34" y2="234.31" gradientTransform="translate(-1725.62)" gradientUnits="userSpaceOnUse">
      <stop offset=".09" stop-color="#e2e2e2"/>
      <stop offset=".52" stop-color="#c3c3c3"/>
      <stop offset=".85" stop-color="#b9b8b9"/>
    </linearGradient>
    <linearGradient id="linear-gradient-12" x1="2670.14" y1="118.96" x2="2569.64" y2="263.54" xlink:href="#linear-gradient-11"/>
    <linearGradient id="linear-gradient-13" x1="2767.37" y1="192.32" x2="2664.71" y2="340" xlink:href="#linear-gradient-11"/>
    <linearGradient id="linear-gradient-14" x1="2865.28" y1="311.84" x2="2711.89" y2="413.04" xlink:href="#linear-gradient-11"/>
    <linearGradient id="linear-gradient-15" x1="2930.4" y1="419.07" x2="2773.11" y2="522.84" xlink:href="#linear-gradient-11"/>
    <linearGradient id="linear-gradient-16" x1="3045.57" y1="611.45" x2="2889.01" y2="714.74" xlink:href="#linear-gradient-11"/>
    <linearGradient id="linear-gradient-17" x1="3061.57" y1="783.03" x2="2877.24" y2="824.72" xlink:href="#linear-gradient-11"/>
    <linearGradient id="linear-gradient-18" x1="3039.2" y1="936.33" x2="2842.9" y2="884.96" xlink:href="#linear-gradient-11"/>
    <linearGradient id="linear-gradient-19" x1="2878.4" y1="1036.21" x2="2752.15" y2="951.73" xlink:href="#linear-gradient-11"/>
    <linearGradient id="linear-gradient-20" x1="2753.41" y1="1129.67" x2="2646.79" y2="1016.59" xlink:href="#linear-gradient-11"/>
    <linearGradient id="linear-gradient-21" x1="2727.08" y1="1225.31" x2="2526.93" y2="1177.79" xlink:href="#linear-gradient-11"/>
    <linearGradient id="linear-gradient-22" x1="2742.27" y1="1254.57" x2="2565.1" y2="1355.95" xlink:href="#linear-gradient-11"/>
    <linearGradient id="linear-gradient-23" x1="2814.93" y1="1385.99" x2="2633.15" y2="1490" xlink:href="#linear-gradient-11"/>
    <linearGradient id="linear-gradient-24" x1="2984.66" y1="509.7" x2="2827.51" y2="613.38" xlink:href="#linear-gradient-11"/>
    <linearGradient id="linear-gradient-25" x1="2453.32" y1="31.01" x2="2431.88" y2="206" xlink:href="#linear-gradient-6"/>
    <linearGradient id="linear-gradient-26" x1="2113.03" y1="423.19" x2="2628.81" y2="1407.04" xlink:href="#linear-gradient-11"/>
    <filter id="luminosity-noclip-3" x="323.11" y="678.42" width="495.97" height="756.24" color-interpolation-filters="sRGB" filterUnits="userSpaceOnUse">
      <feFlood flood-color="#fff" result="bg"/>
      <feBlend in="SourceGraphic" in2="bg"/>
    </filter>
    <filter id="luminosity-noclip-4" x="323.11" y="-9187.71" width="495.97" height="32766" color-interpolation-filters="sRGB" filterUnits="userSpaceOnUse">
      <feFlood flood-color="#fff" result="bg"/>
      <feBlend in="SourceGraphic" in2="bg"/>
    </filter>
    <mask id="mask-3" x="323.11" y="-9187.71" width="495.97" height="32766" maskUnits="userSpaceOnUse"/>
    <linearGradient id="linear-gradient-27" x1="2296.72" y1="674.72" x2="2296.72" y2="1450.05" xlink:href="#linear-gradient-2"/>
    <mask id="mask-2" x="323.11" y="678.42" width="495.97" height="756.24" maskUnits="userSpaceOnUse">
      <g class="cls-61">
        <g class="cls-49">
          <path class="cls-37" d="m532.51,1084.36c30.27-34.92,61.86-68.12,88.86-100.43,77.12-92.04,152.94-188.57,197.71-305.51-24.53,63.76-107.79,131.44-153.34,179.56-30.27,32.17-62.5,62.32-94.74,92.18-30.53,28.26-60.41,57.39-90.43,86.37-27.66,26.67-55.86,53.19-81.69,82.19-25.46,28.98-50.51,61.01-65.39,98.39-17.36,43.2-12.4,92.9,10.84,132.47,17.48,30.14,42.53,54.06,59.24,85.08-5.75-55.22-1.43-114.5,14.35-166.1,21.14-68.4,66.56-128.55,114.59-184.2Z"/>
        </g>
      </g>
    </mask>
    <linearGradient id="linear-gradient-28" x1="2296.72" y1="674.72" x2="2296.72" y2="1450.05" xlink:href="#linear-gradient-3"/>
    <linearGradient id="linear-gradient-29" x1="1831.19" y1="1536.24" x2="2597.18" y2="1536.24" gradientTransform="translate(-1725.62)" gradientUnits="userSpaceOnUse">
      <stop offset="0" stop-color="#e2e2e2"/>
      <stop offset=".06" stop-color="#dcdcdc"/>
      <stop offset=".36" stop-color="#c2c2c3"/>
      <stop offset=".63" stop-color="#b3b3b4"/>
      <stop offset=".85" stop-color="#aeaeaf"/>
    </linearGradient>
    <filter id="luminosity-noclip-5" x="478.59" y="319.27" width="210.83" height="323.3" color-interpolation-filters="sRGB" filterUnits="userSpaceOnUse">
      <feFlood flood-color="#fff" result="bg"/>
      <feBlend in="SourceGraphic" in2="bg"/>
    </filter>
    <filter id="luminosity-noclip-6" x="478.59" y="-9187.71" width="210.83" height="32766" color-interpolation-filters="sRGB" filterUnits="userSpaceOnUse">
      <feFlood flood-color="#fff" result="bg"/>
      <feBlend in="SourceGraphic" in2="bg"/>
    </filter>
    <mask id="mask-5" x="478.59" y="-9187.71" width="210.83" height="32766" maskUnits="userSpaceOnUse"/>
    <linearGradient id="linear-gradient-30" x1="2309.62" y1="303.09" x2="2309.62" y2="702.05" xlink:href="#linear-gradient-2"/>
    <mask id="mask-4" x="478.59" y="319.27" width="210.83" height="323.3" maskUnits="userSpaceOnUse">
      <g class="cls-46">
        <g class="cls-51">
          <path class="cls-19" d="m540.46,482.18c21.66,17.1,1.44,50.3-9.53,67.54-10.17,15.79-21.39,30.42-32.35,45.8-5.61,7.97-20.5,23.76-19.98,35.22.4,5.79,28.85-.45,32.11-.88,12-1.74,23.88-.43,36.01,1.74,34.97,6.38,74.26,20.58,107.92,1.02,72.82-41.9,13.44-146.39-17.36-196.97-21.92-35.65-44.23-74.93-56.89-116.38-.52,4.21-1.58,8.27-3.14,11.89-1.43,22.17-7.18,44.34-14.35,63.47-9.53,24.65-22.84,47.1-41.63,64.35-6.4,5.8-13.31,10.58-20.62,14.8,13.7-.88,29.63.43,39.8,8.4Z"/>
        </g>
      </g>
    </mask>
    <linearGradient id="linear-gradient-31" x1="2309.62" y1="303.09" x2="2309.62" y2="702.05" xlink:href="#linear-gradient-3"/>
    <filter id="luminosity-noclip-7" x="681.79" y="304.35" width="324.04" height="452.17" color-interpolation-filters="sRGB" filterUnits="userSpaceOnUse">
      <feFlood flood-color="#fff" result="bg"/>
      <feBlend in="SourceGraphic" in2="bg"/>
    </filter>
    <filter id="luminosity-noclip-8" x="681.79" y="-9187.71" width="324.04" height="32766" color-interpolation-filters="sRGB" filterUnits="userSpaceOnUse">
      <feFlood flood-color="#fff" result="bg"/>
      <feBlend in="SourceGraphic" in2="bg"/>
    </filter>
    <mask id="mask-7" x="681.79" y="-9187.71" width="324.04" height="32766" maskUnits="userSpaceOnUse"/>
    <linearGradient id="linear-gradient-32" x1="2451.28" y1="327.08" x2="2769.88" y2="719.87" gradientTransform="translate(-1725.62)" gradientUnits="userSpaceOnUse">
      <stop offset=".1" stop-color="#fff"/>
      <stop offset=".11" stop-color="#f9f9f9"/>
      <stop offset=".25" stop-color="#b8b8b8"/>
      <stop offset=".38" stop-color="gray"/>
      <stop offset=".51" stop-color="#525252"/>
      <stop offset=".63" stop-color="#2e2e2e"/>
      <stop offset=".74" stop-color="#141414"/>
      <stop offset=".84" stop-color="#050505"/>
      <stop offset=".93" stop-color="#000"/>
    </linearGradient>
    <mask id="mask-6" x="681.79" y="304.35" width="324.04" height="452.17" maskUnits="userSpaceOnUse">
      <g class="cls-43">
        <g class="cls-59">
          <path class="cls-24" d="m1005.83,756.52c-13.96-120.14-98.79-281.46-127.24-322.76-36.01-52.03-87.17-104.64-146.42-120-16.57-4.2-34.84-8.4-50.38-9.41,236.73,142.89,319.73,412.32,324.04,452.17Z"/>
        </g>
      </g>
    </mask>
    <linearGradient id="linear-gradient-33" x1="2451.28" y1="327.08" x2="2769.88" y2="719.87" gradientTransform="translate(-1725.62)" gradientUnits="userSpaceOnUse">
      <stop offset=".1" stop-color="#fff"/>
      <stop offset=".93" stop-color="#fff"/>
    </linearGradient>
    <filter id="luminosity-noclip-9" x="0" y="2.6" width="676.05" height="927.85" color-interpolation-filters="sRGB" filterUnits="userSpaceOnUse">
      <feFlood flood-color="#fff" result="bg"/>
      <feBlend in="SourceGraphic" in2="bg"/>
    </filter>
    <filter id="luminosity-noclip-10" x="0" y="-9187.71" width="676.05" height="32766" color-interpolation-filters="sRGB" filterUnits="userSpaceOnUse">
      <feFlood flood-color="#fff" result="bg"/>
      <feBlend in="SourceGraphic" in2="bg"/>
    </filter>
    <mask id="mask-9" x="0" y="-9187.71" width="676.05" height="32766" maskUnits="userSpaceOnUse"/>
    <linearGradient id="linear-gradient-34" x1="2016.3" y1="398.06" x2="2254.02" y2="635.79" xlink:href="#linear-gradient-2"/>
    <mask id="mask-8" x="0" y="2.6" width="676.05" height="927.85" maskUnits="userSpaceOnUse">
      <g class="cls-52">
        <g class="cls-50">
          <path class="cls-26" d="m646.16,23.61c-.64,0-1.16.15-1.82.15,0,0-.13.15-.27.3-5.21,5.94-11.48,10.72-17.88,15.21-36.67,31.74-93.3,85.94-112.22,111.16-21.66,28.41-15.8,33.48-7.04,47.68,0,0-59.64,13.77-165.09,91.75-28.45,21.3-47.89,38.56-51.94,44.2-.25.59-.52,1.02-.65,1.45v.43c-.12.45-.12.88-.12,1.17v.58c.12.28.12.71.25,1.01.13.28.13.43.4.73,0,.28.12.58.39,1.01.13.3.25.43.39.73.39.3.52.73.91,1.16.13.3.27.43.53.58.39.43.64,1.02,1.16,1.31.13.3.4.43.53.58.64.58,1.3,1.31,2.08,1.88.13.15.25.3.39.3.65.58,1.31,1.16,1.96,1.59.12.3.52.43.78.58.52.43,1.31,1.01,1.96,1.6l.77.43c.65.43,1.56.86,2.22,1.44.13.15.4.45.65.45.91.58,1.83,1.16,2.74,1.74l.39.28c18.8,11.31,45.15,21.89,45.15,21.89C185.64,504.65,64.8,730.15,57.61,743.48c-.39.58-.39.73-.39.73-60.29,10-64.73,35.07-50.37,98.84,7.95,35.22,23.23,66.53,35.36,87.4-5.48-22.47-8.61-45.22-8.35-68.12.27-21.16,4.7-53.04,26.5-60.58,14.35-4.78,28.57-.58,42.67,3.34,18.53,5.36,38.75,8.12,57.81,6.95,128.02-8.4,143.55-175.64,172.26-281.31,14.22-53.04,34.58-108.4,76.99-141.3,27.93-21.59,61.47-36.67,96.05-36.37,28.97.28,73.2,0,68.9-45.22-4.57-48.99-45.27-99.14-7.43-143.2,21.92-25.36,53.76-41.58,72.03-71.01,17.49-27.83,26.89-59.42,36.41-91.02-9.92,6.38-19.96,13.49-29.89,21.01Z"/>
        </g>
      </g>
    </mask>
    <linearGradient id="linear-gradient-35" x1="2016.3" y1="398.06" x2="2254.02" y2="635.79" xlink:href="#linear-gradient-3"/>
    <filter id="luminosity-noclip-11" x="204.04" y="1818.86" width="222.75" height="179.86" color-interpolation-filters="sRGB" filterUnits="userSpaceOnUse">
      <feFlood flood-color="#fff" result="bg"/>
      <feBlend in="SourceGraphic" in2="bg"/>
    </filter>
    <filter id="luminosity-noclip-12" x="204.04" y="-9187.71" width="222.75" height="32766" color-interpolation-filters="sRGB" filterUnits="userSpaceOnUse">
      <feFlood flood-color="#fff" result="bg"/>
      <feBlend in="SourceGraphic" in2="bg"/>
    </filter>
    <mask id="mask-11" x="204.04" y="-9187.71" width="222.75" height="32766" maskUnits="userSpaceOnUse"/>
    <linearGradient id="linear-gradient-36" x1="2038.06" y1="2012.92" x2="2047.18" y2="1693.9" gradientTransform="translate(-1725.62)" gradientUnits="userSpaceOnUse">
      <stop offset=".08" stop-color="#fff"/>
      <stop offset=".15" stop-color="#dbdbdb"/>
      <stop offset=".27" stop-color="#999"/>
      <stop offset=".39" stop-color="#626262"/>
      <stop offset=".5" stop-color="#383838"/>
      <stop offset=".6" stop-color="#191919"/>
      <stop offset=".68" stop-color="#060606"/>
      <stop offset=".74" stop-color="#000"/>
    </linearGradient>
    <mask id="mask-10" x="204.04" y="1818.86" width="222.75" height="179.86" maskUnits="userSpaceOnUse">
      <g class="cls-1">
        <g class="cls-60">
          <path class="cls-9" d="m321.49,1818.86c-46.08,12.61-107.93,89.56-117.45,179.86h176.03c.52-56.94,8.62-137.68,46.72-179.86h-105.3Z"/>
        </g>
      </g>
    </mask>
    <linearGradient id="linear-gradient-37" x1="2038.06" y1="2012.92" x2="2047.18" y2="1693.9" gradientTransform="translate(-1725.62)" gradientUnits="userSpaceOnUse">
      <stop offset=".08" stop-color="#fff"/>
      <stop offset=".74" stop-color="#fff"/>
    </linearGradient>
  </defs>
  <g class="cls-48">
    <g id="Capa_1" data-name="Capa 1">
      <g>
        <g>
          <g>
            <path class="cls-5" d="m614.45,1541.75l-360.18-7.39v64.93c0,14.5,15.8,45.8,48.82,64.79,32.89,19.13,36.27,54.93,19.83,75.5-16.44,20.44-23.23,22.77-23.23,46.53h629.39c0-23.76-6.91-26.09-23.36-46.53-16.44-20.57-13.04-56.37,19.96-75.5,32.89-19,48.68-50.3,48.68-64.79v-64.93l-359.92,7.39Z"/>
            <g class="cls-58">
              <path class="cls-22" d="m385.16,1774.08s68.38,1.01,68.51,1.01c2.22,0,1.04-42.31.92-46.53-.53-19.41-2.35-39.57-11.75-56.38-9.41-17.1-24.94-28.41-34.2-45.2-10.57-19.57-10.18-44.49-5.75-66.1.79-3.47,3.26-13.03,7.96-13.03l-129.06-2.03c0,17.97-3.01,27.53,0,44.92,6.27,37.53,25.44,54.06,55.32,69.13,23.37,12.04,36.68,36.52,43.72,63.04,1.31,4.93,14.22,51.3,4.3,51.17Z"/>
            </g>
            <path class="cls-35" d="m774.45,1538.57c-27.01,65.94-34.2,106.08-102.17,123.33-35.89,9.13-202.02,8.55-255.92,5.51-54.16-3.04-125.8,11.59-156.99-49.7,7.04,15.06,21.53,33.47,43.72,46.38,32.89,19.13,36.27,54.93,19.83,75.5-16.44,20.44-23.23,22.77-23.23,46.53h629.39c0-23.76-6.91-26.09-23.36-46.53-16.44-20.57-13.04-56.37,19.96-75.5,32.89-19,48.68-50.3,48.68-64.79v-64.93l-199.93,4.21Z"/>
            <g>
              <path class="cls-40" d="m979.33,1807.56c0-24.07-16.84-43.48-37.58-43.48H287.02c-20.74,0-37.71,19.41-37.71,43.48,0,3.75.52,13.03,1.31,16.67l728.18-1.31c.91-3.62.52-11.61.52-15.36Z"/>
              <g class="cls-44">
                <path class="cls-21" d="m978.94,1801.03H249.84c-.25,2.18-.52,4.2-.52,6.53,0,3.75.52,13.03,1.31,16.67l728.18-1.31c.91-3.62.52-11.61.52-15.36,0-2.33-.13-4.35-.39-6.53Z"/>
              </g>
              <path class="cls-12" d="m1101.08,1998c0-98.85-55.71-179.14-124.22-179.14H251.93c-68.65,0-124.24,80.29-124.24,179.14v.71h973.38v-.71Z"/>
              <path class="cls-35" d="m976.86,1818.86h-161.69c-53.89,70.58-175.66,114.07-232.55,133.77-63.3,21.89-129.72,37.98-196.93,46.08h715.4v-.71c0-98.85-55.71-179.14-124.22-179.14Z"/>
            </g>
            <path class="cls-14" d="m354.76,305.65s-71.91-88.54-99.97-119.56c-27.92-31.02,12.01-52.18,72.95-79.86,52.33-23.91,106.76-43.48,161.95-57.83,86.79-22.31,183.22-34.64,271.58-17.24,83.52,16.53,157.9,61.89,224.06,119.57,118.1,102.91,211.02,225.22,275.88,376.24,30.8,72.45,58.72,153.91,73.6,232.32,24.65,131.16,38.5,149.27-3.66,174.5-56.38,33.91-115.48,63.04-170.82,99.85-53.37,35.8-113.15,71.31-156.6,122.04-45.68,53.47,29.89,142.32,57.94,183.62,13.83,20.44,18.27,33.91,3.53,55.22-11.09,16.09-25.06,30.14-37.71,44.49-14.49,16.52-57.82,52.17-57.82,77.96,0,24.35-64.6-47.24-64.6-42.61s-129.06-178.4-129.06-178.4c0,0,17.88-115.95,112.62-231.74,94.74-115.95,264.91-199.71,273.13-228.7,8.23-29-16.3-309.58-212.71-472.77-196.4-163.04-266.34-89.99-285.65-164.64-19.06-74.63-266.1,87.1-308.63,107.54Z"/>
            <g>
              <path class="cls-8" d="m325,197.98c-13.04-16.24-23.49-37.4-37.44-52.48-6.92-7.24-13.84-9.41-20.89-7.39-21.14,14.78-28.18,29.58-11.88,47.98,28.06,31.02,99.97,119.56,99.97,119.56,6.27-3.04,17.23-9.13,31.19-17.24-9.8-15.64-50.38-76.8-60.95-90.42Z"/>
              <path class="cls-27" d="m399.4,188.11c-9.14-21.88-18.92-43.47-26.36-66.22-4.7-14.65-8.09-28.41-22.84-25.66-7.56,3.47-15.01,6.66-22.45,10-.25.15-.52.28-.78.43-2.35,2.03-4.44,3.92-6,6.53-3.92,13.05,2.61,28.54,7.3,42.31,6.01,18.27,12.79,36.09,21.02,53.49,4.56,9.85,9.65,19.41,14.74,29.13,10.7,14.78,20.37,30.29,28.06,46.66,12-6.96,25.96-15.06,41.11-23.48-15.53-21.01-23.75-48.54-33.8-73.19Z"/>
              <path class="cls-29" d="m464.77,112.03c-4.44-16.81-7.95-54.21-30.67-46.53-7.56,2.46-16.18,7.67-24.54,8.25-5.08,3.64-9.78,7.98-11.09,13.77-1.95,10.28-.65,20.01,1.44,30.01,4.3,21.15,9.65,42.16,16.7,62.32,8.74,25.36,19.31,49.7,31.31,73.05,15.02-8.41,30.8-16.96,46.85-25.23-9.65-38.69-19.96-77.1-30.01-115.64Z"/>
              <path class="cls-28" d="m544.25,123.91c-.92-22.75.25-48.97-5.49-70.86-2.08-8.4-5.87-12.17-10.57-13.48-8.99,1.88-18.13,3.77-27.14,5.94-9.78,7.11-16.96,16.81-16.96,30.72,0,20.15,5.6,40.01,10.05,59.42,6.25,27.69,12.25,55.52,19.04,82.9,10.97-5.51,21.8-10.43,32.37-15.06-.13-26.67-.39-53.06-1.3-79.58Z"/>
              <path class="cls-39" d="m632.33,178.7c2.1-17.97,3.53-35.8,4.84-53.77,1.56-21.59,6-43.63,5.48-65.51-.4-11.03-.92-28.7-10.97-34.94-17.09,1.16-34.18,3.04-51.15,5.51-7.83,7.84-8.99,20.01-9.26,31.89-.79,22.45,1.43,44.77,3.13,67.24,1.58,20.14,3.27,40.43,6.53,60.28,19.7-6.81,37.44-10.72,51.41-10.72Z"/>
              <path class="cls-11" d="m840.74,153.04c10.96-26.37,30.8-68.12,4.82-91.88-2.34-2.32-5.09-4.2-7.7-6.08-7.31-3.04-14.74-6.1-22.18-8.56-3.13-.43-6.4-.58-9.53-.43-14.1,3.62-20.1,19.43-23.61,34.36-6.13,26.22-10.84,53.19-15.54,79.71-5.21,30.14-8.99,60.73-13.83,90.87,12.92,3.47,27.41,8.4,43.72,15.06,14.08-37.81,28.45-75.64,43.85-113.04Z"/>
              <path class="cls-2" d="m936.26,203.76c10.05-16.81,38.11-45.95,25.84-68.12-1.56-3.19-3.65-6.23-5.87-8.98-12.27-9.57-24.8-18.7-37.72-27.1-.91-.58-1.95-1.02-2.87-1.31-18.27-5.65-27.14,7.67-33.66,24.21-10.32,25.36-20.89,50.58-31.58,75.64-10.84,25.81-21.93,51.6-33.29,77.11,17.63,8.4,37.07,19.26,58.6,33.18,19.58-35.37,40.2-70.29,60.55-104.64Z"/>
              <path class="cls-15" d="m963.01,374.92c14.23-18.25,28.45-36.37,42.68-54.5,14.74-18.68,30.15-36.66,45.15-55.06,8.74-10.88,17.75-25.66,9.53-40.16-1.44-2.6-3.01-5.06-4.57-7.52-13.06-13.49-26.37-26.52-39.94-39.43-.39,0-.64,0-1.04-.13-12.91-3.04-24.13,4.35-32.62,14.48-13.31,16.09-24.27,35.37-35.49,53.34-13.31,21.31-26.1,42.76-38.63,64.5-2.74,4.63-5.48,9.41-8.22,14.34,15.39,11.03,31.84,23.48,49.19,37.98,4.7,4.05,9.41,8.27,13.97,12.17Z"/>
              <path class="cls-25" d="m1037.66,458.27c20.62-18.7,42.28-35.94,62.26-55.52,15.26-14.78,37.71-32.75,46.84-53.32,3.27-7.39,3.14-14.78.92-22.32-13.83-19-28.2-37.25-43.07-55.07-.25-.15-.39-.3-.52-.45-15.8-9.85-27.66,1.45-37.84,14.35-17.36,22.17-35.76,43.48-53.12,65.51-10.57,13.49-21.26,27.25-31.31,41.32,20.74,20.57,39.27,42.74,55.84,65.51Z"/>
              <path class="cls-10" d="m1154.59,494.92c12.53-11.44,26.63-22.45,37.59-35.94,5.87-6.95,13.04-16.09,14.35-25.94,1.18-9.56-2.22-17.1-6.27-24.49-4.56-6.38-9.65-12.75-16.05-14.2-10.7-2.61-20.87.73-30.27,6.52-15.93,9.57-30.67,22.19-44.63,34.79-18.15,16.52-35.37,34.36-50.63,53.62,11.75,19,22.44,37.98,31.83,57.11,22.45-15.36,43.72-32.9,64.08-51.45Z"/>
              <path class="cls-18" d="m1171.81,743.34c19.32-4.35,37.98-9.85,56.51-17.69,14.74-5.94,29.23-12.6,43.07-21.01,9.92-5.79,28.97-13.48,31.19-27.53,2.74-17.54-3.39-33.48-6.92-50-1.43-7.39-3.39-21.16-10.44-24.78-.92-.45-1.56-.88-2.49-1.16-20.22-2.61-42.01,10.28-59.37,19.13-19.84,9.99-39.41,19.99-58.6,31.15-9.14,5.37-18.01,11.74-27.01,17.69,7.95,27.96,13.83,54.05,17.75,76.95,6.25-1.59,12.91-2.17,16.3-2.75Z"/>
              <path class="cls-3" d="m1144.42,855.23c17.75,1.74,34.84,5.51,53.24,3.32,20.87-2.46,41.63-4.2,62.63-5.65,18.15-1.29,36.68-2.02,54.68-4.78,7.83-1.01,17.49-2.32,24.01-7.82,4.96-4.2,7.7-8.99,9.14-14.2-3.78-18.4-8.22-40.29-13.31-66.81-1.58-8.7-3.39-17.39-5.36-25.94-1.56-.73-3.13-1.45-4.69-1.74-21.02-5.52-43.32,2.89-63.42,9.71-34.06,11.74-66.82,27.83-100.74,39.71,3.26,28.26,2.99,47.82,1.16,54.5-1.3,4.93-7.7,11.59-17.35,19.71Z"/>
              <path class="cls-32" d="m1287.58,881.3c-29.24-1.16-58.46-1.01-87.43-3.18-22.45-1.88-46.73-1.45-67.35-12.32-.39-.15-.64-.59-1.04-.88-13.44,10.15-30.53,21.89-49.71,35.22,36.8,19.43,75.03,35.22,112.49,53.34,24,11.74,45.68,20.57,72.43,13.76,4.04-1.01,8.09-2.32,12.27-3.62,17.35-9.71,34.84-19.56,51.93-29.84,3.78-2.33,6.92-4.35,9.8-6.68.52-3.77.78-7.82.64-11.87-1.3-33.33-30.13-32.75-54.01-33.93Z"/>
              <path class="cls-4" d="m1181.86,990.74c-10.17-15.81-30.01-26.97-45.79-34.64-27.68-14.07-57.29-24.65-87.05-32.77-20.75,14.8-42.67,30.88-64.34,48.41,1.7,1.88,3.53,3.62,5.49,5.37,14.49,12.75,28.45,25.21,41.63,39.7,15.39,16.96,33.41,36.97,55.2,43.19,12.27,3.64,25.19,1.75,37.44-2.6,12.15-7.97,24.15-15.95,35.89-23.77,7.18-4.63,14.35-9.28,21.66-13.77,4.05-9.99,5.61-20.44-.13-29.12Z"/>
              <path class="cls-23" d="m905.86,1091.02c10.96,12.32,22.58,24.64,34.06,36.37,12.4,12.61,26.49,27.83,42.8,33.93,5.22,1.88,10.18,2.75,14.87,3.04,1.83-2.91,3.78-6.08,6.13-8.7,19.44-22.75,42.16-42.33,65.91-60.15-.79-3.34-1.83-6.52-3.39-9.85-6.92-14.35-17.36-25.79-28.7-35.8-24.41-21.16-50.77-39.28-75.96-58.99-26.36,22.62-51.54,47.1-72.95,73.34-1.31,1.44-2.49,3.04-3.65,4.48,6.65,7.98,14.49,15.08,20.87,22.32Z"/>
              <path class="cls-7" d="m799.77,1251.61c10.96.86,21.78,2.32,32.75,1.74,22.57-.73,45.15-1.88,67.72-2.03,21.14-.15,42.28-.28,63.42-.43,13.19-.15,26.62-1.88,34.85-14.05-3.92-9.87-6.92-20.01-8.23-29.86-6.39-8.85-14.49-15.94-24.53-21.89-16.17-9.71-32.1-20.58-47.76-31.45-18-12.47-35.88-24.49-54.68-35.8-2.86-1.74-6.65-3.19-10.17-5.08-35.51,54.21-55.34,104.79-66.04,138.98,4.32-.43,8.35-.58,12.67-.13Z"/>
              <path class="cls-20" d="m896.2,1420.16c21.54-9.56,42.16-22.75,62.12-35.51,17.09-11.01,34.84-21.3,51.41-33.33,16.58-11.87,29.76-25.5,28.06-45.65-5.35-7.82-11.09-16.24-16.44-24.92-11.09-5.52-22.72-7.26-35.24-6.1-26.37,2.33-52.33,3.92-78.69,4.93-43.85,1.6-87.3,10.15-131.01,14.2-.27,1.31-.4,2.18-.4,2.18,0,0,56.77,80.44,95.01,133.2,8.47-2.91,17.09-5.37,25.18-8.99Z"/>
              <path class="cls-16" d="m1031.14,1353.2c-18.01,10.43-35.88,20.88-53.24,32.32-31.19,20.73-61.34,43.48-93.45,62.32,12.27,16.67,20.62,27.69,20.62,26.52,0-4.63,64.6,66.96,64.6,42.61,0-25.79,43.34-61.44,57.82-77.96,12.65-14.35,26.62-28.41,37.71-44.49,12-17.26,11.35-29.58,3.13-44.51-11.61-9.99-25.19-3.75-37.19,3.19Z"/>
              <path class="cls-30" d="m1157.33,626.67c18.15-10.72,36.15-22.02,55.08-30.87,15.78-7.39,43.58-16.52,52.06-34.92,3.01-6.68,2.87-14.78.91-23.34-1.3-3.47-2.86-6.95-4.17-10.57-3.66-8.41-7.58-16.68-11.23-24.78-3.13-5.08-6.27-9.85-9.14-13.92-2.61-2.17-5.08-3.92-7.7-5.51-12.65-7.24-25.71-.88-36.92,7.11-20.5,14.48-40.2,30.72-59.25,47.53-12,10.58-23.63,21.59-35.37,32.61,11.1,24.35,20.23,48.84,27.93,72.02,9.39-4.93,18.8-9.99,27.8-15.36Z"/>
              <path class="cls-17" d="m743.91,28.41c-8.74-1.31-17.23-2.32-25.96-3.04-4.84.13-9.8.73-14.49,1.16-2.49,1.31-4.7,2.61-6.27,4.63-9.14,11.01-7.7,32.62-8.22,46.82-1.06,29.27-.92,58.7-.65,87.96.13,22.77,1.18,45.37,3.26,67.97,9.66,4.21,21.8,6.96,36.67,10.45,1.43-5.65,2.61-11.16,4.05-16.96,8.09-36.82,13.83-73.92,19.06-111.45,1.7-13.18,11.48-56.08,4.04-78.26-3.13-4.35-7.18-7.39-11.48-9.28Z"/>
            </g>
            <path class="cls-31" d="m298.9,1517.69s27.02-83.76-71.91-191.59c0,0,6.4-102.76,146.55-256.52,140.15-153.63,249.77-283.49,249.77-283.49,0,0-145.5-36.81-241.67,29,0,0-20.62,153.62-26.89,159.7-6.4,6.08-196.93,51.88-216.63,53.77-19.83,2.18-20.62-27.83-12.65-52.74,0,0-90.7,40.87-65.64-17.84,0,0-38.63-51.16-52.98-114.93-14.37-63.77-9.93-88.84,50.37-98.84,0,0,123.06-235.51,295.58-367.25,0,0-72.55-28.84-62.9-42.9,10.05-14.05,115.5-100.86,217.03-135.94,0,0-17.88-16.09-1.31-37.38,16.32-21.31,98.14-112.76,174.35-160.73,0,0,44.63,151.6,43.85,202.61,0,0,410.55,74.78,472.41,658.86,0,0-319.99,140.29-378.98,406.95,0,0,117.72,128.57,153.48,234.35v21.89l-671.82-6.96Z"/>
            <g class="cls-47">
              <path class="cls-33" d="m532.51,1084.36c30.27-34.92,61.86-68.12,88.86-100.43,77.12-92.04,152.94-188.57,197.71-305.51-24.53,63.76-107.79,131.44-153.34,179.56-30.27,32.17-62.5,62.32-94.74,92.18-30.53,28.26-60.41,57.39-90.43,86.37-27.66,26.67-55.86,53.19-81.69,82.19-25.46,28.98-50.51,61.01-65.39,98.39-17.36,43.2-12.4,92.9,10.84,132.47,17.48,30.14,42.53,54.06,59.24,85.08-5.75-55.22-1.43-114.5,14.35-166.1,21.14-68.4,66.56-128.55,114.59-184.2Z"/>
            </g>
            <path class="cls-35" d="m455.76,1519.29c-26.35-7.69-53.49-17.69-75.17-34.36-22.7-17.24-28.97-51.3-43.46-75.51-10.57-17.38-22.57-33.18-36.4-47.09-10.7-10.73-22.58-20.15-31.46-32.75-15.92-22.19-2.87-55.65,7.58-77.39,16.7-34.21,39.66-63.49,59.76-95.22,20.5-32.32,40.46-64.2,65-93.05,10.17-12.02,20.49-24.49,31.71-35.8,21.14-25.51,43.58-49.42,66.94-72.47,56.78-56.38,117.19-108.12,175.39-162.76,28.85-27.38,57.94-54.63,85.22-84.06,14.37-15.36,28.33-31,41.64-47.53,11.87-14.93,31.58-33.48,35.23-53.62,3.8-21.44-12.79-35.8-24.92-49.27-13.31-14.65-26.35-29.13-40.32-42.76-15.41-15.23-30.94-31.31-47.89-43.77-7.58-5.52-15.54-10.58-23.24-15.81.52.58,1.04,1.16,1.58,1.88,20.61,28.41,42.01,67.54,47.88,103.92,6.27,39.42-13.56,69.13-42.92,89.42-30.55,21.01-61.86,27.25-97.62,24.78-40.97-2.75-83.79-12.9-124.62-9.41-12.01,1.16-48.82,6.37-43.46-19,3.13-14.93,12.27-27.53,20.35-39.27,11.09-16.09,21.66-32.61,32.75-48.56,11.75-17.39,24.94-33.61,38.5-49.57-33.41,20.15-66.82,40.16-98.66,63.34-21.01,15.36-45.41,31.3-61.72,53.04-14.87,20.01-24.01,43.77-30.27,68.42-13.44,52.74-21.02,107.24-31.59,160.73-3.78,19.41-5.61,47.24-18.27,62.9-10.18,12.32-23.36,15.94-37.98,15.21-2.22-.13-3.26-2.02-2.99-4.35,1.95-16.52,15.78-25.5,21.39-40.14,8.75-22.17-18.4-36.23-33.14-43.91-22.45-11.59-32.89,14.2-49.2,26.39-14.61,10.58-30.79,21.15-48.67,22.32-1.31,0-2.74-1.17-3.01-2.46-1.95-12.32-4.17-25.23-13.31-33.48-9.78-8.99-20.89-13.77-32.37-20.01-16.96-8.7-33.14-19.56-34.18-42.61-2.1-50.58,30.4-101.15,58.58-137.54,40.72-52.17,84.17-102.03,131.41-147.1,21.93-21.01,43.98-43.34,68.65-60.43,21.01-14.5,43.19-27.4,62.63-44.2,4.45-5.08,8.62-10.58,11.75-16.09-11.21-6.53-24.53-9.57-37.06-8.12-3.78.43-7.44.86-11.09,1.31C176.5,516.24,57.22,744.21,57.22,744.21c-60.29,10-64.73,35.07-50.37,98.84,14.35,63.77,52.98,114.93,52.98,114.93-25.06,58.71,65.64,17.84,65.64,17.84-7.96,24.92-7.18,54.93,12.65,52.74,19.7-1.88,210.23-47.68,216.63-53.77,6.27-6.08,26.89-159.7,26.89-159.7,96.17-65.8,241.67-29,241.67-29,0,0-109.62,129.86-249.77,283.49-140.15,153.77-146.55,256.52-146.55,256.52,98.93,107.83,71.91,191.59,71.91,191.59l156.86,1.6Z"/>
            <path class="cls-35" d="m817.25,1268.41c58.98-266.66,378.98-406.95,378.98-406.95-61.86-584.07-472.41-658.86-472.41-658.86.79-51.01-43.85-202.61-43.85-202.61-76.21,47.97-158.03,139.41-174.35,160.73-16.57,21.3,1.31,37.38,1.31,37.38-101.53,35.08-206.98,121.89-217.03,135.94-5.61,7.98,16.05,21.01,35.51,30.59-17.76-33.05,58.46-82.32,81.17-91.88,48.03-20.58,100.36-18.42,144.59,5.64-.52-1.16-.91-2.46-1.43-3.47-8.87-22.32-15.01-47.53-17.23-71.74-3.92-40.57,15.01-76.95,39.14-105.5,27.41-32.47,57.17-64.79,93.97-83.92,1.3-.71,3.38-.58,4.17,1.17,11.36,29.12,10.84,63.33,9.92,94.49-.78,30.44-2.87,59.7-13.04,88.41-12.27,34.79-31.71,69.56-57.56,95.65-1.43,3.47-2.87,6.66-3.92,10.43,2.22-.28,4.3-.73,6.4-1.31,4.44-1.88,8.99-3.62,13.56-5.06,5.36-2.18,10.84-4.35,16.32-4.94,4.3-.71,8.61-1.01,13.04-1.16,9.27-.86,18.53-.71,28.33.45,27.27,3.77,54.94,12.6,80.25,24.78,52.86,24.92,98.01,65.64,132.47,116.66,43.84,64.93,76.86,138.41,98.65,215.5,9.01,32.17,18.92,63.77,28.72,95.66,4.96,16.52,12.92,38.11,9.39,56.66.79.88,1.31,2.32.79,3.92-5.36,13.91-19.71,16.81-30.41,23.63-19.18,12.32-38.23,25.36-56.77,39.42-36.94,27.97-73.72,57.54-107.13,90.57-32.11,31.74-61.22,66.96-87.7,104.49-26.23,37.4-52.6,75.96-75.56,115.95-4.18,6.96-36.15,63.9-28.58,68.4,13.18,7.97,22.45,20.73,31.46,33.78,24.53,35.35,48.8,66.66,64.06,108.69,12.92,34.92,23.37,72.47,25.98,110.28.52,6.81,1.04,14.35.91,22.19l201.37,2.17v-21.89c-35.76-105.79-153.48-234.35-153.48-234.35Z"/>
            <g>
              <path class="cls-14" d="m371.08,498.99s4.82-36.37,7.95-46.23c7.31-22.62,15.01-31.02,15.01-31.02l-6.13-1.02s31.07-22.9,65.25-27.25c38.89-4.78,66.56,7.11,66.56,7.11l-4.32,1.16s8.23,2.61,18.4.15c0,0-11.87,13.18-26.87,23.33-13.97,9.57-20.89,26.09-31.72,39.14-9.78,11.89-23.09,12.6-36.79,12.02-10.18-.58-20.5-2.17-30.67-3.04-7.18-.28-15.41-.73-22.06,2.61-7.18,3.47-14.61,23.05-14.61,23.05Z"/>
              <path class="cls-14" d="m56.7,826.96s19.71,19.13,25.84,50.59c6.13,31.15,15.26,43.47,19.58,32.75,4.44-11.03,24.65-43.05,15.39-49.86-9.26-6.96-60.82-33.48-60.82-33.48Z"/>
              <path class="cls-14" d="m125.48,975.66s1.18-2.76,3.51-7.11c2.62-4.35,6.01-10.72,10.97-17.82,4.96-6.96,11.09-15.06,18.65-22.45,3.66-3.77,7.7-7.54,12.13-11.03,4.44-3.19,9.27-6.23,14.37-8.83,4.96-2.46,10.04-4.35,14.87-6.38,4.96-2.03,9.65-4.05,14.35-6.08,8.87-4.35,17.49-8.41,23.75-13.48,3.26-2.33,6.01-4.93,8.1-7.39,1.95-2.61,3.39-5.52,3.78-7.84.66-2.46.79-4.5.39-5.79-.12-1.31-.12-2.18-.12-2.18,0,0,.12.88.52,2.18.39,1.29.64,3.32.39,6.08-.39,2.61-1.56,5.65-3.39,8.83-1.95,3.06-4.44,6.23-7.83,8.85-3.13,2.89-6.92,5.51-10.82,8.27-4.05,2.61-8.35,5.08-12.92,7.39-4.57,2.32-9.39,4.5-14.35,6.66-4.84,2.03-9.93,4.2-14.49,6.52-4.84,2.33-9.27,4.94-13.44,8.12-4.32,3.19-8.35,6.68-12.15,10-7.43,6.96-14.08,14.05-19.44,20.73-5.21,6.52-9.53,12.17-12.27,16.22-2.86,4.21-4.56,6.53-4.56,6.53Z"/>
              <path class="cls-14" d="m237.18,844.93s17.49,2.33,24.4,8.55c4.05,3.49,7.58,16.53,7.58,16.53,0,0-6.13-3.92-9.01-4.79,0,0,2.74,14.65-6.53,24.35,0,0,.65-19.13-11.35-24.35-12.13-5.51-14.1-20.87-14.1-20.87,0,0,5.22,5.51,11.49,5.51l-2.49-4.93Z"/>
              <path class="cls-14" d="m646.29,113.9s-47.76,113.19-56.9,146.67c-9.26,33.78-7.04-38.54-25.18-54.63-18.4-16.53,28.97-27.25,60.8-72.32,30.55-43.2,24.53-26.39,21.27-19.72Z"/>
              <g>
                <path class="cls-14" d="m506.93,198.11s.77,1.45,2.22,3.92c1.43,2.61,3.38,6.23,5.73,10.58,4.57,8.55,10.7,20.29,16.84,31.74,3.01,5.94,6.27,11.29,9.14,16.8,2.99,5.37,6,10.15,8.35,14.35,1.16,2.18,2.61,3.92,3.65,5.51,1.04,1.74,2.08,3.04,2.87,4.35,1.56,2.32,2.47,3.77,2.47,3.77,0,0-1.16-1.01-3.26-3.04-1.04-.88-2.22-2.17-3.51-3.47-1.44-1.45-3.14-2.91-4.57-4.79-1.56-2.02-3.14-4.2-4.84-6.37-1.68-2.33-3.51-4.65-5.21-7.26-3.26-5.36-6.65-10.86-9.8-16.67-2.99-5.94-6.13-11.87-8.47-17.53-2.62-5.65-4.84-11.01-6.53-15.94-1.7-4.5-2.86-8.7-3.78-11.46-.78-2.76-1.3-4.5-1.3-4.5Z"/>
                <path class="cls-14" d="m614.97,299.28s7.96-4.65,19.98-11.74c6.13-3.62,12.91-7.97,20.22-12.47,7.44-4.78,15.14-9.85,22.72-15.23,3.78-2.6,7.56-5.51,11.09-8.4,3.51-2.89,7.04-5.65,10.3-8.7,3.13-2.89,6.27-5.8,9.01-8.85,2.61-2.89,5.09-5.94,7.18-8.7,1.95-3.04,3.65-5.79,4.82-8.55,1.18-2.6,2.22-5.06,2.62-7.09.52-2.18.64-3.92.78-4.93.13-1.31.13-2.03.13-2.03,0,0,0,.73.13,2.03.13,1.01.25,2.75-.13,5.08,0,2.17-.79,4.93-1.56,7.97-.92,2.89-2.49,6.23-4.3,9.41-1.96,3.19-4.18,6.68-6.79,9.85-2.62,3.34-5.48,6.81-8.75,10-6.39,6.38-13.95,12.32-21.53,17.97-7.83,5.51-15.8,10.43-23.36,14.78-7.56,4.35-14.87,7.97-21.27,10.88-6.25,2.89-11.61,5.08-15.26,6.52-3.8,1.6-6.01,2.18-6.01,2.18Z"/>
              </g>
            </g>
            <path class="cls-34" d="m970.72,1569.72H257.93c-16.7,0-30.28-15.06-30.28-33.48s13.58-33.48,30.28-33.48h712.79c16.7,0,30.13,14.93,30.13,33.48s-13.43,33.48-30.13,33.48Z"/>
            <path class="cls-35" d="m970.72,1502.76h-405.87c18.92,16.09,17.49,54.21-4.44,66.96h410.3c16.7,0,30.13-15.06,30.13-33.48s-13.43-33.48-30.13-33.48Z"/>
          </g>
          <g class="cls-54">
            <path class="cls-13" d="m540.46,482.18c21.66,17.1,1.44,50.3-9.53,67.54-10.17,15.79-21.39,30.42-32.35,45.8-5.61,7.97-20.5,23.76-19.98,35.22.4,5.79,28.85-.45,32.11-.88,12-1.74,23.88-.43,36.01,1.74,34.97,6.38,74.26,20.58,107.92,1.02,72.82-41.9,13.44-146.39-17.36-196.97-21.92-35.65-44.23-74.93-56.89-116.38-.52,4.21-1.58,8.27-3.14,11.89-1.43,22.17-7.18,44.34-14.35,63.47-9.53,24.65-22.84,47.1-41.63,64.35-6.4,5.8-13.31,10.58-20.62,14.8,13.7-.88,29.63.43,39.8,8.4Z"/>
          </g>
          <g class="cls-55">
            <path class="cls-6" d="m1005.83,756.52c-13.96-120.14-98.79-281.46-127.24-322.76-36.01-52.03-87.17-104.64-146.42-120-16.57-4.2-34.84-8.4-50.38-9.41,236.73,142.89,319.73,412.32,324.04,452.17Z"/>
          </g>
        </g>
        <g class="cls-53">
          <path class="cls-38" d="m646.16,23.61c-.64,0-1.16.15-1.82.15,0,0-.13.15-.27.3-5.21,5.94-11.48,10.72-17.88,15.21-36.67,31.74-93.3,85.94-112.22,111.16-21.66,28.41-15.8,33.48-7.04,47.68,0,0-59.64,13.77-165.09,91.75-28.45,21.3-47.89,38.56-51.94,44.2-.25.59-.52,1.02-.65,1.45v.43c-.12.45-.12.88-.12,1.17v.58c.12.28.12.71.25,1.01.13.28.13.43.4.73,0,.28.12.58.39,1.01.13.3.25.43.39.73.39.3.52.73.91,1.16.13.3.27.43.53.58.39.43.64,1.02,1.16,1.31.13.3.4.43.53.58.64.58,1.3,1.31,2.08,1.88.13.15.25.3.39.3.65.58,1.31,1.16,1.96,1.59.12.3.52.43.78.58.52.43,1.31,1.01,1.96,1.6l.77.43c.65.43,1.56.86,2.22,1.44.13.15.4.45.65.45.91.58,1.83,1.16,2.74,1.74l.39.28c18.8,11.31,45.15,21.89,45.15,21.89C185.64,504.65,64.8,730.15,57.61,743.48c-.39.58-.39.73-.39.73-60.29,10-64.73,35.07-50.37,98.84,7.95,35.22,23.23,66.53,35.36,87.4-5.48-22.47-8.61-45.22-8.35-68.12.27-21.16,4.7-53.04,26.5-60.58,14.35-4.78,28.57-.58,42.67,3.34,18.53,5.36,38.75,8.12,57.81,6.95,128.02-8.4,143.55-175.64,172.26-281.31,14.22-53.04,34.58-108.4,76.99-141.3,27.93-21.59,61.47-36.67,96.05-36.37,28.97.28,73.2,0,68.9-45.22-4.57-48.99-45.27-99.14-7.43-143.2,21.92-25.36,53.76-41.58,72.03-71.01,17.49-27.83,26.89-59.42,36.41-91.02-9.92,6.38-19.96,13.49-29.89,21.01Z"/>
        </g>
        <g class="cls-45">
          <g class="cls-42">
            <path class="cls-41" d="m321.49,1818.86c-46.08,12.61-107.93,89.56-117.45,179.86h176.03c.52-56.94,8.62-137.68,46.72-179.86h-105.3Z"/>
          </g>
        </g>
      </g>
    </g>
  </g>
</svg>