<?xml version="1.0" encoding="UTF-8"?>
<svg xmlns="http://www.w3.org/2000/svg" xmlns:xlink="http://www.w3.org/1999/xlink" viewBox="0 0 1207.45 2003.34">
  <defs>
    <style>
      .cls-1 {
        fill: url(#linear-gradient-19);
      }

      .cls-1, .cls-2, .cls-3, .cls-4, .cls-5, .cls-6, .cls-7, .cls-8, .cls-9, .cls-10, .cls-11, .cls-12, .cls-13, .cls-14, .cls-15, .cls-16, .cls-17, .cls-18, .cls-19, .cls-20, .cls-21, .cls-22, .cls-23, .cls-24, .cls-25, .cls-26, .cls-27, .cls-28, .cls-29, .cls-30 {
        stroke-width: 0px;
      }

      .cls-1, .cls-3, .cls-8, .cls-9, .cls-10, .cls-12, .cls-31, .cls-22, .cls-27, .cls-29, .cls-30 {
        mix-blend-mode: multiply;
      }

      .cls-2 {
        fill: url(#linear-gradient-18);
      }

      .cls-2, .cls-5, .cls-32, .cls-7, .cls-14, .cls-15, .cls-20, .cls-31, .cls-24, .cls-25, .cls-26 {
        opacity: .5;
      }

      .cls-2, .cls-5, .cls-7, .cls-14, .cls-15, .cls-20, .cls-24, .cls-25, .cls-26 {
        mix-blend-mode: screen;
      }

      .cls-3 {
        fill: url(#linear-gradient-23);
      }

      .cls-4 {
        fill: url(#linear-gradient);
      }

      .cls-33 {
        mask: url(#mask-10);
      }

      .cls-5 {
        fill: url(#linear-gradient-16);
      }

      .cls-34 {
        filter: url(#luminosity-noclip-7);
      }

      .cls-35 {
        mask: url(#mask-17);
      }

      .cls-6 {
        fill: url(#linear-gradient-6);
      }

      .cls-7 {
        fill: url(#linear-gradient-24);
      }

      .cls-36 {
        filter: url(#luminosity-noclip-5);
      }

      .cls-8 {
        fill: url(#linear-gradient-15);
      }

      .cls-9 {
        fill: url(#linear-gradient-25);
      }

      .cls-37 {
        mask: url(#mask-2);
      }

      .cls-10 {
        fill: url(#linear-gradient-11);
      }

      .cls-38 {
        isolation: isolate;
      }

      .cls-39 {
        mask: url(#mask-13);
      }

      .cls-12 {
        fill: url(#radial-gradient);
      }

      .cls-40 {
        mask: url(#mask-3);
      }

      .cls-13 {
        fill: url(#linear-gradient-5);
      }

      .cls-14 {
        fill: url(#radial-gradient-2);
      }

      .cls-41 {
        mask: url(#mask-9);
      }

      .cls-42 {
        mask: url(#mask-12);
      }

      .cls-43 {
        mask: url(#mask-5);
      }

      .cls-15 {
        fill: url(#linear-gradient-20);
      }

      .cls-16 {
        fill: url(#linear-gradient-13);
      }

      .cls-17 {
        fill: url(#linear-gradient-22);
      }

      .cls-18 {
        fill: url(#linear-gradient-14);
      }

      .cls-19 {
        fill: url(#linear-gradient-2);
      }

      .cls-44 {
        filter: url(#luminosity-noclip-9);
      }

      .cls-20 {
        fill: url(#linear-gradient-8);
      }

      .cls-45 {
        mask: url(#mask-8);
      }

      .cls-21 {
        fill: #221f1f;
      }

      .cls-46 {
        mask: url(#mask-4);
      }

      .cls-22 {
        fill: url(#linear-gradient-17);
      }

      .cls-47 {
        mask: url(#mask-19);
      }

      .cls-48 {
        mask: url(#mask-15);
      }

      .cls-23 {
        fill: url(#linear-gradient-9);
      }

      .cls-24 {
        fill: url(#linear-gradient-26);
      }

      .cls-49 {
        mask: url(#mask-6);
      }

      .cls-50 {
        mask: url(#mask-16);
      }

      .cls-25 {
        fill: url(#linear-gradient-12);
      }

      .cls-51 {
        mask: url(#mask-18);
      }

      .cls-52 {
        filter: url(#luminosity-noclip);
      }

      .cls-53 {
        mask: url(#mask-1);
      }

      .cls-54 {
        mask: url(#mask);
      }

      .cls-26 {
        fill: url(#linear-gradient-4);
      }

      .cls-55 {
        mask: url(#mask-7);
      }

      .cls-27 {
        fill: url(#linear-gradient-3);
      }

      .cls-28 {
        fill: url(#linear-gradient-10);
      }

      .cls-29 {
        fill: url(#linear-gradient-7);
      }

      .cls-30 {
        fill: url(#linear-gradient-21);
      }

      .cls-56 {
        mask: url(#mask-14);
      }

      .cls-57 {
        mask: url(#mask-11);
      }

      .cls-58 {
        filter: url(#luminosity-noclip-3);
      }
    </style>
    <linearGradient id="linear-gradient" x1="-76.02" y1="1774.72" x2="800.86" y2="1774.72" gradientUnits="userSpaceOnUse">
      <stop offset="0" stop-color="#221f1f"/>
      <stop offset=".2" stop-color="#a4a6a9"/>
      <stop offset=".25" stop-color="#939598"/>
      <stop offset=".35" stop-color="#707274"/>
      <stop offset=".45" stop-color="#57595a"/>
      <stop offset=".53" stop-color="#484a4b"/>
      <stop offset=".6" stop-color="#434546"/>
      <stop offset=".92" stop-color="#282626"/>
      <stop offset="1" stop-color="#221f1f"/>
    </linearGradient>
    <linearGradient id="linear-gradient-2" x1=".07" y1="1902.92" x2="1207.45" y2="1902.92" gradientUnits="userSpaceOnUse">
      <stop offset="0" stop-color="#a4a6a9"/>
      <stop offset=".04" stop-color="#939598"/>
      <stop offset=".15" stop-color="#707274"/>
      <stop offset=".26" stop-color="#57595a"/>
      <stop offset=".35" stop-color="#484a4b"/>
      <stop offset=".42" stop-color="#434546"/>
      <stop offset=".77" stop-color="#282626"/>
      <stop offset=".85" stop-color="#221f1f"/>
    </linearGradient>
    <filter id="luminosity-noclip" x=".07" y="1802.49" width="1207.38" height="200.85" color-interpolation-filters="sRGB" filterUnits="userSpaceOnUse">
      <feFlood flood-color="#fff" result="bg"/>
      <feBlend in="SourceGraphic" in2="bg"/>
    </filter>
    <filter id="luminosity-noclip-2" x=".07" y="-9192" width="1207.38" height="32766" color-interpolation-filters="sRGB" filterUnits="userSpaceOnUse">
      <feFlood flood-color="#fff" result="bg"/>
      <feBlend in="SourceGraphic" in2="bg"/>
    </filter>
    <mask id="mask-1" x=".07" y="-9192" width="1207.38" height="32766" maskUnits="userSpaceOnUse"/>
    <linearGradient id="linear-gradient-3" x1="39.74" y1="1902.92" x2="522.57" y2="1902.92" gradientUnits="userSpaceOnUse">
      <stop offset="0" stop-color="#fff"/>
      <stop offset=".07" stop-color="#dfdfdf"/>
      <stop offset=".21" stop-color="#8f8f8f"/>
      <stop offset=".43" stop-color="#101010"/>
      <stop offset=".46" stop-color="#000"/>
    </linearGradient>
    <mask id="mask" x=".07" y="1802.49" width="1207.38" height="200.85" maskUnits="userSpaceOnUse">
      <g class="cls-52">
        <g class="cls-53">
          <path class="cls-27" d="m1207.45,2002.69c0-110.63-69-200.2-154.21-200.2H154.27C69.08,1802.49.07,1892.06.07,2002.69v.65h1207.38v-.65Z"/>
        </g>
      </g>
    </mask>
    <linearGradient id="linear-gradient-4" x1="39.74" y1="1902.92" x2="522.57" y2="1902.92" gradientUnits="userSpaceOnUse">
      <stop offset="0" stop-color="#fff"/>
      <stop offset=".09" stop-color="#dfe0e0"/>
      <stop offset=".28" stop-color="#909192"/>
      <stop offset=".46" stop-color="#434546"/>
    </linearGradient>
    <linearGradient id="linear-gradient-5" x1="382.85" y1="231.22" x2="855.48" y2="231.22" xlink:href="#linear-gradient-2"/>
    <filter id="luminosity-noclip-3" x="372.3" y="0" width="462.45" height="462.45" color-interpolation-filters="sRGB" filterUnits="userSpaceOnUse">
      <feFlood flood-color="#fff" result="bg"/>
      <feBlend in="SourceGraphic" in2="bg"/>
    </filter>
    <filter id="luminosity-noclip-4" x="372.3" y="-9192" width="462.45" height="32766" color-interpolation-filters="sRGB" filterUnits="userSpaceOnUse">
      <feFlood flood-color="#fff" result="bg"/>
      <feBlend in="SourceGraphic" in2="bg"/>
    </filter>
    <mask id="mask-3" x="372.3" y="-9192" width="462.45" height="32766" maskUnits="userSpaceOnUse"/>
    <radialGradient id="radial-gradient" cx="829.35" cy="252.25" fx="829.35" fy="252.25" r="399.71" gradientUnits="userSpaceOnUse">
      <stop offset=".42" stop-color="#000"/>
      <stop offset=".46" stop-color="#101010"/>
      <stop offset=".73" stop-color="#8f8f8f"/>
      <stop offset=".92" stop-color="#dfdfdf"/>
      <stop offset="1" stop-color="#fff"/>
    </radialGradient>
    <mask id="mask-2" x="372.3" y="0" width="462.45" height="462.45" maskUnits="userSpaceOnUse">
      <g class="cls-58">
        <g class="cls-40">
          <path class="cls-12" d="m834.75,231.15c0,127.63-103.52,231.3-231.32,231.3s-231.13-103.67-231.13-231.3S475.8,0,603.44,0s231.32,103.5,231.32,231.15Z"/>
        </g>
      </g>
    </mask>
    <radialGradient id="radial-gradient-2" cx="829.35" cy="252.25" fx="829.35" fy="252.25" r="399.71" gradientUnits="userSpaceOnUse">
      <stop offset=".42" stop-color="#434546"/>
      <stop offset=".64" stop-color="#909192"/>
      <stop offset=".89" stop-color="#dfe0e0"/>
      <stop offset="1" stop-color="#fff"/>
    </radialGradient>
    <linearGradient id="linear-gradient-6" x1="216.97" y1="929.02" x2="989.92" y2="929.02" xlink:href="#linear-gradient-2"/>
    <filter id="luminosity-noclip-5" x="216.97" y="598.34" width="772.95" height="661.36" color-interpolation-filters="sRGB" filterUnits="userSpaceOnUse">
      <feFlood flood-color="#fff" result="bg"/>
      <feBlend in="SourceGraphic" in2="bg"/>
    </filter>
    <filter id="luminosity-noclip-6" x="216.97" y="-9192" width="772.95" height="32766" color-interpolation-filters="sRGB" filterUnits="userSpaceOnUse">
      <feFlood flood-color="#fff" result="bg"/>
      <feBlend in="SourceGraphic" in2="bg"/>
    </filter>
    <mask id="mask-5" x="216.97" y="-9192" width="772.95" height="32766" maskUnits="userSpaceOnUse"/>
    <linearGradient id="linear-gradient-7" x1="283.89" y1="929.02" x2="750.91" y2="929.02" gradientUnits="userSpaceOnUse">
      <stop offset="0" stop-color="#fff"/>
      <stop offset=".1" stop-color="#dfdfdf"/>
      <stop offset=".34" stop-color="#8f8f8f"/>
      <stop offset=".67" stop-color="#101010"/>
      <stop offset=".72" stop-color="#000"/>
    </linearGradient>
    <mask id="mask-4" x="216.97" y="598.34" width="772.95" height="661.36" maskUnits="userSpaceOnUse">
      <g class="cls-36">
        <g class="cls-43">
          <path class="cls-29" d="m732.86,648.57l-7.78-50.22-121.65,12.47-121.8-12.47-7.61,50.22s-19.61,465.68-257.06,590.56l351.49,20.57h70.13l351.34-20.57c-237.45-124.88-257.06-590.56-257.06-590.56Z"/>
        </g>
      </g>
    </mask>
    <linearGradient id="linear-gradient-8" x1="283.89" y1="929.02" x2="750.91" y2="929.02" gradientUnits="userSpaceOnUse">
      <stop offset="0" stop-color="#fff"/>
      <stop offset=".14" stop-color="#dfe0e0"/>
      <stop offset=".44" stop-color="#909192"/>
      <stop offset=".72" stop-color="#434546"/>
    </linearGradient>
    <linearGradient id="linear-gradient-9" x1="164.45" y1="608.64" x2="705.58" y2="608.64" xlink:href="#linear-gradient"/>
    <linearGradient id="linear-gradient-10" x1="103.68" y1="1508.67" x2="1103.35" y2="1508.67" xlink:href="#linear-gradient-2"/>
    <filter id="luminosity-noclip-7" x="103.68" y="1276.07" width="999.67" height="465.2" color-interpolation-filters="sRGB" filterUnits="userSpaceOnUse">
      <feFlood flood-color="#fff" result="bg"/>
      <feBlend in="SourceGraphic" in2="bg"/>
    </filter>
    <filter id="luminosity-noclip-8" x="103.68" y="-9192" width="999.67" height="32766" color-interpolation-filters="sRGB" filterUnits="userSpaceOnUse">
      <feFlood flood-color="#fff" result="bg"/>
      <feBlend in="SourceGraphic" in2="bg"/>
    </filter>
    <mask id="mask-7" x="103.68" y="-9192" width="999.67" height="32766" maskUnits="userSpaceOnUse"/>
    <linearGradient id="linear-gradient-11" x1="93.21" y1="1508.67" x2="993.13" y2="1508.67" gradientUnits="userSpaceOnUse">
      <stop offset="0" stop-color="#fff"/>
      <stop offset=".14" stop-color="#b3b3b3"/>
      <stop offset=".27" stop-color="#737373"/>
      <stop offset=".39" stop-color="#414141"/>
      <stop offset=".5" stop-color="#1d1d1d"/>
      <stop offset=".58" stop-color="#070707"/>
      <stop offset=".64" stop-color="#000"/>
    </linearGradient>
    <mask id="mask-6" x="103.68" y="1276.07" width="999.67" height="465.2" maskUnits="userSpaceOnUse">
      <g class="cls-34">
        <g class="cls-55">
          <path class="cls-10" d="m945.53,1291.13l-195.51-15.06-146.74,5.18-146.44-5.18-195.65,15.06s-166.53,61.72-157.12,261.92c6.15,133.64,91.03,188.22,91.03,188.22h816.69s84.89-54.59,91.21-188.22c9.06-200.2-157.46-261.92-157.46-261.92Z"/>
        </g>
      </g>
    </mask>
    <linearGradient id="linear-gradient-12" x1="93.21" y1="1508.67" x2="993.13" y2="1508.67" gradientUnits="userSpaceOnUse">
      <stop offset="0" stop-color="#fff"/>
      <stop offset=".02" stop-color="#f5f5f5"/>
      <stop offset=".19" stop-color="#b6b7b7"/>
      <stop offset=".33" stop-color="#848586"/>
      <stop offset=".46" stop-color="#606263"/>
      <stop offset=".57" stop-color="#4a4c4d"/>
      <stop offset=".64" stop-color="#434546"/>
    </linearGradient>
    <linearGradient id="linear-gradient-13" x1="-90.89" y1="1265.13" x2="737.2" y2="1265.13" xlink:href="#linear-gradient"/>
    <linearGradient id="linear-gradient-14" x1="267.62" y1="495.57" x2="842.04" y2="495.57" xlink:href="#linear-gradient-2"/>
    <filter id="luminosity-noclip-9" x="292.29" y="422.28" width="622.48" height="146.59" color-interpolation-filters="sRGB" filterUnits="userSpaceOnUse">
      <feFlood flood-color="#fff" result="bg"/>
      <feBlend in="SourceGraphic" in2="bg"/>
    </filter>
    <filter id="luminosity-noclip-10" x="292.29" y="-9192" width="622.48" height="32766" color-interpolation-filters="sRGB" filterUnits="userSpaceOnUse">
      <feFlood flood-color="#fff" result="bg"/>
      <feBlend in="SourceGraphic" in2="bg"/>
    </filter>
    <mask id="mask-9" x="292.29" y="-9192" width="622.48" height="32766" maskUnits="userSpaceOnUse"/>
    <linearGradient id="linear-gradient-15" x1="418.74" y1="495.57" x2="843.18" y2="495.57" gradientUnits="userSpaceOnUse">
      <stop offset="0" stop-color="#fff"/>
      <stop offset=".08" stop-color="#dfdfdf"/>
      <stop offset=".27" stop-color="#8f8f8f"/>
      <stop offset=".54" stop-color="#101010"/>
      <stop offset=".58" stop-color="#000"/>
    </linearGradient>
    <mask id="mask-8" x="292.29" y="422.28" width="622.48" height="146.59" maskUnits="userSpaceOnUse">
      <g class="cls-44">
        <g class="cls-41">
          <polygon class="cls-8" points="733.19 422.28 630.01 422.28 577.05 422.28 473.53 422.28 292.29 568.87 577.05 568.87 630.01 568.87 914.76 568.87 733.19 422.28"/>
        </g>
      </g>
    </mask>
    <linearGradient id="linear-gradient-16" x1="418.74" y1="495.57" x2="843.18" y2="495.57" gradientUnits="userSpaceOnUse">
      <stop offset="0" stop-color="#fff"/>
      <stop offset=".11" stop-color="#dfe0e0"/>
      <stop offset=".36" stop-color="#909192"/>
      <stop offset=".58" stop-color="#434546"/>
    </linearGradient>
    <filter id="luminosity-noclip-11" x="111.68" y="-9192" width="294.15" height="32766" color-interpolation-filters="sRGB" filterUnits="userSpaceOnUse">
      <feFlood flood-color="#fff" result="bg"/>
      <feBlend in="SourceGraphic" in2="bg"/>
    </filter>
    <mask id="mask-11" x="111.68" y="-9192" width="294.15" height="32766" maskUnits="userSpaceOnUse"/>
    <linearGradient id="linear-gradient-17" x1="198.13" y1="2002.35" x2="321.71" y2="1745.29" gradientUnits="userSpaceOnUse">
      <stop offset="0" stop-color="#fff"/>
      <stop offset=".13" stop-color="#dfdfdf"/>
      <stop offset=".41" stop-color="#8f8f8f"/>
      <stop offset=".83" stop-color="#101010"/>
      <stop offset=".88" stop-color="#000"/>
    </linearGradient>
    <mask id="mask-10" x="111.68" y="1801.2" width="294.15" height="202.14" maskUnits="userSpaceOnUse">
      <g class="cls-57">
        <path class="cls-22" d="m111.68,2003.34h198.26c-.98-34-.33-69.48,8.74-102.36,12.97-46.33,46.18-83.43,87.15-99.78h-137.02c-2.75,2.11-154.85,23.8-157.13,202.14Z"/>
      </g>
    </mask>
    <linearGradient id="linear-gradient-18" x1="198.13" y1="2002.35" x2="321.71" y2="1745.29" gradientUnits="userSpaceOnUse">
      <stop offset="0" stop-color="#fff"/>
      <stop offset=".88" stop-color="#fff"/>
    </linearGradient>
    <filter id="luminosity-noclip-12" x="186.43" y="-9192" width="272.86" height="32766" color-interpolation-filters="sRGB" filterUnits="userSpaceOnUse">
      <feFlood flood-color="#fff" result="bg"/>
      <feBlend in="SourceGraphic" in2="bg"/>
    </filter>
    <mask id="mask-13" x="186.43" y="-9192" width="272.86" height="32766" maskUnits="userSpaceOnUse"/>
    <linearGradient id="linear-gradient-19" x1="216.53" y1="1882.23" x2="401.5" y2="1277.69" gradientUnits="userSpaceOnUse">
      <stop offset="0" stop-color="#000"/>
      <stop offset=".07" stop-color="#1f1f1f"/>
      <stop offset=".22" stop-color="#6f6f6f"/>
      <stop offset=".45" stop-color="#eee"/>
      <stop offset=".48" stop-color="#fff"/>
      <stop offset=".52" stop-color="#f9f9f9"/>
      <stop offset=".57" stop-color="#ebebeb"/>
      <stop offset=".62" stop-color="#d3d3d3"/>
      <stop offset=".68" stop-color="#b1b1b1"/>
      <stop offset=".74" stop-color="#868686"/>
      <stop offset=".8" stop-color="#515151"/>
      <stop offset=".86" stop-color="#131313"/>
      <stop offset=".88" stop-color="#000"/>
    </linearGradient>
    <mask id="mask-12" x="186.43" y="1290.96" width="272.86" height="450.62" maskUnits="userSpaceOnUse">
      <g class="cls-39">
        <path class="cls-1" d="m319.97,1292.9c-72.57,41.47-117.27,130.24-129.74,210.58-7.12,45.68-4.69,93.45,11.01,137.19,8.26,23.32,19.27,45.68,33.7,65.77,7.28,10.05,14.08,20.73,23.49,28.99,6.63,5.84,8.26,5.34,7.76,5.84-.15.15-.32.15-.65.32h139.79c-4.53-5.99-8.91-12.31-12.95-18.79-12.47-19.75-22.03-42.26-27.53-65.1-13.62-54.59-16.37-112.42-3.42-167.18,12.64-53.28,37.27-102.04,66.91-147.89,7.28-11.16,19.44-31.75,30.93-51.67h-138.98c.17.98.17,1.79-.33,1.94Z"/>
      </g>
    </mask>
    <linearGradient id="linear-gradient-20" x1="216.53" y1="1882.23" x2="401.5" y2="1277.69" gradientUnits="userSpaceOnUse">
      <stop offset="0" stop-color="#434546"/>
      <stop offset=".09" stop-color="#626364"/>
      <stop offset=".29" stop-color="#b1b2b2"/>
      <stop offset=".48" stop-color="#fff"/>
      <stop offset=".88" stop-color="#fff"/>
    </linearGradient>
    <filter id="luminosity-noclip-13" x="401.6" y="-9192" width="212.05" height="32766" color-interpolation-filters="sRGB" filterUnits="userSpaceOnUse">
      <feFlood flood-color="#fff" result="bg"/>
      <feBlend in="SourceGraphic" in2="bg"/>
    </filter>
    <mask id="mask-15" x="401.6" y="-9192" width="212.05" height="32766" maskUnits="userSpaceOnUse"/>
    <linearGradient id="linear-gradient-21" x1="467.51" y1="-8.96" x2="553.85" y2="452.27" xlink:href="#linear-gradient-17"/>
    <mask id="mask-14" x="401.6" y="1.14" width="212.05" height="420.17" maskUnits="userSpaceOnUse">
      <g class="cls-48">
        <path class="cls-30" d="m454.9,200.53c0-86.66,51.67-162.95,125.54-199.39-32.89,3.23-63.51,13.27-90.88,28.99-13.29,10.68-25.43,22.84-35.63,35.15-29.97,34.82-48.43,77.58-51.68,123.75-3.23,45.99,5.51,93.45,26.9,134.6,10.52,20.25,23.49,39.68,39.84,55.88,7.93,7.94,16.35,15.71,25.59,22.19,6.32,4.38,23.32,16.19,26.89,19.61h92.17c-93.96-25.92-158.75-119.39-158.75-220.78Z"/>
      </g>
    </mask>
    <linearGradient id="linear-gradient-22" x1="467.51" y1="-8.96" x2="553.85" y2="452.27" xlink:href="#linear-gradient-18"/>
    <filter id="luminosity-noclip-14" x="290.98" y="-9192" width="291.08" height="32766" color-interpolation-filters="sRGB" filterUnits="userSpaceOnUse">
      <feFlood flood-color="#fff" result="bg"/>
      <feBlend in="SourceGraphic" in2="bg"/>
    </filter>
    <mask id="mask-17" x="290.98" y="-9192" width="291.08" height="32766" maskUnits="userSpaceOnUse"/>
    <linearGradient id="linear-gradient-23" x1="309.84" y1="1266.35" x2="657.32" y2="657.13" xlink:href="#linear-gradient-17"/>
    <mask id="mask-16" x="290.98" y="647.27" width="291.08" height="592.09" maskUnits="userSpaceOnUse">
      <g class="cls-35">
        <path class="cls-3" d="m501.23,648.57c1.14,2.11.81,11.83-.48,25.1-3.23,31.27-11.01,83.1-14.75,108.21-10.2,68.67-25.59,137.19-44.39,204.1-21.21,74.66-49.73,148.53-100.58,208.29-3.73,4.05-48.75,46.97-50.06,45.03h197.46c.15-.48.32-.98.65-1.13,19.44-38.4,36.77-83.1,47.29-124.9,10.22-41.47,14.75-84.39,18.63-126.82,7.78-85.52,19.61-170.89,24.63-256.74,1.46-24.95,2.25-57.17,2.42-82.44h-82.29c.98.8,1.46,1.13,1.46,1.29Z"/>
      </g>
    </mask>
    <linearGradient id="linear-gradient-24" x1="309.84" y1="1266.35" x2="657.32" y2="657.13" xlink:href="#linear-gradient-18"/>
    <filter id="luminosity-noclip-15" x="375.87" y="-9192" width="241.33" height="32766" color-interpolation-filters="sRGB" filterUnits="userSpaceOnUse">
      <feFlood flood-color="#fff" result="bg"/>
      <feBlend in="SourceGraphic" in2="bg"/>
    </filter>
    <mask id="mask-19" x="375.87" y="-9192" width="241.33" height="32766" maskUnits="userSpaceOnUse"/>
    <linearGradient id="linear-gradient-25" x1="479.53" y1="580.68" x2="520.15" y2="377.59" xlink:href="#linear-gradient-17"/>
    <mask id="mask-18" x="375.87" y="421.31" width="241.33" height="147.72" maskUnits="userSpaceOnUse">
      <g class="cls-47">
        <path class="cls-9" d="m498.31,544.74c10.37-12.64,92.98-98.16,118.89-122.46-1.29-.32-2.42-.65-3.55-.96h-92.17c.48.65.65.96.48,1.13-10.37,20.25-34.5,38.07-50.21,53.46-23.17,22.84-46.66,45.02-69.5,67.86-8.91,9.07-17.81,16.04-26.39,25.28h115.16c-.33-.48-.48-.65-.65-1.14-.33-.15-5.67-7.28,7.93-23.15Z"/>
      </g>
    </mask>
    <linearGradient id="linear-gradient-26" x1="479.53" y1="580.68" x2="520.15" y2="377.59" xlink:href="#linear-gradient-18"/>
  </defs>
  <g class="cls-38">
    <g id="Capa_1" data-name="Capa 1">
      <g>
        <g>
          <g>
            <path class="cls-4" d="m1056.33,1789.71c0-26.9-20.9-48.6-46.64-48.6H197.84c-25.76,0-46.64,21.7-46.64,48.6,0,4.2.48,14.56,1.46,18.63l903.02-1.31c.98-4.2.65-13.12.65-17.32Z"/>
            <g class="cls-31">
              <path class="cls-21" d="m1055.85,1782.57H151.68c-.33,2.27-.48,4.69-.48,7.13,0,4.2.48,14.56,1.46,18.63l903.02-1.31c.98-4.2.65-13.12.65-17.32,0-2.44-.17-4.86-.48-7.13Z"/>
            </g>
            <path class="cls-19" d="m1207.45,2002.69c0-110.63-69-200.2-154.21-200.2H154.27C69.08,1802.49.07,1892.06.07,2002.69v.65h1207.38v-.65Z"/>
            <g class="cls-54">
              <path class="cls-26" d="m1207.45,2002.69c0-110.63-69-200.2-154.21-200.2H154.27C69.08,1802.49.07,1892.06.07,2002.69v.65h1207.38v-.65Z"/>
            </g>
            <path class="cls-21" d="m1053.25,1802.49h-329.29c-5.03,5.19-10.53,10.05-16.21,14.75-97.51,78.24-216.07,126.17-337.72,151.6-28.01,5.84-138.5,31.1-369.96,33.85-.15,0,0,.65,0,.65h1207.38v-.65c0-110.63-69-200.2-154.21-200.2Z"/>
          </g>
          <path class="cls-13" d="m834.75,231.15c0,127.63-103.52,231.3-231.32,231.3s-231.13-103.67-231.13-231.3S475.8,0,603.44,0s231.32,103.5,231.32,231.15Z"/>
          <g class="cls-37">
            <path class="cls-14" d="m834.75,231.15c0,127.63-103.52,231.3-231.32,231.3s-231.13-103.67-231.13-231.3S475.8,0,603.44,0s231.32,103.5,231.32,231.15Z"/>
          </g>
          <path class="cls-6" d="m732.86,648.57l-7.78-50.22-121.65,12.47-121.8-12.47-7.61,50.22s-19.61,465.68-257.06,590.56l351.49,20.57h70.13l351.34-20.57c-237.45-124.88-257.06-590.56-257.06-590.56Z"/>
          <g class="cls-46">
            <path class="cls-20" d="m732.86,648.57l-7.78-50.22-121.65,12.47-121.8-12.47-7.61,50.22s-19.61,465.68-257.06,590.56l351.49,20.57h70.13l351.34-20.57c-237.45-124.88-257.06-590.56-257.06-590.56Z"/>
          </g>
          <path class="cls-21" d="m646.69,805.53c3.72,78.87,9.87,156.46,25.59,234.37,13.44,66.91,38.71,133.16,86.33,183.36,9.39,9.89,19.44,19.12,29.81,27.53l201.49-11.66c-237.45-124.88-257.06-590.56-257.06-590.56l-7.78-50.22-87.79,8.92c1.63,66.25,6.15,132,9.4,198.26Z"/>
          <polygon class="cls-23" points="473.53 648.57 577.05 648.57 630.01 648.57 733.19 648.57 914.76 568.7 630.01 568.7 577.05 568.7 292.29 568.7 473.53 648.57"/>
          <path class="cls-28" d="m945.53,1291.13l-195.51-15.06-146.74,5.18-146.44-5.18-195.65,15.06s-166.53,61.72-157.12,261.92c6.15,133.64,91.03,188.22,91.03,188.22h816.69s84.89-54.59,91.21-188.22c9.06-200.2-157.46-261.92-157.46-261.92Z"/>
          <g class="cls-49">
            <path class="cls-25" d="m945.53,1291.13l-195.51-15.06-146.74,5.18-146.44-5.18-195.65,15.06s-166.53,61.72-157.12,261.92c6.15,133.64,91.03,188.22,91.03,188.22h816.69s84.89-54.59,91.21-188.22c9.06-200.2-157.46-261.92-157.46-261.92Z"/>
          </g>
          <path class="cls-21" d="m945.53,1291.13l-150.95-11.66c46.81,51.02,84.71,111.76,89.9,182.39,4.69,64.14-11.66,129.42-41.8,185.95-18.29,34.17-41.95,66.25-69.98,93.47h239.08s84.89-54.59,91.21-188.22c9.06-200.2-157.46-261.92-157.46-261.92Z"/>
          <polygon class="cls-16" points="217.12 1239.13 261.19 1291.13 478.22 1291.13 723.47 1291.13 945.53 1291.13 989.6 1239.13 217.12 1239.13"/>
          <g class="cls-32">
            <path class="cls-11" d="m788.74,93.13c6.15,20.73,9.55,42.61,9.55,65.28,0,127.8-103.5,231.15-231.13,231.15-75.8,0-143.19-36.46-185.47-92.98,28.18,95.89,116.79,165.87,221.75,165.87,127.8,0,231.32-103.67,231.32-231.3,0-51.68-17.02-99.62-46.01-138.02Z"/>
          </g>
          <polygon class="cls-18" points="733.19 422.28 630.01 422.28 577.05 422.28 473.53 422.28 292.29 568.87 577.05 568.87 630.01 568.87 914.76 568.87 733.19 422.28"/>
          <g class="cls-45">
            <polygon class="cls-5" points="733.19 422.28 630.01 422.28 577.05 422.28 473.53 422.28 292.29 568.87 577.05 568.87 630.01 568.87 914.76 568.87 733.19 422.28"/>
          </g>
          <path class="cls-21" d="m666.93,469.58c21.06,24.13,44.55,46.33,63.66,72.23,6,8.26,12.16,17.5,17.17,27.05h167.01l-181.57-146.59h-106.75c13.93,15.39,26.72,31.58,40.49,47.3Z"/>
        </g>
        <g>
          <g class="cls-33">
            <path class="cls-2" d="m111.68,2003.34h198.26c-.98-34-.33-69.48,8.74-102.36,12.97-46.33,46.18-83.43,87.15-99.78h-137.02c-2.75,2.11-154.85,23.8-157.13,202.14Z"/>
          </g>
          <g class="cls-42">
            <path class="cls-15" d="m319.97,1292.9c-72.57,41.47-117.27,130.24-129.74,210.58-7.12,45.68-4.69,93.45,11.01,137.19,8.26,23.32,19.27,45.68,33.7,65.77,7.28,10.05,14.08,20.73,23.49,28.99,6.63,5.84,8.26,5.34,7.76,5.84-.15.15-.32.15-.65.32h139.79c-4.53-5.99-8.91-12.31-12.95-18.79-12.47-19.75-22.03-42.26-27.53-65.1-13.62-54.59-16.37-112.42-3.42-167.18,12.64-53.28,37.27-102.04,66.91-147.89,7.28-11.16,19.44-31.75,30.93-51.67h-138.98c.17.98.17,1.79-.33,1.94Z"/>
          </g>
          <g class="cls-56">
            <path class="cls-17" d="m454.9,200.53c0-86.66,51.67-162.95,125.54-199.39-32.89,3.23-63.51,13.27-90.88,28.99-13.29,10.68-25.43,22.84-35.63,35.15-29.97,34.82-48.43,77.58-51.68,123.75-3.23,45.99,5.51,93.45,26.9,134.6,10.52,20.25,23.49,39.68,39.84,55.88,7.93,7.94,16.35,15.71,25.59,22.19,6.32,4.38,23.32,16.19,26.89,19.61h92.17c-93.96-25.92-158.75-119.39-158.75-220.78Z"/>
          </g>
          <g class="cls-50">
            <path class="cls-7" d="m501.23,648.57c1.14,2.11.81,11.83-.48,25.1-3.23,31.27-11.01,83.1-14.75,108.21-10.2,68.67-25.59,137.19-44.39,204.1-21.21,74.66-49.73,148.53-100.58,208.29-3.73,4.05-48.75,46.97-50.06,45.03h197.46c.15-.48.32-.98.65-1.13,19.44-38.4,36.77-83.1,47.29-124.9,10.22-41.47,14.75-84.39,18.63-126.82,7.78-85.52,19.61-170.89,24.63-256.74,1.46-24.95,2.25-57.17,2.42-82.44h-82.29c.98.8,1.46,1.13,1.46,1.29Z"/>
          </g>
          <g class="cls-51">
            <path class="cls-24" d="m498.31,544.74c10.37-12.64,92.98-98.16,118.89-122.46-1.29-.32-2.42-.65-3.55-.96h-92.17c.48.65.65.96.48,1.13-10.37,20.25-34.5,38.07-50.21,53.46-23.17,22.84-46.66,45.02-69.5,67.86-8.91,9.07-17.81,16.04-26.39,25.28h115.16c-.33-.48-.48-.65-.65-1.14-.33-.15-5.67-7.28,7.93-23.15Z"/>
          </g>
        </g>
      </g>
    </g>
  </g>
</svg>