<?xml version="1.0" encoding="UTF-8"?>
<svg xmlns="http://www.w3.org/2000/svg" xmlns:xlink="http://www.w3.org/1999/xlink" viewBox="0 0 1206.36 2001.56">
  <defs>
    <style>
      .cls-1 {
        filter: url(#luminosity-noclip-11);
      }

      .cls-2 {
        fill: url(#linear-gradient-19);
      }

      .cls-2, .cls-3, .cls-4, .cls-5, .cls-6, .cls-7, .cls-8, .cls-9, .cls-10, .cls-11, .cls-12, .cls-13, .cls-14, .cls-15, .cls-16, .cls-17, .cls-18, .cls-19, .cls-20, .cls-21, .cls-22, .cls-23, .cls-24, .cls-25, .cls-26, .cls-27, .cls-28, .cls-29, .cls-30, .cls-31, .cls-32 {
        stroke-width: 0px;
      }

      .cls-2, .cls-4, .cls-9, .cls-10, .cls-11, .cls-12, .cls-33, .cls-22, .cls-28, .cls-29, .cls-31, .cls-32 {
        mix-blend-mode: multiply;
      }

      .cls-3 {
        fill: url(#linear-gradient-18);
      }

      .cls-3, .cls-6, .cls-8, .cls-14, .cls-15, .cls-21, .cls-33, .cls-25, .cls-26, .cls-27, .cls-28 {
        opacity: .5;
      }

      .cls-3, .cls-6, .cls-8, .cls-14, .cls-15, .cls-21, .cls-25, .cls-26, .cls-27 {
        mix-blend-mode: screen;
      }

      .cls-4 {
        fill: url(#linear-gradient-23);
      }

      .cls-34 {
        filter: url(#luminosity-noclip-17);
      }

      .cls-5 {
        fill: url(#linear-gradient);
      }

      .cls-35 {
        mask: url(#mask-10);
      }

      .cls-6 {
        fill: url(#linear-gradient-16);
      }

      .cls-36 {
        filter: url(#luminosity-noclip-7);
      }

      .cls-37 {
        filter: url(#luminosity-noclip-13);
      }

      .cls-38 {
        mask: url(#mask-17);
      }

      .cls-7 {
        fill: url(#linear-gradient-6);
      }

      .cls-8 {
        fill: url(#linear-gradient-24);
      }

      .cls-39 {
        filter: url(#luminosity-noclip-5);
      }

      .cls-9 {
        fill: url(#linear-gradient-15);
      }

      .cls-10 {
        fill: url(#linear-gradient-25);
      }

      .cls-40 {
        mask: url(#mask-2);
      }

      .cls-11 {
        fill: url(#linear-gradient-11);
      }

      .cls-41 {
        isolation: isolate;
      }

      .cls-42 {
        mask: url(#mask-13);
      }

      .cls-12 {
        fill: url(#radial-gradient);
      }

      .cls-43 {
        mask: url(#mask-3);
      }

      .cls-13 {
        fill: url(#linear-gradient-5);
      }

      .cls-44 {
        filter: url(#luminosity-noclip-15);
      }

      .cls-14 {
        fill: url(#radial-gradient-2);
      }

      .cls-45 {
        mask: url(#mask-9);
      }

      .cls-46 {
        mask: url(#mask-12);
      }

      .cls-47 {
        mask: url(#mask-5);
      }

      .cls-15 {
        fill: url(#linear-gradient-20);
      }

      .cls-16 {
        fill: url(#linear-gradient-13);
      }

      .cls-17 {
        fill: url(#linear-gradient-22);
      }

      .cls-18 {
        fill: #b9b8b9;
      }

      .cls-19 {
        fill: url(#linear-gradient-14);
      }

      .cls-20 {
        fill: url(#linear-gradient-2);
      }

      .cls-48 {
        filter: url(#luminosity-noclip-9);
      }

      .cls-21 {
        fill: url(#linear-gradient-8);
      }

      .cls-49 {
        mask: url(#mask-8);
      }

      .cls-50 {
        mask: url(#mask-4);
      }

      .cls-22 {
        fill: url(#linear-gradient-17);
      }

      .cls-23, .cls-28 {
        fill: #d0d0d1;
      }

      .cls-51 {
        mask: url(#mask-19);
      }

      .cls-52 {
        mask: url(#mask-15);
      }

      .cls-24 {
        fill: url(#linear-gradient-9);
      }

      .cls-25 {
        fill: url(#linear-gradient-26);
      }

      .cls-53 {
        mask: url(#mask-6);
      }

      .cls-54 {
        mask: url(#mask-16);
      }

      .cls-26 {
        fill: url(#linear-gradient-12);
      }

      .cls-55 {
        mask: url(#mask-18);
      }

      .cls-56 {
        filter: url(#luminosity-noclip);
      }

      .cls-57 {
        mask: url(#mask-1);
      }

      .cls-58 {
        mask: url(#mask);
      }

      .cls-27 {
        fill: url(#linear-gradient-4);
      }

      .cls-59 {
        mask: url(#mask-7);
      }

      .cls-29 {
        fill: url(#linear-gradient-3);
      }

      .cls-30 {
        fill: url(#linear-gradient-10);
      }

      .cls-31 {
        fill: url(#linear-gradient-7);
      }

      .cls-32 {
        fill: url(#linear-gradient-21);
      }

      .cls-60 {
        mask: url(#mask-14);
      }

      .cls-61 {
        filter: url(#luminosity-noclip-19);
      }

      .cls-62 {
        mask: url(#mask-11);
      }

      .cls-63 {
        filter: url(#luminosity-noclip-3);
      }
    </style>
    <linearGradient id="linear-gradient" x1="1649.75" y1="1773.16" x2="2525.76" y2="1773.16" gradientTransform="translate(-1725.62)" gradientUnits="userSpaceOnUse">
      <stop offset="0" stop-color="#b9b8b9"/>
      <stop offset=".2" stop-color="#e2e2e2"/>
      <stop offset=".29" stop-color="#d7d7d7"/>
      <stop offset=".46" stop-color="#c8c8c8"/>
      <stop offset=".6" stop-color="#c3c3c3"/>
      <stop offset="1" stop-color="#b9b8b9"/>
    </linearGradient>
    <linearGradient id="linear-gradient-2" x1="1725.77" y1="1901.15" x2="2931.98" y2="1901.15" gradientTransform="translate(-1725.62)" gradientUnits="userSpaceOnUse">
      <stop offset="0" stop-color="#e2e2e2"/>
      <stop offset=".09" stop-color="#d7d7d7"/>
      <stop offset=".27" stop-color="#c8c8c8"/>
      <stop offset=".42" stop-color="#c3c3c3"/>
      <stop offset=".85" stop-color="#b9b8b9"/>
    </linearGradient>
    <filter id="luminosity-noclip" x=".15" y="1800.74" width="1206.21" height="200.82" color-interpolation-filters="sRGB" filterUnits="userSpaceOnUse">
      <feFlood flood-color="#fff" result="bg"/>
      <feBlend in="SourceGraphic" in2="bg"/>
    </filter>
    <filter id="luminosity-noclip-2" x=".15" y="-9192" width="1206.21" height="32766" color-interpolation-filters="sRGB" filterUnits="userSpaceOnUse">
      <feFlood flood-color="#fff" result="bg"/>
      <feBlend in="SourceGraphic" in2="bg"/>
    </filter>
    <mask id="mask-1" x=".15" y="-9192" width="1206.21" height="32766" maskUnits="userSpaceOnUse"/>
    <linearGradient id="linear-gradient-3" x1="1765.4" y1="1901.15" x2="2247.77" y2="1901.15" gradientTransform="translate(-1725.62)" gradientUnits="userSpaceOnUse">
      <stop offset="0" stop-color="#fff"/>
      <stop offset=".07" stop-color="#dfdfdf"/>
      <stop offset=".21" stop-color="#8f8f8f"/>
      <stop offset=".43" stop-color="#101010"/>
      <stop offset=".46" stop-color="#000"/>
    </linearGradient>
    <mask id="mask" x=".15" y="1800.74" width="1206.21" height="200.82" maskUnits="userSpaceOnUse">
      <g class="cls-56">
        <g class="cls-57">
          <path class="cls-29" d="m1206.36,2000.77c0-110.38-68.95-200.02-154.06-200.02H154.19C69.23,1800.74.15,1890.39.15,2000.77v.8h1206.21v-.8Z"/>
        </g>
      </g>
    </mask>
    <linearGradient id="linear-gradient-4" x1="1765.4" y1="1901.15" x2="2247.77" y2="1901.15" gradientTransform="translate(-1725.62)" gradientUnits="userSpaceOnUse">
      <stop offset="0" stop-color="#fff"/>
      <stop offset=".25" stop-color="#dfdfdf"/>
      <stop offset=".46" stop-color="#c3c3c3"/>
    </linearGradient>
    <linearGradient id="linear-gradient-5" x1="2108.01" y1="231" x2="2580.34" y2="231" xlink:href="#linear-gradient-2"/>
    <filter id="luminosity-noclip-3" x="371.84" y="0" width="462.17" height="462" color-interpolation-filters="sRGB" filterUnits="userSpaceOnUse">
      <feFlood flood-color="#fff" result="bg"/>
      <feBlend in="SourceGraphic" in2="bg"/>
    </filter>
    <filter id="luminosity-noclip-4" x="371.84" y="-9192" width="462.17" height="32766" color-interpolation-filters="sRGB" filterUnits="userSpaceOnUse">
      <feFlood flood-color="#fff" result="bg"/>
      <feBlend in="SourceGraphic" in2="bg"/>
    </filter>
    <mask id="mask-3" x="371.84" y="-9192" width="462.17" height="32766" maskUnits="userSpaceOnUse"/>
    <radialGradient id="radial-gradient" cx="2554.22" cy="252" fx="2554.22" fy="252" r="399.32" gradientTransform="translate(-1725.62)" gradientUnits="userSpaceOnUse">
      <stop offset=".42" stop-color="#000"/>
      <stop offset=".46" stop-color="#101010"/>
      <stop offset=".73" stop-color="#8f8f8f"/>
      <stop offset=".92" stop-color="#dfdfdf"/>
      <stop offset="1" stop-color="#fff"/>
    </radialGradient>
    <mask id="mask-2" x="371.84" y="0" width="462.17" height="462" maskUnits="userSpaceOnUse">
      <g class="cls-63">
        <g class="cls-43">
          <path class="cls-12" d="m834.01,231.09c0,127.34-103.4,230.91-231.08,230.91s-231.09-103.57-231.09-230.91S475.24,0,602.93,0s231.08,103.57,231.08,231.09Z"/>
        </g>
      </g>
    </mask>
    <radialGradient id="radial-gradient-2" cx="2554.22" cy="252" fx="2554.22" fy="252" r="399.32" gradientTransform="translate(-1725.62)" gradientUnits="userSpaceOnUse">
      <stop offset=".42" stop-color="#c3c3c3"/>
      <stop offset=".68" stop-color="#dfdfdf"/>
      <stop offset="1" stop-color="#fff"/>
    </radialGradient>
    <linearGradient id="linear-gradient-6" x1="1942.44" y1="928.21" x2="2714.49" y2="928.21" xlink:href="#linear-gradient-2"/>
    <filter id="luminosity-noclip-5" x="216.82" y="597.93" width="772.05" height="660.56" color-interpolation-filters="sRGB" filterUnits="userSpaceOnUse">
      <feFlood flood-color="#fff" result="bg"/>
      <feBlend in="SourceGraphic" in2="bg"/>
    </filter>
    <filter id="luminosity-noclip-6" x="216.82" y="-9192" width="772.05" height="32766" color-interpolation-filters="sRGB" filterUnits="userSpaceOnUse">
      <feFlood flood-color="#fff" result="bg"/>
      <feBlend in="SourceGraphic" in2="bg"/>
    </filter>
    <mask id="mask-5" x="216.82" y="-9192" width="772.05" height="32766" maskUnits="userSpaceOnUse"/>
    <linearGradient id="linear-gradient-7" x1="2009.28" y1="928.21" x2="2475.76" y2="928.21" gradientTransform="translate(-1725.62)" gradientUnits="userSpaceOnUse">
      <stop offset="0" stop-color="#fff"/>
      <stop offset=".1" stop-color="#dfdfdf"/>
      <stop offset=".34" stop-color="#8f8f8f"/>
      <stop offset=".67" stop-color="#101010"/>
      <stop offset=".72" stop-color="#000"/>
    </linearGradient>
    <mask id="mask-4" x="216.82" y="597.93" width="772.05" height="660.56" maskUnits="userSpaceOnUse">
      <g class="cls-39">
        <g class="cls-47">
          <path class="cls-31" d="m732.05,647.94l-7.61-50.01-121.51,12.31-121.53-12.31-7.77,50.01s-19.59,465.23-256.81,589.99l350.98,20.56h70.08l351-20.56c-237.07-124.76-256.83-589.99-256.83-589.99Z"/>
        </g>
      </g>
    </mask>
    <linearGradient id="linear-gradient-8" x1="2009.28" y1="928.21" x2="2475.76" y2="928.21" gradientTransform="translate(-1725.62)" gradientUnits="userSpaceOnUse">
      <stop offset="0" stop-color="#fff"/>
      <stop offset=".39" stop-color="#dfdfdf"/>
      <stop offset=".72" stop-color="#c3c3c3"/>
    </linearGradient>
    <linearGradient id="linear-gradient-9" x1="1890.01" y1="608.05" x2="2430.47" y2="608.05" xlink:href="#linear-gradient"/>
    <linearGradient id="linear-gradient-10" x1="1829.11" y1="1507.21" x2="2827.66" y2="1507.21" xlink:href="#linear-gradient-2"/>
    <filter id="luminosity-noclip-7" x="103.49" y="1274.83" width="998.54" height="464.75" color-interpolation-filters="sRGB" filterUnits="userSpaceOnUse">
      <feFlood flood-color="#fff" result="bg"/>
      <feBlend in="SourceGraphic" in2="bg"/>
    </filter>
    <filter id="luminosity-noclip-8" x="103.49" y="-9192" width="998.54" height="32766" color-interpolation-filters="sRGB" filterUnits="userSpaceOnUse">
      <feFlood flood-color="#fff" result="bg"/>
      <feBlend in="SourceGraphic" in2="bg"/>
    </filter>
    <mask id="mask-7" x="103.49" y="-9192" width="998.54" height="32766" maskUnits="userSpaceOnUse"/>
    <linearGradient id="linear-gradient-11" x1="1818.65" y1="1507.21" x2="2717.56" y2="1507.21" gradientTransform="translate(-1725.62)" gradientUnits="userSpaceOnUse">
      <stop offset="0" stop-color="#fff"/>
      <stop offset=".14" stop-color="#b3b3b3"/>
      <stop offset=".27" stop-color="#737373"/>
      <stop offset=".39" stop-color="#414141"/>
      <stop offset=".5" stop-color="#1d1d1d"/>
      <stop offset=".58" stop-color="#070707"/>
      <stop offset=".64" stop-color="#000"/>
    </linearGradient>
    <mask id="mask-6" x="103.49" y="1274.83" width="998.54" height="464.75" maskUnits="userSpaceOnUse">
      <g class="cls-36">
        <g class="cls-59">
          <path class="cls-11" d="m944.7,1289.88l-195.33-15.05-146.43,5.19-146.62-5.19-195.32,15.05s-166.35,61.66-157.14,261.66c6.31,133.51,90.96,188.04,90.96,188.04h815.9s84.79-54.53,90.94-188.04c9.39-200.01-156.96-261.66-156.96-261.66Z"/>
        </g>
      </g>
    </mask>
    <linearGradient id="linear-gradient-12" x1="1818.65" y1="1507.21" x2="2717.56" y2="1507.21" gradientTransform="translate(-1725.62)" gradientUnits="userSpaceOnUse">
      <stop offset="0" stop-color="#fff"/>
      <stop offset=".25" stop-color="#e0e0e0"/>
      <stop offset=".48" stop-color="#cacaca"/>
      <stop offset=".64" stop-color="#c3c3c3"/>
    </linearGradient>
    <linearGradient id="linear-gradient-13" x1="1634.82" y1="1263.9" x2="2462.28" y2="1263.9" xlink:href="#linear-gradient"/>
    <linearGradient id="linear-gradient-14" x1="1993.05" y1="495.09" x2="2566.76" y2="495.09" xlink:href="#linear-gradient-2"/>
    <filter id="luminosity-noclip-9" x="292.07" y="421.87" width="621.71" height="146.45" color-interpolation-filters="sRGB" filterUnits="userSpaceOnUse">
      <feFlood flood-color="#fff" result="bg"/>
      <feBlend in="SourceGraphic" in2="bg"/>
    </filter>
    <filter id="luminosity-noclip-10" x="292.07" y="-9192" width="621.71" height="32766" color-interpolation-filters="sRGB" filterUnits="userSpaceOnUse">
      <feFlood flood-color="#fff" result="bg"/>
      <feBlend in="SourceGraphic" in2="bg"/>
    </filter>
    <mask id="mask-9" x="292.07" y="-9192" width="621.71" height="32766" maskUnits="userSpaceOnUse"/>
    <linearGradient id="linear-gradient-15" x1="2143.99" y1="495.09" x2="2567.9" y2="495.09" gradientTransform="translate(-1725.62)" gradientUnits="userSpaceOnUse">
      <stop offset="0" stop-color="#fff"/>
      <stop offset=".08" stop-color="#dfdfdf"/>
      <stop offset=".27" stop-color="#8f8f8f"/>
      <stop offset=".54" stop-color="#101010"/>
      <stop offset=".58" stop-color="#000"/>
    </linearGradient>
    <mask id="mask-8" x="292.07" y="421.87" width="621.71" height="146.45" maskUnits="userSpaceOnUse">
      <g class="cls-48">
        <g class="cls-45">
          <polygon class="cls-9" points="732.71 421.87 629.29 421.87 576.55 421.87 473.14 421.87 292.07 568.32 576.55 568.32 629.29 568.32 913.78 568.32 732.71 421.87"/>
        </g>
      </g>
    </mask>
    <linearGradient id="linear-gradient-16" x1="2143.99" y1="495.09" x2="2567.9" y2="495.09" gradientTransform="translate(-1725.62)" gradientUnits="userSpaceOnUse">
      <stop offset="0" stop-color="#fff"/>
      <stop offset=".32" stop-color="#dfdfdf"/>
      <stop offset=".58" stop-color="#c3c3c3"/>
    </linearGradient>
    <filter id="luminosity-noclip-11" x="111.47" y="1799.78" width="294.03" height="201.78" color-interpolation-filters="sRGB" filterUnits="userSpaceOnUse">
      <feFlood flood-color="#fff" result="bg"/>
      <feBlend in="SourceGraphic" in2="bg"/>
    </filter>
    <filter id="luminosity-noclip-12" x="111.47" y="-9192" width="294.03" height="32766" color-interpolation-filters="sRGB" filterUnits="userSpaceOnUse">
      <feFlood flood-color="#fff" result="bg"/>
      <feBlend in="SourceGraphic" in2="bg"/>
    </filter>
    <mask id="mask-11" x="111.47" y="-9192" width="294.03" height="32766" maskUnits="userSpaceOnUse"/>
    <linearGradient id="linear-gradient-17" x1="1923.51" y1="2000.61" x2="2046.95" y2="1743.87" gradientTransform="translate(-1725.62)" gradientUnits="userSpaceOnUse">
      <stop offset="0" stop-color="#fff"/>
      <stop offset=".13" stop-color="#dfdfdf"/>
      <stop offset=".41" stop-color="#8f8f8f"/>
      <stop offset=".83" stop-color="#101010"/>
      <stop offset=".88" stop-color="#000"/>
    </linearGradient>
    <mask id="mask-10" x="111.47" y="1799.78" width="294.03" height="201.78" maskUnits="userSpaceOnUse">
      <g class="cls-1">
        <g class="cls-62">
          <path class="cls-22" d="m111.47,2001.56h198.23c-.96-34.14-.48-69.58,8.75-102.26,13.11-46.45,46.12-83.18,87.04-99.52h-136.74c-3.07,1.61-155.02,23.61-157.29,201.78Z"/>
        </g>
      </g>
    </mask>
    <linearGradient id="linear-gradient-18" x1="1923.51" y1="2000.61" x2="2046.95" y2="1743.87" gradientTransform="translate(-1725.62)" gradientUnits="userSpaceOnUse">
      <stop offset="0" stop-color="#fff"/>
      <stop offset=".88" stop-color="#fff"/>
    </linearGradient>
    <filter id="luminosity-noclip-13" x="186.24" y="1289.71" width="272.5" height="450.35" color-interpolation-filters="sRGB" filterUnits="userSpaceOnUse">
      <feFlood flood-color="#fff" result="bg"/>
      <feBlend in="SourceGraphic" in2="bg"/>
    </filter>
    <filter id="luminosity-noclip-14" x="186.24" y="-9192" width="272.5" height="32766" color-interpolation-filters="sRGB" filterUnits="userSpaceOnUse">
      <feFlood flood-color="#fff" result="bg"/>
      <feBlend in="SourceGraphic" in2="bg"/>
    </filter>
    <mask id="mask-13" x="186.24" y="-9192" width="272.5" height="32766" maskUnits="userSpaceOnUse"/>
    <linearGradient id="linear-gradient-19" x1="1941.86" y1="1880.56" x2="2126.7" y2="1276.47" gradientTransform="translate(-1725.62)" gradientUnits="userSpaceOnUse">
      <stop offset="0" stop-color="#000"/>
      <stop offset=".07" stop-color="#1f1f1f"/>
      <stop offset=".22" stop-color="#6f6f6f"/>
      <stop offset=".45" stop-color="#eee"/>
      <stop offset=".48" stop-color="#fff"/>
      <stop offset=".52" stop-color="#f9f9f9"/>
      <stop offset=".57" stop-color="#ebebeb"/>
      <stop offset=".62" stop-color="#d3d3d3"/>
      <stop offset=".68" stop-color="#b1b1b1"/>
      <stop offset=".74" stop-color="#868686"/>
      <stop offset=".8" stop-color="#515151"/>
      <stop offset=".86" stop-color="#131313"/>
      <stop offset=".88" stop-color="#000"/>
    </linearGradient>
    <mask id="mask-12" x="186.24" y="1289.71" width="272.5" height="450.35" maskUnits="userSpaceOnUse">
      <g class="cls-37">
        <g class="cls-42">
          <path class="cls-2" d="m319.74,1291.82c-72.35,41.28-117.32,129.95-129.63,210.05-7.28,45.8-4.69,93.54,11,137.39,8.27,23.3,19.27,45.64,33.67,65.7,7.11,10.04,14.07,20.55,23.46,28.8,6.63,5.83,8.09,5.5,7.76,6-.15,0-.48.15-.65.31h139.49c-4.21-6.15-8.9-12.3-12.94-18.77-12.46-19.9-21.84-42.39-27.51-65.2-13.44-54.37-16.19-112.15-3.23-166.85,12.46-53.22,37.05-102.11,66.83-147.74,7.27-11.32,19.42-31.86,30.74-51.78h-138.84c.33,1.31.17,1.96-.15,2.1Z"/>
        </g>
      </g>
    </mask>
    <linearGradient id="linear-gradient-20" x1="1941.86" y1="1880.56" x2="2126.7" y2="1276.47" gradientTransform="translate(-1725.62)" gradientUnits="userSpaceOnUse">
      <stop offset="0" stop-color="#c3c3c3"/>
      <stop offset=".26" stop-color="#e2e2e2"/>
      <stop offset=".48" stop-color="#fff"/>
      <stop offset=".88" stop-color="#fff"/>
    </linearGradient>
    <filter id="luminosity-noclip-15" x="401.29" y="1.31" width="211.67" height="419.6" color-interpolation-filters="sRGB" filterUnits="userSpaceOnUse">
      <feFlood flood-color="#fff" result="bg"/>
      <feBlend in="SourceGraphic" in2="bg"/>
    </filter>
    <filter id="luminosity-noclip-16" x="401.29" y="-9192" width="211.67" height="32766" color-interpolation-filters="sRGB" filterUnits="userSpaceOnUse">
      <feFlood flood-color="#fff" result="bg"/>
      <feBlend in="SourceGraphic" in2="bg"/>
    </filter>
    <mask id="mask-15" x="401.29" y="-9192" width="211.67" height="32766" maskUnits="userSpaceOnUse"/>
    <linearGradient id="linear-gradient-21" x1="2192.73" y1="-8.85" x2="2278.97" y2="451.8" xlink:href="#linear-gradient-17"/>
    <mask id="mask-14" x="401.29" y="1.31" width="211.67" height="419.6" maskUnits="userSpaceOnUse">
      <g class="cls-44">
        <g class="cls-52">
          <path class="cls-32" d="m454.53,200.67c0-86.75,51.78-162.95,125.42-199.36-32.69,3.07-63.43,13.11-90.79,28.63-13.27,11-25.4,23.15-35.76,35.11-29.94,34.96-48.22,77.83-51.45,123.96-3.25,45.95,5.5,93.36,26.86,134.3,10.51,20.4,23.61,39.65,39.8,55.83,7.94,8.1,16.19,15.71,25.57,22.17,6.15,4.54,23.3,16.19,26.69,19.59h92.08c-93.69-25.9-158.43-119.11-158.43-220.24Z"/>
        </g>
      </g>
    </mask>
    <linearGradient id="linear-gradient-22" x1="2192.73" y1="-8.85" x2="2278.97" y2="451.8" xlink:href="#linear-gradient-18"/>
    <filter id="luminosity-noclip-17" x="290.78" y="646.81" width="290.78" height="591.35" color-interpolation-filters="sRGB" filterUnits="userSpaceOnUse">
      <feFlood flood-color="#fff" result="bg"/>
      <feBlend in="SourceGraphic" in2="bg"/>
    </filter>
    <filter id="luminosity-noclip-18" x="290.78" y="-9192" width="290.78" height="32766" color-interpolation-filters="sRGB" filterUnits="userSpaceOnUse">
      <feFlood flood-color="#fff" result="bg"/>
      <feBlend in="SourceGraphic" in2="bg"/>
    </filter>
    <mask id="mask-17" x="290.78" y="-9192" width="290.78" height="32766" maskUnits="userSpaceOnUse"/>
    <linearGradient id="linear-gradient-23" x1="2035.22" y1="1265.1" x2="2382.28" y2="656.61" xlink:href="#linear-gradient-17"/>
    <mask id="mask-16" x="290.78" y="646.81" width="290.78" height="591.35" maskUnits="userSpaceOnUse">
      <g class="cls-34">
        <g class="cls-38">
          <path class="cls-4" d="m500.81,647.77c1.14,2.44.65,11.98-.65,25.4-2.9,31.24-11,82.85-14.57,108.11-10.36,68.6-25.57,137.05-44.33,203.9-21.21,74.58-49.84,148.22-100.67,207.93-3.55,4.21-48.53,46.93-49.83,44.99h197.09c.33-.48.48-.96.65-1.13,19.42-38.19,36.9-82.85,47.26-124.61,10.52-41.58,14.71-84.31,18.77-126.86,7.75-85.44,19.4-170.56,24.42-256.33,1.46-24.92,2.44-57.28,2.58-82.36h-82.19c.8.65,1.44.96,1.44.96Z"/>
        </g>
      </g>
    </mask>
    <linearGradient id="linear-gradient-24" x1="2035.22" y1="1265.1" x2="2382.28" y2="656.61" xlink:href="#linear-gradient-18"/>
    <filter id="luminosity-noclip-19" x="375.4" y="420.91" width="241.12" height="147.58" color-interpolation-filters="sRGB" filterUnits="userSpaceOnUse">
      <feFlood flood-color="#fff" result="bg"/>
      <feBlend in="SourceGraphic" in2="bg"/>
    </filter>
    <filter id="luminosity-noclip-20" x="375.4" y="-9192" width="241.12" height="32766" color-interpolation-filters="sRGB" filterUnits="userSpaceOnUse">
      <feFlood flood-color="#fff" result="bg"/>
      <feBlend in="SourceGraphic" in2="bg"/>
    </filter>
    <mask id="mask-19" x="375.4" y="-9192" width="241.12" height="32766" maskUnits="userSpaceOnUse"/>
    <linearGradient id="linear-gradient-25" x1="2204.59" y1="580.12" x2="2245.17" y2="377.22" xlink:href="#linear-gradient-17"/>
    <mask id="mask-18" x="375.4" y="420.91" width="241.12" height="147.58" maskUnits="userSpaceOnUse">
      <g class="cls-61">
        <g class="cls-51">
          <path class="cls-10" d="m497.74,544.21c10.52-12.46,93.04-98.06,118.78-122.34-1.14-.15-2.27-.65-3.56-.96h-92.08c.65.81.81.96.65,1.13-10.36,20.23-34.47,38.03-50.33,53.57-22.97,22.82-46.43,44.97-69.25,67.79-8.91,8.9-17.81,16.02-26.55,25.09h115.21c-.31-.31-.65-.81-.81-.98-.15-.31-5.65-7.27,7.94-23.3Z"/>
        </g>
      </g>
    </mask>
    <linearGradient id="linear-gradient-26" x1="2204.59" y1="580.12" x2="2245.17" y2="377.22" xlink:href="#linear-gradient-18"/>
  </defs>
  <g class="cls-41">
    <g id="Capa_1" data-name="Capa 1">
      <g>
        <g>
          <g>
            <path class="cls-5" d="m1055.37,1788.13c0-26.88-20.88-48.55-46.6-48.55H197.72c-25.72,0-46.6,21.67-46.6,48.55,0,4.19.48,14.55,1.46,18.61l901.98-1.46c1.14-4.04.81-12.96.81-17.15Z"/>
            <g class="cls-33">
              <path class="cls-18" d="m1054.89,1780.84H151.6c-.31,2.44-.48,4.69-.48,7.29,0,4.19.48,14.55,1.46,18.61l901.98-1.46c1.14-4.04.81-12.96.81-17.15,0-2.6-.17-4.86-.48-7.29Z"/>
            </g>
            <path class="cls-20" d="m1206.36,2000.77c0-110.38-68.95-200.02-154.06-200.02H154.19C69.23,1800.74.15,1890.39.15,2000.77v.8h1206.21v-.8Z"/>
            <g class="cls-58">
              <path class="cls-27" d="m1206.36,2000.77c0-110.38-68.95-200.02-154.06-200.02H154.19C69.23,1800.74.15,1890.39.15,2000.77v.8h1206.21v-.8Z"/>
            </g>
            <path class="cls-28" d="m1052.3,1800.74h-329.16c-5,5.35-10.51,10.21-16.01,14.73-97.27,78.33-216.05,126.38-337.57,151.47-27.82,5.98-138.18,31.07-369.42,33.82-.33,0,0,.65,0,.8h1206.21v-.8c0-110.38-68.95-200.02-154.06-200.02Z"/>
          </g>
          <path class="cls-13" d="m834.01,231.09c0,127.34-103.4,230.91-231.08,230.91s-231.09-103.57-231.09-230.91S475.24,0,602.93,0s231.08,103.57,231.08,231.09Z"/>
          <g class="cls-40">
            <path class="cls-14" d="m834.01,231.09c0,127.34-103.4,230.91-231.08,230.91s-231.09-103.57-231.09-230.91S475.24,0,602.93,0s231.08,103.57,231.08,231.09Z"/>
          </g>
          <path class="cls-7" d="m732.05,647.94l-7.61-50.01-121.51,12.31-121.53-12.31-7.77,50.01s-19.59,465.23-256.81,589.99l350.98,20.56h70.08l351-20.56c-237.07-124.76-256.83-589.99-256.83-589.99Z"/>
          <g class="cls-50">
            <path class="cls-21" d="m732.05,647.94l-7.61-50.01-121.51,12.31-121.53-12.31-7.77,50.01s-19.59,465.23-256.81,589.99l350.98,20.56h70.08l351-20.56c-237.07-124.76-256.83-589.99-256.83-589.99Z"/>
          </g>
          <path class="cls-28" d="m645.97,804.58c3.89,79.12,10.04,156.47,25.57,234.32,13.59,66.99,38.51,133.18,86.41,183.17,9.38,9.88,19.42,19.11,29.78,27.52l201.15-11.67c-237.07-124.76-256.83-589.99-256.83-589.99l-7.61-50.01-87.69,8.91c1.61,66.02,6.15,131.87,9.21,197.74Z"/>
          <polygon class="cls-24" points="473.14 647.94 576.55 647.94 629.29 647.94 732.71 647.94 913.78 568.17 629.29 568.17 576.55 568.17 292.07 568.17 473.14 647.94"/>
          <path class="cls-30" d="m944.7,1289.88l-195.33-15.05-146.43,5.19-146.62-5.19-195.32,15.05s-166.35,61.66-157.14,261.66c6.31,133.51,90.96,188.04,90.96,188.04h815.9s84.79-54.53,90.94-188.04c9.39-200.01-156.96-261.66-156.96-261.66Z"/>
          <g class="cls-53">
            <path class="cls-26" d="m944.7,1289.88l-195.33-15.05-146.43,5.19-146.62-5.19-195.32,15.05s-166.35,61.66-157.14,261.66c6.31,133.51,90.96,188.04,90.96,188.04h815.9s84.79-54.53,90.94-188.04c9.39-200.01-156.96-261.66-156.96-261.66Z"/>
          </g>
          <path class="cls-28" d="m944.7,1289.88l-150.99-11.48c46.93,50.81,84.79,111.65,89.81,182.21,4.69,64.08-11.48,129.13-41.59,185.77-18.28,34.14-42.07,66.02-70.06,93.21h238.85s84.79-54.53,90.94-188.04c9.39-200.01-156.96-261.66-156.96-261.66Z"/>
          <polygon class="cls-16" points="216.97 1237.93 261 1289.88 477.84 1289.88 722.67 1289.88 944.7 1289.88 988.87 1237.93 216.97 1237.93"/>
          <g class="cls-33">
            <path class="cls-23" d="m788.04,93.06c6.15,20.71,9.56,42.55,9.56,65.2,0,127.68-103.42,231.09-230.93,231.09-75.89,0-143.22-36.59-185.29-93.06,28.17,95.81,116.67,165.7,221.55,165.7,127.68,0,231.08-103.57,231.08-230.91,0-51.78-17.15-99.69-45.97-138.03Z"/>
          </g>
          <polygon class="cls-19" points="732.71 421.87 629.29 421.87 576.55 421.87 473.14 421.87 292.07 568.32 576.55 568.32 629.29 568.32 913.78 568.32 732.71 421.87"/>
          <g class="cls-49">
            <polygon class="cls-6" points="732.71 421.87 629.29 421.87 576.55 421.87 473.14 421.87 292.07 568.32 576.55 568.32 629.29 568.32 913.78 568.32 732.71 421.87"/>
          </g>
          <path class="cls-28" d="m666.2,469.13c21.03,24.11,44.66,46.28,63.76,72.16,6.15,8.42,11.96,17.65,17.15,27.03h166.67l-181.07-146.45h-106.81c13.75,15.38,26.71,31.72,40.3,47.26Z"/>
        </g>
        <g>
          <g class="cls-35">
            <path class="cls-3" d="m111.47,2001.56h198.23c-.96-34.14-.48-69.58,8.75-102.26,13.11-46.45,46.12-83.18,87.04-99.52h-136.74c-3.07,1.61-155.02,23.61-157.29,201.78Z"/>
          </g>
          <g class="cls-46">
            <path class="cls-15" d="m319.74,1291.82c-72.35,41.28-117.32,129.95-129.63,210.05-7.28,45.8-4.69,93.54,11,137.39,8.27,23.3,19.27,45.64,33.67,65.7,7.11,10.04,14.07,20.55,23.46,28.8,6.63,5.83,8.09,5.5,7.76,6-.15,0-.48.15-.65.31h139.49c-4.21-6.15-8.9-12.3-12.94-18.77-12.46-19.9-21.84-42.39-27.51-65.2-13.44-54.37-16.19-112.15-3.23-166.85,12.46-53.22,37.05-102.11,66.83-147.74,7.27-11.32,19.42-31.86,30.74-51.78h-138.84c.33,1.31.17,1.96-.15,2.1Z"/>
          </g>
          <g class="cls-60">
            <path class="cls-17" d="m454.53,200.67c0-86.75,51.78-162.95,125.42-199.36-32.69,3.07-63.43,13.11-90.79,28.63-13.27,11-25.4,23.15-35.76,35.11-29.94,34.96-48.22,77.83-51.45,123.96-3.25,45.95,5.5,93.36,26.86,134.3,10.51,20.4,23.61,39.65,39.8,55.83,7.94,8.1,16.19,15.71,25.57,22.17,6.15,4.54,23.3,16.19,26.69,19.59h92.08c-93.69-25.9-158.43-119.11-158.43-220.24Z"/>
          </g>
          <g class="cls-54">
            <path class="cls-8" d="m500.81,647.77c1.14,2.44.65,11.98-.65,25.4-2.9,31.24-11,82.85-14.57,108.11-10.36,68.6-25.57,137.05-44.33,203.9-21.21,74.58-49.84,148.22-100.67,207.93-3.55,4.21-48.53,46.93-49.83,44.99h197.09c.33-.48.48-.96.65-1.13,19.42-38.19,36.9-82.85,47.26-124.61,10.52-41.58,14.71-84.31,18.77-126.86,7.75-85.44,19.4-170.56,24.42-256.33,1.46-24.92,2.44-57.28,2.58-82.36h-82.19c.8.65,1.44.96,1.44.96Z"/>
          </g>
          <g class="cls-55">
            <path class="cls-25" d="m497.74,544.21c10.52-12.46,93.04-98.06,118.78-122.34-1.14-.15-2.27-.65-3.56-.96h-92.08c.65.81.81.96.65,1.13-10.36,20.23-34.47,38.03-50.33,53.57-22.97,22.82-46.43,44.97-69.25,67.79-8.91,8.9-17.81,16.02-26.55,25.09h115.21c-.31-.31-.65-.81-.81-.98-.15-.31-5.65-7.27,7.94-23.3Z"/>
          </g>
        </g>
      </g>
    </g>
  </g>
</svg>