<?xml version="1.0" encoding="utf-8"?>
<!-- Generator: Adobe Illustrator 28.0.0, SVG Export Plug-In . SVG Version: 6.00 Build 0)  -->
<svg version="1.1" id="Capa_1" xmlns="http://www.w3.org/2000/svg" xmlns:xlink="http://www.w3.org/1999/xlink" x="0px" y="0px"
	 viewBox="0 0 2000 2000" style="enable-background:new 0 0 2000 2000;" xml:space="preserve">
<style type="text/css">
	.st0{fill:url(#SVGID_1_);}
	.st1{filter:url(#Adobe_OpacityMaskFilter);}
	.st2{filter:url(#Adobe_OpacityMaskFilter_00000166646118285799992610000010470800358220121000_);}
	
		.st3{mask:url(#SVGID_00000107580180372084673460000008237506671514520234_);fill:url(#SVGID_00000173857162649200337410000018185978281580435135_);}
	.st4{opacity:0.5;fill:url(#SVGID_00000058568577769275510060000005924048788731965607_);}
	.st5{fill:url(#SVGID_00000074413024710097512900000006161435304130113689_);}
	.st6{fill:url(#SVGID_00000087395186589142032180000003228096731129917851_);}
	.st7{fill:url(#SVGID_00000141438650215025327190000013331521404762679223_);}
	.st8{filter:url(#Adobe_OpacityMaskFilter_00000073710632829527220840000017547678597108412052_);}
	.st9{filter:url(#Adobe_OpacityMaskFilter_00000135691979777496124590000005354074842910734267_);}
	
		.st10{mask:url(#SVGID_00000009553359440900189880000006998006537689236379_);fill:url(#SVGID_00000117655195811935145980000010683069354734849960_);}
	.st11{opacity:0.5;fill:url(#SVGID_00000137126895202175572630000016711993916104605849_);}
	.st12{fill:url(#SVGID_00000150817470996353643430000001070205272807292563_);}
	.st13{opacity:0.5;}
	.st14{fill:#221F1F;}
	.st15{fill:url(#SVGID_00000049940248686148666060000004043626942691789220_);}
	.st16{fill:url(#SVGID_00000043433725546754305480000011611361064859161998_);}
	.st17{fill:url(#SVGID_00000142890937327695869000000000340599296848960393_);}
	.st18{fill:url(#SVGID_00000048483031160385774930000009909517095410895546_);}
	.st19{fill:url(#SVGID_00000035493830266664320250000001152055697740263042_);}
	.st20{fill:url(#SVGID_00000066503451299106718750000001725841909748058288_);}
	.st21{fill:url(#SVGID_00000109003430769206410390000002459180597718848149_);}
	.st22{fill:url(#SVGID_00000027582250841543253300000014861024160945830301_);}
	.st23{fill:url(#SVGID_00000026876513085634642770000001129429331407834781_);}
	.st24{filter:url(#Adobe_OpacityMaskFilter_00000068660191746687417620000012144022055531864492_);}
	.st25{filter:url(#Adobe_OpacityMaskFilter_00000124128934787829722330000010849482989967450003_);}
	
		.st26{mask:url(#SVGID_00000020363612443032815350000009552851465826412171_);fill:url(#SVGID_00000113312950652515633530000006749040800690785409_);}
	.st27{opacity:0.5;fill:url(#SVGID_00000104695940893865331760000013441226236453976739_);}
	.st28{filter:url(#Adobe_OpacityMaskFilter_00000129902384090443359660000006569579261933393035_);}
	.st29{filter:url(#Adobe_OpacityMaskFilter_00000047058430832247100420000005822112103756453770_);}
	
		.st30{mask:url(#SVGID_00000096038581930553289840000008632203831751076780_);fill:url(#SVGID_00000118368234267471803330000010062418892386995877_);}
	.st31{opacity:0.5;fill:url(#SVGID_00000059989439978347512810000018112878472590358171_);}
	.st32{filter:url(#Adobe_OpacityMaskFilter_00000160150812793386661760000012107403917837559951_);}
	.st33{filter:url(#Adobe_OpacityMaskFilter_00000071530459827387633450000007140577270521327018_);}
	
		.st34{mask:url(#SVGID_00000028302882737939842440000017271963446160931458_);fill:url(#SVGID_00000132793361668458544690000015042410091403110579_);}
	.st35{opacity:0.5;fill:url(#SVGID_00000014597596436684297450000002536959111957855891_);}
	.st36{filter:url(#Adobe_OpacityMaskFilter_00000059279760941713500740000005480589969433617313_);}
	.st37{filter:url(#Adobe_OpacityMaskFilter_00000119824830612444478590000007416283411851877036_);}
	
		.st38{mask:url(#SVGID_00000123427930221594866960000003495872967007727002_);fill:url(#SVGID_00000016767884495484363430000006872141918943642022_);}
	.st39{opacity:0.5;fill:url(#SVGID_00000062885150814245917260000012023143547085840301_);}
	.st40{filter:url(#Adobe_OpacityMaskFilter_00000096759298370094989380000014590849341773082010_);}
	.st41{filter:url(#Adobe_OpacityMaskFilter_00000002344221476799346670000013137514096731825585_);}
	
		.st42{mask:url(#SVGID_00000063596748207833948980000013392172138309677756_);fill:url(#SVGID_00000156563637804048227910000006499864384259482779_);}
	.st43{fill:url(#SVGID_00000129920588609401607580000014539804308171485373_);}
	.st44{fill:url(#SVGID_00000173875194961924100630000004915445870934331553_);}
	.st45{opacity:0.5;fill:url(#SVGID_00000017494797577840767020000003758773190739475385_);}
	.st46{fill:url(#SVGID_00000080906913808285846460000016198282049004527780_);}
	.st47{opacity:0.5;fill:url(#SVGID_00000048476463013602335770000013228870933735409051_);}
</style>
<g>
	<linearGradient id="SVGID_1_" gradientUnits="userSpaceOnUse" x1="677.4778" y1="909.6647" x2="1210.1018" y2="909.6647">
		<stop  offset="0" style="stop-color:#A4A6A9"/>
		<stop  offset="4.485302e-02" style="stop-color:#939598"/>
		<stop  offset="0.1536" style="stop-color:#717375"/>
		<stop  offset="0.2558" style="stop-color:#585A5B"/>
		<stop  offset="0.3479" style="stop-color:#484A4B"/>
		<stop  offset="0.4212" style="stop-color:#434546"/>
		<stop  offset="0.7726" style="stop-color:#292727"/>
		<stop  offset="0.8535" style="stop-color:#221F1F"/>
	</linearGradient>
	<path class="st0" d="M1160.2,582.7c-26.4-153.5,92.8-154.8,92.8-154.8l-0.5-17.6h-131.3H878.8H747.4l-0.5,17.6
		c0,0,119.2,1.3,92.8,154.8c-26.4,153.8-143.3,802.5-143.3,802.5v23.8h182.2h242.5h182.2v-23.8
		C1303.5,1385.2,1186.5,736.5,1160.2,582.7z"/>
	<path d="M1058.5,546.3c9.3,57.9,60.1,740.7,97.5,833.4c4.1,10,8.6,19.9,13.4,29.4h134.1v-23.8c0,0-116.9-648.7-143.2-802.5
		c-26.4-153.5,92.8-154.8,92.8-154.8l-0.5-17.6l-149.7-0.7C1041,423.4,1051.3,500.7,1058.5,546.3z"/>
	<defs>
		<filter id="Adobe_OpacityMaskFilter" filterUnits="userSpaceOnUse" x="696.5" y="410.3" width="606.9" height="998.8">
			<feFlood  style="flood-color:white;flood-opacity:1" result="back"/>
			<feBlend  in="SourceGraphic" in2="back" mode="normal"/>
		</filter>
	</defs>
	
		<mask maskUnits="userSpaceOnUse" x="696.5" y="410.3" width="606.9" height="998.8" id="SVGID_00000031917776025422005520000016986661142723164604_">
		<g class="st1">
			<defs>
				
					<filter id="Adobe_OpacityMaskFilter_00000137133782505769498400000008688235129112973715_" filterUnits="userSpaceOnUse" x="696.5" y="410.3" width="606.9" height="998.8">
					<feFlood  style="flood-color:white;flood-opacity:1" result="back"/>
					<feBlend  in="SourceGraphic" in2="back" mode="normal"/>
				</filter>
			</defs>
			
				<mask maskUnits="userSpaceOnUse" x="696.5" y="410.3" width="606.9" height="998.8" id="SVGID_00000031917776025422005520000016986661142723164604_">
				<g style="filter:url(#Adobe_OpacityMaskFilter_00000137133782505769498400000008688235129112973715_);">
				</g>
			</mask>
			
				<linearGradient id="SVGID_00000035519766825849929460000006198830096779680427_" gradientUnits="userSpaceOnUse" x1="699.8294" y1="909.6647" x2="1301.3619" y2="909.6647">
				<stop  offset="0.1042" style="stop-color:#FFFFFF"/>
				<stop  offset="0.1646" style="stop-color:#DBDBDB"/>
				<stop  offset="0.2851" style="stop-color:#9A9A9A"/>
				<stop  offset="0.3998" style="stop-color:#636363"/>
				<stop  offset="0.5056" style="stop-color:#383838"/>
				<stop  offset="0.6004" style="stop-color:#191919"/>
				<stop  offset="0.6808" style="stop-color:#070707"/>
				<stop  offset="0.7374" style="stop-color:#000000"/>
			</linearGradient>
			
				<path style="mask:url(#SVGID_00000031917776025422005520000016986661142723164604_);fill:url(#SVGID_00000035519766825849929460000006198830096779680427_);" d="
				M1160.2,582.7c-26.4-153.5,92.8-154.8,92.8-154.8l-0.5-17.6h-131.3H878.8H747.4l-0.5,17.6c0,0,119.2,1.3,92.8,154.8
				c-26.4,153.8-143.3,802.5-143.3,802.5v23.8h182.2h242.5h182.2v-23.8C1303.5,1385.2,1186.5,736.5,1160.2,582.7z"/>
		</g>
	</mask>
	
		<linearGradient id="SVGID_00000163066494844709215570000008033241412118517892_" gradientUnits="userSpaceOnUse" x1="699.8294" y1="909.6647" x2="1301.3619" y2="909.6647">
		<stop  offset="0.1042" style="stop-color:#FFFFFF"/>
		<stop  offset="0.1861" style="stop-color:#DCDCDC"/>
		<stop  offset="0.3246" style="stop-color:#A6A7A7"/>
		<stop  offset="0.4539" style="stop-color:#7B7C7D"/>
		<stop  offset="0.5698" style="stop-color:#5C5E5F"/>
		<stop  offset="0.6682" style="stop-color:#4A4C4D"/>
		<stop  offset="0.7374" style="stop-color:#434546"/>
	</linearGradient>
	<path style="opacity:0.5;fill:url(#SVGID_00000163066494844709215570000008033241412118517892_);" d="M1160.2,582.7
		c-26.4-153.5,92.8-154.8,92.8-154.8l-0.5-17.6h-131.3H878.8H747.4l-0.5,17.6c0,0,119.2,1.3,92.8,154.8
		c-26.4,153.8-143.3,802.5-143.3,802.5v23.8h182.2h242.5h182.2v-23.8C1303.5,1385.2,1186.5,736.5,1160.2,582.7z"/>
	<polygon points="1000,299.3 605.6,351.6 643,388.9 786.8,388.9 1213.2,388.9 1357,388.9 1394.4,351.6 	"/>
	<g>
		
			<linearGradient id="SVGID_00000183212558959269268540000013741730831470235787_" gradientUnits="userSpaceOnUse" x1="127.8021" y1="1692.7821" x2="916.472" y2="1692.7821">
			<stop  offset="1.335300e-02" style="stop-color:#434546"/>
			<stop  offset="4.344626e-02" style="stop-color:#414344"/>
			<stop  offset="0.3659" style="stop-color:#302F2F"/>
			<stop  offset="0.6862" style="stop-color:#252323"/>
			<stop  offset="1" style="stop-color:#221F1F"/>
		</linearGradient>
		<path style="fill:url(#SVGID_00000183212558959269268540000013741730831470235787_);" d="M507.8,1672.4c-0.9,0.5-1.8,1.1-2.7,1.6
			l94.1,79.3h255.5h290.4h255.5l94.1-79.3c-0.9-0.5-1.9-1.1-2.8-1.6l-505.7-40L507.8,1672.4z"/>
		
			<linearGradient id="SVGID_00000147182942455598697580000014956191500139296424_" gradientUnits="userSpaceOnUse" x1="127.7439" y1="1729.066" x2="916.4221" y2="1729.066">
			<stop  offset="1.335300e-02" style="stop-color:#434546"/>
			<stop  offset="4.344626e-02" style="stop-color:#414344"/>
			<stop  offset="0.3659" style="stop-color:#302F2F"/>
			<stop  offset="0.6862" style="stop-color:#252323"/>
			<stop  offset="1" style="stop-color:#221F1F"/>
		</linearGradient>
		<polygon style="fill:url(#SVGID_00000147182942455598697580000014956191500139296424_);" points="541.7,1704.9 599.3,1753.3 
			1400.8,1753.3 1458.2,1704.9 		"/>
		
			<linearGradient id="SVGID_00000169536546752323794110000013617226686172792244_" gradientUnits="userSpaceOnUse" x1="460.2078" y1="1540.9519" x2="1318.973" y2="1540.9519">
			<stop  offset="0" style="stop-color:#A4A6A9"/>
			<stop  offset="4.485302e-02" style="stop-color:#939598"/>
			<stop  offset="0.1536" style="stop-color:#717375"/>
			<stop  offset="0.2558" style="stop-color:#585A5B"/>
			<stop  offset="0.3479" style="stop-color:#484A4B"/>
			<stop  offset="0.4212" style="stop-color:#434546"/>
			<stop  offset="0.7726" style="stop-color:#292727"/>
			<stop  offset="0.8535" style="stop-color:#221F1F"/>
		</linearGradient>
		<path style="fill:url(#SVGID_00000169536546752323794110000013617226686172792244_);" d="M1296.1,1409.5l-296.2,7.7l-296.1-7.7
			c0,0-52.1,171.8-196,262.8h984.2C1348.3,1581.3,1296.1,1409.5,1296.1,1409.5z"/>
		<path d="M1255.9,1666.1c1.4,2.1,2.7,4.3,4,6.2h232.2c-143.8-91-196-262.8-196-262.8l-122.2,2.3
			C1187.5,1501.7,1207.8,1586,1255.9,1666.1z"/>
		<defs>
			
				<filter id="Adobe_OpacityMaskFilter_00000012442605283655176980000015505774267529790907_" filterUnits="userSpaceOnUse" x="507.8" y="1409.5" width="984.2" height="262.8">
				<feFlood  style="flood-color:white;flood-opacity:1" result="back"/>
				<feBlend  in="SourceGraphic" in2="back" mode="normal"/>
			</filter>
		</defs>
		
			<mask maskUnits="userSpaceOnUse" x="507.8" y="1409.5" width="984.2" height="262.8" id="SVGID_00000057146781624544138310000005572033227873992631_">
			<g style="filter:url(#Adobe_OpacityMaskFilter_00000012442605283655176980000015505774267529790907_);">
				<defs>
					
						<filter id="Adobe_OpacityMaskFilter_00000167366407806865856340000018175584070989442735_" filterUnits="userSpaceOnUse" x="507.8" y="1409.5" width="984.2" height="262.8">
						<feFlood  style="flood-color:white;flood-opacity:1" result="back"/>
						<feBlend  in="SourceGraphic" in2="back" mode="normal"/>
					</filter>
				</defs>
				
					<mask maskUnits="userSpaceOnUse" x="507.8" y="1409.5" width="984.2" height="262.8" id="SVGID_00000057146781624544138310000005572033227873992631_">
					<g style="filter:url(#Adobe_OpacityMaskFilter_00000167366407806865856340000018175584070989442735_);">
					</g>
				</mask>
				
					<linearGradient id="SVGID_00000119825582958929823320000010000034761362130066_" gradientUnits="userSpaceOnUse" x1="556.4975" y1="1540.9519" x2="1349.7402" y2="1540.9519">
					<stop  offset="8.361540e-02" style="stop-color:#FFFFFF"/>
					<stop  offset="0.146" style="stop-color:#DBDBDB"/>
					<stop  offset="0.2704" style="stop-color:#9A9A9A"/>
					<stop  offset="0.3889" style="stop-color:#636363"/>
					<stop  offset="0.498" style="stop-color:#383838"/>
					<stop  offset="0.5959" style="stop-color:#191919"/>
					<stop  offset="0.679" style="stop-color:#070707"/>
					<stop  offset="0.7374" style="stop-color:#000000"/>
				</linearGradient>
				
					<path style="mask:url(#SVGID_00000057146781624544138310000005572033227873992631_);fill:url(#SVGID_00000119825582958929823320000010000034761362130066_);" d="
					M1296.1,1409.5l-296.2,7.7l-296.1-7.7c0,0-52.1,171.8-196,262.8h984.2C1348.3,1581.3,1296.1,1409.5,1296.1,1409.5z"/>
			</g>
		</mask>
		
			<linearGradient id="SVGID_00000046316380921039710900000007395420444869521338_" gradientUnits="userSpaceOnUse" x1="556.4975" y1="1540.9519" x2="1349.7402" y2="1540.9519">
			<stop  offset="8.361540e-02" style="stop-color:#FFFFFF"/>
			<stop  offset="0.1682" style="stop-color:#DCDCDC"/>
			<stop  offset="0.3112" style="stop-color:#A6A7A7"/>
			<stop  offset="0.4446" style="stop-color:#7B7C7D"/>
			<stop  offset="0.5643" style="stop-color:#5C5E5F"/>
			<stop  offset="0.6659" style="stop-color:#4A4C4D"/>
			<stop  offset="0.7374" style="stop-color:#434546"/>
		</linearGradient>
		<path style="opacity:0.5;fill:url(#SVGID_00000046316380921039710900000007395420444869521338_);" d="M1296.1,1409.5l-296.2,7.7
			l-296.1-7.7c0,0-52.1,171.8-196,262.8h984.2C1348.3,1581.3,1296.1,1409.5,1296.1,1409.5z"/>
	</g>
	<g>
		<g>
			
				<linearGradient id="SVGID_00000091693349692975686180000004844907098978117784_" gradientUnits="userSpaceOnUse" x1="400.6216" y1="1773.1156" x2="1115.886" y2="1773.1156">
				<stop  offset="0" style="stop-color:#A4A6A9"/>
				<stop  offset="4.485302e-02" style="stop-color:#939598"/>
				<stop  offset="0.1536" style="stop-color:#717375"/>
				<stop  offset="0.2558" style="stop-color:#585A5B"/>
				<stop  offset="0.3479" style="stop-color:#484A4B"/>
				<stop  offset="0.4212" style="stop-color:#434546"/>
				<stop  offset="0.7726" style="stop-color:#292727"/>
				<stop  offset="0.8535" style="stop-color:#221F1F"/>
			</linearGradient>
			<path style="fill:url(#SVGID_00000091693349692975686180000004844907098978117784_);" d="M1457.1,1788.2c0-27.1-21.1-49-47.2-49
				H590.1c-26.1,0-47.2,21.9-47.2,49c0,4.2,0.6,14.7,1.6,18.8l911.9-1.3C1457.4,1801.5,1457.1,1792.5,1457.1,1788.2z"/>
		</g>
		<g class="st13">
			<path class="st14" d="M1456.5,1781H543.4c-0.3,2.3-0.6,4.7-0.6,7.2c0,4.2,0.6,14.7,1.6,18.8l911.9-1.3c1.1-4.2,0.7-13.2,0.7-17.5
				C1457.1,1785.8,1456.9,1783.3,1456.5,1781z"/>
		</g>
		
			<linearGradient id="SVGID_00000049215836393182128880000008460437240182699655_" gradientUnits="userSpaceOnUse" x1="390.4112" y1="1902.4692" x2="1609.5887" y2="1902.4692">
			<stop  offset="0" style="stop-color:#A4A6A9"/>
			<stop  offset="4.485302e-02" style="stop-color:#939598"/>
			<stop  offset="0.1536" style="stop-color:#717375"/>
			<stop  offset="0.2558" style="stop-color:#585A5B"/>
			<stop  offset="0.3479" style="stop-color:#484A4B"/>
			<stop  offset="0.4212" style="stop-color:#434546"/>
			<stop  offset="0.7726" style="stop-color:#292727"/>
			<stop  offset="0.8535" style="stop-color:#221F1F"/>
		</linearGradient>
		<path style="fill:url(#SVGID_00000049215836393182128880000008460437240182699655_);" d="M1609.6,2003.1
			c0-111.6-69.8-202-155.7-202H546c-85.9,0-155.6,90.4-155.6,202c0,0.3,0,0.7,0,0.7h1219.2
			C1609.6,2003.8,1609.6,2003.5,1609.6,2003.1z"/>
		<path class="st14" d="M1453.9,1801.1h-202.4c-67.7,79.6-220,128.6-291.3,150.9c-79.2,24.5-162.3,42.8-246.5,51.8h895.9
			c0,0,0-0.3,0-0.7C1609.6,1891.5,1539.8,1801.1,1453.9,1801.1z"/>
	</g>
	<g>
		
			<linearGradient id="SVGID_00000064316007339023397540000017001892705694153130_" gradientUnits="userSpaceOnUse" x1="734.1381" y1="120.0033" x2="762.4891" y2="120.0033">
			<stop  offset="0.1465" style="stop-color:#221F1F"/>
			<stop  offset="0.2274" style="stop-color:#292727"/>
			<stop  offset="0.5788" style="stop-color:#434546"/>
			<stop  offset="0.6521" style="stop-color:#484A4B"/>
			<stop  offset="0.7442" style="stop-color:#585A5B"/>
			<stop  offset="0.8464" style="stop-color:#717375"/>
			<stop  offset="0.9551" style="stop-color:#939598"/>
			<stop  offset="1" style="stop-color:#A4A6A9"/>
		</linearGradient>
		<polygon style="fill:url(#SVGID_00000064316007339023397540000017001892705694153130_);" points="762.5,57.4 734.1,16.4 
			734.1,223.6 762.5,193.2 		"/>
		
			<linearGradient id="SVGID_00000170972218443401929710000001301593144434160024_" gradientUnits="userSpaceOnUse" x1="780.221" y1="186.3531" x2="780.221" y2="223.5785">
			<stop  offset="0" style="stop-color:#A4A6A9"/>
			<stop  offset="4.485302e-02" style="stop-color:#939598"/>
			<stop  offset="0.1536" style="stop-color:#717375"/>
			<stop  offset="0.2558" style="stop-color:#585A5B"/>
			<stop  offset="0.3479" style="stop-color:#484A4B"/>
			<stop  offset="0.4212" style="stop-color:#434546"/>
			<stop  offset="0.7726" style="stop-color:#292727"/>
			<stop  offset="0.8535" style="stop-color:#221F1F"/>
		</linearGradient>
		<polygon style="fill:url(#SVGID_00000170972218443401929710000001301593144434160024_);" points="762.5,193.2 734.1,223.6 
			826.3,223.6 826.3,193.2 		"/>
	</g>
	
		<linearGradient id="SVGID_00000160177850899365698430000001743455710869745072_" gradientUnits="userSpaceOnUse" x1="940.8796" y1="115.677" x2="970.536" y2="115.677">
		<stop  offset="0.1465" style="stop-color:#221F1F"/>
		<stop  offset="0.2274" style="stop-color:#292727"/>
		<stop  offset="0.5788" style="stop-color:#434546"/>
		<stop  offset="0.6521" style="stop-color:#484A4B"/>
		<stop  offset="0.7442" style="stop-color:#585A5B"/>
		<stop  offset="0.8464" style="stop-color:#717375"/>
		<stop  offset="0.9551" style="stop-color:#939598"/>
		<stop  offset="1" style="stop-color:#A4A6A9"/>
	</linearGradient>
	<polygon style="fill:url(#SVGID_00000160177850899365698430000001743455710869745072_);" points="970.5,48.9 940.9,7.7 
		940.9,223.6 970.5,193.2 	"/>
	
		<linearGradient id="SVGID_00000078729171723490174850000017650590502012965516_" gradientUnits="userSpaceOnUse" x1="1031.0204" y1="115.7607" x2="1059.3715" y2="115.7607">
		<stop  offset="0" style="stop-color:#A4A6A9"/>
		<stop  offset="4.485302e-02" style="stop-color:#939598"/>
		<stop  offset="0.1536" style="stop-color:#717375"/>
		<stop  offset="0.2558" style="stop-color:#585A5B"/>
		<stop  offset="0.3479" style="stop-color:#484A4B"/>
		<stop  offset="0.4212" style="stop-color:#434546"/>
		<stop  offset="0.7726" style="stop-color:#292727"/>
		<stop  offset="0.8535" style="stop-color:#221F1F"/>
	</linearGradient>
	<polygon style="fill:url(#SVGID_00000078729171723490174850000017650590502012965516_);" points="1031,48.9 1059.4,7.9 
		1059.4,223.6 1031,193.2 	"/>
	
		<linearGradient id="SVGID_00000075853394512584292420000012963896111724933030_" gradientUnits="userSpaceOnUse" x1="998.4519" y1="185.353" x2="998.4519" y2="227.9901">
		<stop  offset="0" style="stop-color:#A4A6A9"/>
		<stop  offset="4.485302e-02" style="stop-color:#939598"/>
		<stop  offset="0.1536" style="stop-color:#717375"/>
		<stop  offset="0.2558" style="stop-color:#585A5B"/>
		<stop  offset="0.3479" style="stop-color:#484A4B"/>
		<stop  offset="0.4212" style="stop-color:#434546"/>
		<stop  offset="0.7726" style="stop-color:#292727"/>
		<stop  offset="0.8535" style="stop-color:#221F1F"/>
	</linearGradient>
	<polygon style="fill:url(#SVGID_00000075853394512584292420000012963896111724933030_);" points="970.5,193.2 936.5,228 
		1060.4,223.6 1031,193.2 	"/>
	<g>
		
			<linearGradient id="SVGID_00000077282430690397621700000015086212816397746107_" gradientUnits="userSpaceOnUse" x1="1239.1511" y1="120.7397" x2="1267.5188" y2="120.7397">
			<stop  offset="0" style="stop-color:#A4A6A9"/>
			<stop  offset="4.485302e-02" style="stop-color:#939598"/>
			<stop  offset="0.1536" style="stop-color:#717375"/>
			<stop  offset="0.2558" style="stop-color:#585A5B"/>
			<stop  offset="0.3479" style="stop-color:#484A4B"/>
			<stop  offset="0.4212" style="stop-color:#434546"/>
			<stop  offset="0.7726" style="stop-color:#292727"/>
			<stop  offset="0.8535" style="stop-color:#221F1F"/>
		</linearGradient>
		<polygon style="fill:url(#SVGID_00000077282430690397621700000015086212816397746107_);" points="1239.2,57.4 1267.5,16.4 
			1267.5,225.1 1239.2,193.2 		"/>
		
			<linearGradient id="SVGID_00000029724322957411902190000015175913427200542607_" gradientUnits="userSpaceOnUse" x1="1219.8292" y1="185.872" x2="1219.8292" y2="225.7007">
			<stop  offset="0" style="stop-color:#A4A6A9"/>
			<stop  offset="4.485302e-02" style="stop-color:#939598"/>
			<stop  offset="0.1536" style="stop-color:#717375"/>
			<stop  offset="0.2558" style="stop-color:#585A5B"/>
			<stop  offset="0.3479" style="stop-color:#484A4B"/>
			<stop  offset="0.4212" style="stop-color:#434546"/>
			<stop  offset="0.7726" style="stop-color:#292727"/>
			<stop  offset="0.8535" style="stop-color:#221F1F"/>
		</linearGradient>
		<polygon style="fill:url(#SVGID_00000029724322957411902190000015175913427200542607_);" points="1239.2,193.2 1268,225.8 
			1172.2,225.8 1171.7,193.2 		"/>
	</g>
	
		<linearGradient id="SVGID_00000002348002084653035850000016227710767944732070_" gradientUnits="userSpaceOnUse" x1="435.0103" y1="175.8032" x2="1294.5835" y2="175.8032">
		<stop  offset="0" style="stop-color:#A4A6A9"/>
		<stop  offset="2.081141e-02" style="stop-color:#939598"/>
		<stop  offset="7.127236e-02" style="stop-color:#717375"/>
		<stop  offset="0.1187" style="stop-color:#585A5B"/>
		<stop  offset="0.1614" style="stop-color:#484A4B"/>
		<stop  offset="0.1954" style="stop-color:#434546"/>
		<stop  offset="0.6123" style="stop-color:#292727"/>
		<stop  offset="0.7083" style="stop-color:#221F1F"/>
	</linearGradient>
	<path style="fill:url(#SVGID_00000002348002084653035850000016227710767944732070_);" d="M1265.8,16.4v207.2H1174V14.8
		c-53.9-28.4-115.1-7-115.1-7v215.7h-54.2h-9.6H941V7.7c0,0-61.2-21.4-115.1,7v208.9h-91.8V16.4c0,0-75.5-17.6-128.6,15.4v319.9
		h788.9V31.7C1341.4-1.3,1265.8,16.4,1265.8,16.4z"/>
	<path d="M1298.2,12.3c6.4,47.9,4.5,97.1-2,144.8c-8.8,63.6-25.8,113.8-80.2,151.8c-29.3,20.4-60.5,34.5-92.2,42.7h270.7V31.7
		C1363.5,12.6,1325,10.7,1298.2,12.3z"/>
	<defs>
		
			<filter id="Adobe_OpacityMaskFilter_00000119116390853428545060000017198213143358808748_" filterUnits="userSpaceOnUse" x="605.5" y="0" width="788.9" height="351.6">
			<feFlood  style="flood-color:white;flood-opacity:1" result="back"/>
			<feBlend  in="SourceGraphic" in2="back" mode="normal"/>
		</filter>
	</defs>
	
		<mask maskUnits="userSpaceOnUse" x="605.5" y="0" width="788.9" height="351.6" id="SVGID_00000063601310609834311710000010576159364660300966_">
		<g style="filter:url(#Adobe_OpacityMaskFilter_00000119116390853428545060000017198213143358808748_);">
			<defs>
				
					<filter id="Adobe_OpacityMaskFilter_00000101793072302459289870000006614921437057213858_" filterUnits="userSpaceOnUse" x="605.5" y="0" width="788.9" height="351.6">
					<feFlood  style="flood-color:white;flood-opacity:1" result="back"/>
					<feBlend  in="SourceGraphic" in2="back" mode="normal"/>
				</filter>
			</defs>
			
				<mask maskUnits="userSpaceOnUse" x="605.5" y="0" width="788.9" height="351.6" id="SVGID_00000063601310609834311710000010576159364660300966_">
				<g style="filter:url(#Adobe_OpacityMaskFilter_00000101793072302459289870000006614921437057213858_);">
				</g>
			</mask>
			
				<linearGradient id="SVGID_00000128484720311015906000000012411080707165369498_" gradientUnits="userSpaceOnUse" x1="1139.1222" y1="401.0497" x2="860.9775" y2="-17.4474">
				<stop  offset="0.1154" style="stop-color:#000000"/>
				<stop  offset="0.2103" style="stop-color:#252525"/>
				<stop  offset="0.4601" style="stop-color:#818181"/>
				<stop  offset="0.6631" style="stop-color:#C5C5C5"/>
				<stop  offset="0.8091" style="stop-color:#EFEFEF"/>
				<stop  offset="0.8837" style="stop-color:#FFFFFF"/>
			</linearGradient>
			
				<path style="mask:url(#SVGID_00000063601310609834311710000010576159364660300966_);fill:url(#SVGID_00000128484720311015906000000012411080707165369498_);" d="
				M1265.8,16.4v207.2H1174V14.8c-53.9-28.4-115.1-7-115.1-7v215.7h-54.2h-9.6H941V7.7c0,0-61.2-21.4-115.1,7v208.9h-91.8V16.4
				c0,0-75.5-17.6-128.6,15.4v319.9h788.9V31.7C1341.4-1.3,1265.8,16.4,1265.8,16.4z"/>
		</g>
	</mask>
	
		<linearGradient id="SVGID_00000165931384938219829290000007929816902237584802_" gradientUnits="userSpaceOnUse" x1="1139.1222" y1="401.0497" x2="860.9775" y2="-17.4474">
		<stop  offset="0.1154" style="stop-color:#434546"/>
		<stop  offset="0.3396" style="stop-color:#828384"/>
		<stop  offset="0.5989" style="stop-color:#C5C6C6"/>
		<stop  offset="0.7873" style="stop-color:#EFEFEF"/>
		<stop  offset="0.8837" style="stop-color:#FFFFFF"/>
	</linearGradient>
	<path style="opacity:0.5;fill:url(#SVGID_00000165931384938219829290000007929816902237584802_);" d="M1265.8,16.4v207.2H1174V14.8
		c-53.9-28.4-115.1-7-115.1-7v215.7h-54.2h-9.6H941V7.7c0,0-61.2-21.4-115.1,7v208.9h-91.8V16.4c0,0-75.5-17.6-128.6,15.4v319.9
		h788.9V31.7C1341.4-1.3,1265.8,16.4,1265.8,16.4z"/>
	<defs>
		
			<filter id="Adobe_OpacityMaskFilter_00000159466863903581312830000000767717240330417286_" filterUnits="userSpaceOnUse" x="659.4" y="2.2" width="204.7" height="349.4">
			<feColorMatrix  type="matrix" values="1 0 0 0 0  0 1 0 0 0  0 0 1 0 0  0 0 0 1 0"/>
		</filter>
	</defs>
	
		<mask maskUnits="userSpaceOnUse" x="659.4" y="2.2" width="204.7" height="349.4" id="SVGID_00000043438705581326315850000010295575335969216442_">
		<g style="filter:url(#Adobe_OpacityMaskFilter_00000159466863903581312830000000767717240330417286_);">
			<defs>
				
					<filter id="Adobe_OpacityMaskFilter_00000147197255960248624500000002417993513798677437_" filterUnits="userSpaceOnUse" x="659.4" y="2.2" width="204.7" height="349.4">
					<feFlood  style="flood-color:white;flood-opacity:1" result="back"/>
					<feBlend  in="SourceGraphic" in2="back" mode="normal"/>
				</filter>
			</defs>
			
				<mask maskUnits="userSpaceOnUse" x="659.4" y="2.2" width="204.7" height="349.4" id="SVGID_00000043438705581326315850000010295575335969216442_">
				<g style="filter:url(#Adobe_OpacityMaskFilter_00000147197255960248624500000002417993513798677437_);">
				</g>
			</mask>
			
				<linearGradient id="SVGID_00000151544723442785228210000015168657039233360773_" gradientUnits="userSpaceOnUse" x1="761.7108" y1="355.6829" x2="761.7108" y2="4.8862">
				<stop  offset="0.1154" style="stop-color:#000000"/>
				<stop  offset="0.2103" style="stop-color:#252525"/>
				<stop  offset="0.4601" style="stop-color:#818181"/>
				<stop  offset="0.6631" style="stop-color:#C5C5C5"/>
				<stop  offset="0.8091" style="stop-color:#EFEFEF"/>
				<stop  offset="0.8837" style="stop-color:#FFFFFF"/>
			</linearGradient>
			
				<path style="mask:url(#SVGID_00000043438705581326315850000010295575335969216442_);fill:url(#SVGID_00000151544723442785228210000015168657039233360773_);" d="
				M826,14.8v208.9h-91.8V16.4c0,0-35.4-8.2-74.8-2.8c0,94.8,0,237.8,0,338h204.7V2.2C851.6,4.1,838.6,8,826,14.8z"/>
		</g>
	</mask>
	
		<linearGradient id="SVGID_00000071555532184569272890000016888582593809429415_" gradientUnits="userSpaceOnUse" x1="761.7108" y1="355.6829" x2="761.7108" y2="4.8862">
		<stop  offset="0.1154" style="stop-color:#FFFFFF"/>
		<stop  offset="0.8837" style="stop-color:#FFFFFF"/>
	</linearGradient>
	<path style="opacity:0.5;fill:url(#SVGID_00000071555532184569272890000016888582593809429415_);" d="M826,14.8v208.9h-91.8V16.4
		c0,0-35.4-8.2-74.8-2.8c0,94.8,0,237.8,0,338h204.7V2.2C851.6,4.1,838.6,8,826,14.8z"/>
	<defs>
		
			<filter id="Adobe_OpacityMaskFilter_00000022520072435863027680000007113590589726485900_" filterUnits="userSpaceOnUse" x="751.5" y="395.1" width="212.8" height="1014.5">
			<feColorMatrix  type="matrix" values="1 0 0 0 0  0 1 0 0 0  0 0 1 0 0  0 0 0 1 0"/>
		</filter>
	</defs>
	
		<mask maskUnits="userSpaceOnUse" x="751.5" y="395.1" width="212.8" height="1014.5" id="SVGID_00000030470251636574099250000014328137994424460734_">
		<g style="filter:url(#Adobe_OpacityMaskFilter_00000022520072435863027680000007113590589726485900_);">
			<defs>
				
					<filter id="Adobe_OpacityMaskFilter_00000098908701197806000960000014940803904326394272_" filterUnits="userSpaceOnUse" x="751.5" y="395.1" width="212.8" height="1014.5">
					<feFlood  style="flood-color:white;flood-opacity:1" result="back"/>
					<feBlend  in="SourceGraphic" in2="back" mode="normal"/>
				</filter>
			</defs>
			
				<mask maskUnits="userSpaceOnUse" x="751.5" y="395.1" width="212.8" height="1014.5" id="SVGID_00000030470251636574099250000014328137994424460734_">
				<g style="filter:url(#Adobe_OpacityMaskFilter_00000098908701197806000960000014940803904326394272_);">
				</g>
			</mask>
			
				<linearGradient id="SVGID_00000127008676268519173030000009708700902467379102_" gradientUnits="userSpaceOnUse" x1="857.8786" y1="1438.7793" x2="857.8786" y2="336.9243">
				<stop  offset="0.1042" style="stop-color:#FFFFFF"/>
				<stop  offset="0.4377" style="stop-color:#9A9A9A"/>
				<stop  offset="0.9254" style="stop-color:#000000"/>
			</linearGradient>
			
				<path style="mask:url(#SVGID_00000030470251636574099250000014328137994424460734_);fill:url(#SVGID_00000127008676268519173030000009708700902467379102_);" d="
				M897.9,395.1l-19.1,15.2l-61.8,4.2c64.4,16,76.1,95.5,58.7,193.4c-31,176.2-85.1,605.4-124.3,801.7h132.6
				c23.1-205.3,51.4-647.7,75.2-829C980.4,419.3,929.9,400.6,897.9,395.1z"/>
		</g>
	</mask>
	
		<linearGradient id="SVGID_00000131329399023756002870000004349558511821407114_" gradientUnits="userSpaceOnUse" x1="857.8786" y1="1438.7793" x2="857.8786" y2="336.9243">
		<stop  offset="0.1042" style="stop-color:#FFFFFF"/>
		<stop  offset="0.9254" style="stop-color:#FFFFFF"/>
	</linearGradient>
	<path style="opacity:0.5;fill:url(#SVGID_00000131329399023756002870000004349558511821407114_);" d="M897.9,395.1l-19.1,15.2
		l-61.8,4.2c64.4,16,76.1,95.5,58.7,193.4c-31,176.2-85.1,605.4-124.3,801.7h132.6c23.1-205.3,51.4-647.7,75.2-829
		C980.4,419.3,929.9,400.6,897.9,395.1z"/>
	<defs>
		
			<filter id="Adobe_OpacityMaskFilter_00000132787146001061514750000002392110405576824457_" filterUnits="userSpaceOnUse" x="562.6" y="1410.9" width="318.1" height="261.5">
			<feColorMatrix  type="matrix" values="1 0 0 0 0  0 1 0 0 0  0 0 1 0 0  0 0 0 1 0"/>
		</filter>
	</defs>
	
		<mask maskUnits="userSpaceOnUse" x="562.6" y="1410.9" width="318.1" height="261.5" id="SVGID_00000035526543275784579120000014380732441561847685_">
		<g style="filter:url(#Adobe_OpacityMaskFilter_00000132787146001061514750000002392110405576824457_);">
			<defs>
				
					<filter id="Adobe_OpacityMaskFilter_00000111877455051049722290000010053344504834471594_" filterUnits="userSpaceOnUse" x="562.6" y="1410.9" width="318.1" height="261.5">
					<feFlood  style="flood-color:white;flood-opacity:1" result="back"/>
					<feBlend  in="SourceGraphic" in2="back" mode="normal"/>
				</filter>
			</defs>
			
				<mask maskUnits="userSpaceOnUse" x="562.6" y="1410.9" width="318.1" height="261.5" id="SVGID_00000035526543275784579120000014380732441561847685_">
				<g style="filter:url(#Adobe_OpacityMaskFilter_00000111877455051049722290000010053344504834471594_);">
				</g>
			</mask>
			
				<linearGradient id="SVGID_00000029761305580904460890000006232632025907873189_" gradientUnits="userSpaceOnUse" x1="721.6613" y1="1676.1555" x2="721.6613" y2="1413.814">
				<stop  offset="8.361540e-02" style="stop-color:#FFFFFF"/>
				<stop  offset="0.146" style="stop-color:#DBDBDB"/>
				<stop  offset="0.2704" style="stop-color:#9A9A9A"/>
				<stop  offset="0.3889" style="stop-color:#636363"/>
				<stop  offset="0.498" style="stop-color:#383838"/>
				<stop  offset="0.5959" style="stop-color:#191919"/>
				<stop  offset="0.679" style="stop-color:#070707"/>
				<stop  offset="0.7374" style="stop-color:#000000"/>
			</linearGradient>
			
				<path style="mask:url(#SVGID_00000035526543275784579120000014380732441561847685_);fill:url(#SVGID_00000029761305580904460890000006232632025907873189_);" d="
				M880.7,1414.6l-129.3-3.7c-17.3,74.8-98.7,218.8-188.9,261.5h208.9C863.7,1608.3,870.7,1491.6,880.7,1414.6z"/>
		</g>
	</mask>
	
		<linearGradient id="SVGID_00000014609487629238341950000000208512594499785128_" gradientUnits="userSpaceOnUse" x1="721.6613" y1="1676.1555" x2="721.6613" y2="1413.814">
		<stop  offset="8.361540e-02" style="stop-color:#FFFFFF"/>
		<stop  offset="0.7374" style="stop-color:#FFFFFF"/>
	</linearGradient>
	<path style="opacity:0.5;fill:url(#SVGID_00000014609487629238341950000000208512594499785128_);" d="M880.7,1414.6l-129.3-3.7
		c-17.3,74.8-98.7,218.8-188.9,261.5h208.9C863.7,1608.3,870.7,1491.6,880.7,1414.6z"/>
	<defs>
		
			<filter id="Adobe_OpacityMaskFilter_00000127038166575504151460000011780336840615410822_" filterUnits="userSpaceOnUse" x="462.8" y="1801.1" width="279.1" height="202.7">
			<feColorMatrix  type="matrix" values="1 0 0 0 0  0 1 0 0 0  0 0 1 0 0  0 0 0 1 0"/>
		</filter>
	</defs>
	
		<mask maskUnits="userSpaceOnUse" x="462.8" y="1801.1" width="279.1" height="202.7" id="SVGID_00000059999424247109786600000001852516851620350368_">
		<g style="filter:url(#Adobe_OpacityMaskFilter_00000127038166575504151460000011780336840615410822_);">
			<defs>
				
					<filter id="Adobe_OpacityMaskFilter_00000097482655733020924430000004023553209970264500_" filterUnits="userSpaceOnUse" x="462.8" y="1801.1" width="279.1" height="202.7">
					<feFlood  style="flood-color:white;flood-opacity:1" result="back"/>
					<feBlend  in="SourceGraphic" in2="back" mode="normal"/>
				</filter>
			</defs>
			
				<mask maskUnits="userSpaceOnUse" x="462.8" y="1801.1" width="279.1" height="202.7" id="SVGID_00000059999424247109786600000001852516851620350368_">
				<g style="filter:url(#Adobe_OpacityMaskFilter_00000097482655733020924430000004023553209970264500_);">
				</g>
			</mask>
			
				<linearGradient id="SVGID_00000055670379311355939530000010280363103255175092_" gradientUnits="userSpaceOnUse" x1="599.034" y1="2020.26" x2="609.3439" y2="1659.4192">
				<stop  offset="8.361540e-02" style="stop-color:#FFFFFF"/>
				<stop  offset="0.146" style="stop-color:#DBDBDB"/>
				<stop  offset="0.2704" style="stop-color:#9A9A9A"/>
				<stop  offset="0.3889" style="stop-color:#636363"/>
				<stop  offset="0.498" style="stop-color:#383838"/>
				<stop  offset="0.5959" style="stop-color:#191919"/>
				<stop  offset="0.679" style="stop-color:#070707"/>
				<stop  offset="0.7374" style="stop-color:#000000"/>
			</linearGradient>
			
				<path style="mask:url(#SVGID_00000059999424247109786600000001852516851620350368_);fill:url(#SVGID_00000055670379311355939530000010280363103255175092_);" d="
				M610.1,1801.1c-57.8,14.2-135.3,101-147.2,202.7h220.6c0.5-64.1,10.7-155.1,58.5-202.7H610.1z"/>
		</g>
	</mask>
	
		<linearGradient id="SVGID_00000024002329317319845740000015469305889431445671_" gradientUnits="userSpaceOnUse" x1="599.034" y1="2020.26" x2="609.3439" y2="1659.4192">
		<stop  offset="8.361540e-02" style="stop-color:#FFFFFF"/>
		<stop  offset="0.7374" style="stop-color:#FFFFFF"/>
	</linearGradient>
	<path style="fill:url(#SVGID_00000024002329317319845740000015469305889431445671_);" d="M610.1,1801.1
		c-57.8,14.2-135.3,101-147.2,202.7h220.6c0.5-64.1,10.7-155.1,58.5-202.7H610.1z"/>
	
		<linearGradient id="SVGID_00000048489467224772533030000004699349911766805388_" gradientUnits="userSpaceOnUse" x1="486.6671" y1="407.7478" x2="1277.5376" y2="407.7478">
		<stop  offset="0" style="stop-color:#A4A6A9"/>
		<stop  offset="2.187645e-03" style="stop-color:#9FA1A4"/>
		<stop  offset="1.772643e-02" style="stop-color:#838587"/>
		<stop  offset="3.508511e-02" style="stop-color:#6B6D6F"/>
		<stop  offset="5.469164e-02" style="stop-color:#595B5D"/>
		<stop  offset="7.785351e-02" style="stop-color:#4D4F50"/>
		<stop  offset="0.108" style="stop-color:#454748"/>
		<stop  offset="0.1706" style="stop-color:#434546"/>
		<stop  offset="0.1957" style="stop-color:#414243"/>
		<stop  offset="0.4155" style="stop-color:#302F2F"/>
		<stop  offset="0.6353" style="stop-color:#252323"/>
		<stop  offset="0.8535" style="stop-color:#221F1F"/>
	</linearGradient>
	<path style="fill:url(#SVGID_00000048489467224772533030000004699349911766805388_);" d="M1359.4,428.4H640.6
		c-11.4,0-20.6-9.3-20.6-20.8c0-11.3,9.2-20.6,20.6-20.6h718.7c11.4,0,20.6,9.3,20.6,20.6C1380,419.1,1370.7,428.4,1359.4,428.4z"/>
	
		<linearGradient id="SVGID_00000098221552891107632710000003565259387614949521_" gradientUnits="userSpaceOnUse" x1="486.6671" y1="416.4924" x2="1277.5376" y2="416.4924">
		<stop  offset="0" style="stop-color:#A4A6A9"/>
		<stop  offset="2.187645e-03" style="stop-color:#9FA1A4"/>
		<stop  offset="1.772643e-02" style="stop-color:#838587"/>
		<stop  offset="3.508511e-02" style="stop-color:#6B6D6F"/>
		<stop  offset="5.469164e-02" style="stop-color:#595B5D"/>
		<stop  offset="7.785351e-02" style="stop-color:#4D4F50"/>
		<stop  offset="0.108" style="stop-color:#454748"/>
		<stop  offset="0.1706" style="stop-color:#434546"/>
		<stop  offset="0.1957" style="stop-color:#414243"/>
		<stop  offset="0.4155" style="stop-color:#302F2F"/>
		<stop  offset="0.6353" style="stop-color:#252323"/>
		<stop  offset="0.8535" style="stop-color:#221F1F"/>
	</linearGradient>
	<path style="opacity:0.5;fill:url(#SVGID_00000098221552891107632710000003565259387614949521_);" d="M624.5,404.9
		c-1.5,0-2.9-0.2-4.3-0.3c-0.1,1.1-0.3,2.1-0.3,3.1c0,11.4,9.2,20.8,20.6,20.8h718.7c11.4,0,20.6-9.3,20.6-20.8
		c0-0.8-0.1-1.6-0.2-2.8H624.5z"/>
	
		<linearGradient id="SVGID_00000023240417193813887960000007029840878551136917_" gradientUnits="userSpaceOnUse" x1="1000.0084" y1="1353.488" x2="1000.0084" y2="1446.1451">
		<stop  offset="0" style="stop-color:#A4A6A9"/>
		<stop  offset="4.485302e-02" style="stop-color:#939598"/>
		<stop  offset="0.1536" style="stop-color:#717375"/>
		<stop  offset="0.2558" style="stop-color:#585A5B"/>
		<stop  offset="0.3479" style="stop-color:#484A4B"/>
		<stop  offset="0.4212" style="stop-color:#434546"/>
		<stop  offset="0.7726" style="stop-color:#292727"/>
		<stop  offset="0.8535" style="stop-color:#221F1F"/>
	</linearGradient>
	<path style="fill:url(#SVGID_00000023240417193813887960000007029840878551136917_);" d="M1308.4,1444.7H691.6
		c-18.9,0-34.3-15.4-34.3-34.3c0-18.9,15.4-34.3,34.3-34.3h616.7c19,0,34.3,15.4,34.3,34.3
		C1342.7,1429.3,1327.3,1444.7,1308.4,1444.7z"/>
	
		<linearGradient id="SVGID_00000068652757320823992260000001371523678430998929_" gradientUnits="userSpaceOnUse" x1="1000.0084" y1="1353.9923" x2="1000.0084" y2="1446.1371">
		<stop  offset="0" style="stop-color:#A4A6A9"/>
		<stop  offset="4.485302e-02" style="stop-color:#939598"/>
		<stop  offset="0.1536" style="stop-color:#717375"/>
		<stop  offset="0.2558" style="stop-color:#585A5B"/>
		<stop  offset="0.3479" style="stop-color:#484A4B"/>
		<stop  offset="0.4212" style="stop-color:#434546"/>
		<stop  offset="0.7726" style="stop-color:#292727"/>
		<stop  offset="0.8535" style="stop-color:#221F1F"/>
	</linearGradient>
	<path style="opacity:0.5;fill:url(#SVGID_00000068652757320823992260000001371523678430998929_);" d="M657.8,1405.3
		c-0.3,1.5-0.5,3.3-0.5,5.1c0,19,15.4,34.3,34.3,34.3h616.7c19,0,34.3-15.4,34.3-34.3c0-1.8-0.3-3.6-0.5-5.1H657.8z"/>
</g>
</svg>
